<svg width="62" height="33" viewBox="0 0 62 33" fill="none" xmlns="http://www.w3.org/2000/svg">
<g id="cloudy">
<path id="Vector" d="M46.0228 8.98352C42.7295 1.0362 33.0404 -1.00325 26.9812 4.91457C26.9327 4.96198 26.9404 4.99516 27.0045 5.01413C30.5377 6.01821 33.2817 8.12687 35.2364 11.3401C35.2657 11.3866 35.3056 11.4008 35.3559 11.3828C35.6169 11.2875 35.8792 11.1695 36.1442 11.0884C38.9267 10.237 41.6052 10.4351 44.1797 11.6829C46.9004 13.0013 49.0771 15.5371 49.9918 18.5564C50.7801 21.16 50.6876 23.7503 49.7144 26.3274C49.6942 26.3814 49.7121 26.408 49.7679 26.407C50.5645 26.3942 51.3926 26.4611 52.1809 26.3416C54.8343 25.9396 56.9327 24.6496 58.4764 22.4718C61.8095 17.7685 60.1134 10.9817 55.065 8.46299C52.7449 7.30626 50.3223 7.19675 47.7972 8.13446C47.2002 8.35632 46.6486 8.65072 46.1423 9.01765C46.1324 9.02465 46.1212 9.02935 46.1095 9.03142C46.0977 9.03348 46.0857 9.03287 46.0743 9.0296C46.0629 9.02634 46.0523 9.02052 46.0434 9.01255C46.0345 9.00458 46.0275 8.99467 46.0228 8.98352Z" stroke="#688396" stroke-width="2"/>
<path id="Vector_2" d="M11.7054 17.7045C9.44896 16.3819 6.70363 16.5326 4.57767 17.8724C-0.417228 21.0197 0.255721 28.8476 5.74915 30.998C6.0696 31.1231 6.37586 31.2502 6.66793 31.3791C6.84018 31.4542 7.02554 31.4929 7.21314 31.4929C17.7239 31.4843 28.182 31.4867 38.5875 31.5C39.7558 31.5019 40.6581 31.4341 41.2944 31.2966C47.8549 29.8815 50.7733 21.8275 46.6834 16.298C43.8117 12.4139 38.4817 11.4141 34.499 14.1078C34.456 14.1362 34.4239 14.1263 34.4029 14.0779C33.3243 11.5274 31.6772 9.58325 29.4615 8.24542C24.7852 5.42091 18.9114 6.25432 15.1099 10.2692C13.2138 12.2717 12.116 14.7307 11.8166 17.6462C11.8084 17.724 11.7713 17.7434 11.7054 17.7045Z" stroke="#7994A8" stroke-width="2"/>
<path id="Vector_3" d="M46.0228 8.98352C46.0275 8.99467 46.0345 9.00458 46.0434 9.01255C46.0523 9.02052 46.0629 9.02634 46.0743 9.0296C46.0857 9.03287 46.0977 9.03348 46.1095 9.03142C46.1212 9.02935 46.1324 9.02465 46.1423 9.01765C46.6486 8.65072 47.2002 8.35632 47.7972 8.13446C50.3223 7.19675 52.7449 7.30626 55.065 8.46299C60.1134 10.9817 61.8095 17.7685 58.4764 22.4718C56.9327 24.6496 54.8343 25.9396 52.1809 26.3416C51.3926 26.4611 50.5645 26.3942 49.7679 26.407C49.7121 26.408 49.6942 26.3814 49.7144 26.3274C50.6876 23.7503 50.7801 21.16 49.9918 18.5564C49.0771 15.5371 46.9004 13.0013 44.1797 11.6829C41.6052 10.4351 38.9267 10.237 36.1442 11.0884C35.8792 11.1695 35.6169 11.2875 35.3559 11.3828C35.3056 11.4008 35.2657 11.3866 35.2364 11.3401C33.2817 8.12687 30.5377 6.01821 27.0045 5.01413C26.9404 4.99516 26.9327 4.96198 26.9812 4.91457C33.0404 -1.00325 42.7295 1.0362 46.0228 8.98352Z" fill="#CDCDCF"/>
<path id="Vector_4" d="M11.8166 17.6462C12.116 14.7307 13.2138 12.2717 15.1099 10.2692C18.9114 6.25432 24.7852 5.42091 29.4615 8.24542C31.6772 9.58325 33.3243 11.5274 34.4029 14.0779C34.4239 14.1263 34.456 14.1362 34.499 14.1078C38.4817 11.4141 43.8117 12.4139 46.6834 16.298C50.7733 21.8275 47.8549 29.8815 41.2944 31.2966C40.6581 31.4341 39.7558 31.5019 38.5875 31.5C28.182 31.4867 17.7239 31.4843 7.21314 31.4929C7.02554 31.4929 6.84018 31.4542 6.66793 31.3791C6.37586 31.2502 6.0696 31.1231 5.74915 30.998C0.255721 28.8476 -0.417228 21.0197 4.57767 17.8724C6.70363 16.5326 9.44896 16.3819 11.7054 17.7045C11.7713 17.7434 11.8084 17.724 11.8166 17.6462Z" fill="#EFF0F4"/>
</g>
</svg>
