<svg width="60" height="77" viewBox="0 0 60 77" fill="none" xmlns="http://www.w3.org/2000/svg">
<g id="Frame 47">
<path id="Vector" d="M9.1437 29.4152C13.9494 19.5331 19.2846 9.89342 24.9544 0.517658C24.9579 0.512266 24.9628 0.507809 24.9684 0.504717C24.974 0.501624 24.9803 0.5 24.9866 0.5C24.9929 0.5 24.999 0.501624 25.0043 0.504717C25.0096 0.507809 25.014 0.512266 25.017 0.517658C30.7685 9.9413 36.062 19.6175 40.8975 29.5463C43.3916 34.6686 45.6638 39.9113 47.3062 45.2761C48.1453 48.0123 48.6857 50.797 48.4405 53.7056C48.0457 58.424 46.4272 62.6343 43.5848 66.3365C37.7325 73.9635 27.6328 77.2923 18.4115 74.5489C8.64453 71.6438 1.8082 62.8947 1.48436 52.5889C1.4462 51.3919 1.53983 50.2069 1.76526 49.0339C2.11951 47.1834 2.58529 45.4101 3.16258 43.714C4.67143 39.2781 6.66514 34.5118 9.1437 29.4152Z" fill="#37B0FE"/>
<path id="Vector_2" d="M19.1676 30.4152C23.9733 20.5331 29.3085 10.8934 34.9783 1.51766C34.9819 1.51227 34.9867 1.50781 34.9923 1.50472C34.9979 1.50162 35.0042 1.5 35.0105 1.5C35.0168 1.5 35.0229 1.50162 35.0282 1.50472C35.0336 1.50781 35.0379 1.51227 35.0409 1.51766C40.7925 10.9413 46.086 20.6175 50.9214 30.5463C53.4155 35.6686 55.6877 40.9113 57.3301 46.2761C58.1693 49.0123 58.7096 51.797 58.4645 54.7056C58.0697 59.424 56.4511 63.6343 53.6087 67.3365C47.7564 74.9635 37.6567 78.2923 28.4354 75.5489C18.6685 72.6438 11.8321 63.8947 11.5083 53.5889C11.4701 52.3919 11.5638 51.2069 11.7892 50.0339C12.1434 48.1834 12.6092 46.4101 13.1865 44.714C14.6954 40.2781 16.6891 35.5118 19.1676 30.4152Z" fill="#91CFFE"/>
</g>
</svg>
