<svg width="432" height="261" viewBox="0 0 432 261" fill="none" xmlns="http://www.w3.org/2000/svg">
<path d="M162.64 79.3108C162.594 79.7374 162.384 79.8441 162.01 79.6308C143.75 69.2608 121.13 71.6008 104.84 84.3108C73.4304 108.831 81.4304 159.461 118.74 173.111C120.954 173.917 123.117 174.774 125.23 175.681C126.412 176.189 127.684 176.451 128.97 176.451C205.277 176.384 281.74 176.401 358.36 176.501C366.267 176.514 372.514 176.057 377.1 175.131C418.3 166.841 441.61 122.311 424.78 83.5407C416.94 65.4807 400.57 50.8108 381.21 45.8908C362.23 41.0641 344.38 43.8607 327.66 54.2807C327.44 54.4207 327.277 54.3708 327.17 54.1308C319.75 37.0108 308.437 23.7107 293.23 14.2307C261.44 -5.58926 219.37 -2.31923 191.28 22.8208C174.614 37.7341 165.067 56.5641 162.64 79.3108Z" stroke="#7994A8" stroke-width="2"/>
<path d="M128.28 195.771C128.281 195.725 128.271 195.68 128.253 195.638C128.234 195.597 128.207 195.559 128.173 195.529C128.139 195.499 128.099 195.476 128.055 195.463C128.011 195.449 127.966 195.445 127.92 195.451L89.5703 199.671C89.4854 199.671 89.404 199.705 89.344 199.765C89.284 199.825 89.2504 199.906 89.2504 199.991C89.2504 200.076 89.284 200.157 89.344 200.217C89.404 200.277 89.4854 200.311 89.5703 200.311L127.82 204.501C127.864 204.505 127.908 204.5 127.95 204.487C127.991 204.473 128.03 204.451 128.063 204.422C128.095 204.393 128.122 204.357 128.14 204.318C128.159 204.278 128.169 204.235 128.17 204.191L128.28 195.771Z" stroke="#106993" stroke-width="2"/>
<path d="M199.43 199.861C199.124 199.874 198.844 199.957 198.59 200.111C198.104 200.411 198.144 200.551 198.71 200.531C205.397 200.344 213.684 200.404 223.57 200.711C241.624 201.264 259.417 201.868 276.95 202.521C299.53 203.361 319.15 203.401 342.42 204.631C343.547 204.684 344.66 204.684 345.76 204.631C346.394 204.604 346.71 204.274 346.71 203.641L346.68 196.351C346.68 195.704 346.354 195.387 345.7 195.401C319.76 196.041 293.687 196.888 267.48 197.941C261.3 198.188 254.624 198.398 247.45 198.571C231.15 198.958 215.144 199.387 199.43 199.861Z" stroke="#106993" stroke-width="2"/>
<path d="M149.71 201.121C157.177 201.921 164.4 202.487 171.38 202.821C177.13 203.091 182.82 203.931 188.46 204.461C189.08 204.521 189.39 204.241 189.39 203.621L189.37 196.451C189.37 195.804 189.047 195.507 188.4 195.561C184.4 195.901 180.517 196.271 176.75 196.671C172.817 197.084 168.95 197.414 165.15 197.661C156.257 198.227 147.564 198.951 139.07 199.831C138.97 199.844 138.917 199.904 138.91 200.011C138.904 200.151 138.974 200.231 139.12 200.251C142.6 200.711 146.21 200.751 149.71 201.121Z" stroke="#106993" stroke-width="2"/>
<path d="M104.1 229.491C103.587 229.531 103.087 229.641 102.6 229.821C101.814 230.107 101.84 230.261 102.68 230.281C105.66 230.347 108.697 230.497 111.79 230.731C127.184 231.897 143.02 233.097 159.3 234.331C159.46 234.344 159.544 234.271 159.55 234.111L159.67 225.561C159.67 225.528 159.664 225.495 159.651 225.464C159.638 225.434 159.619 225.406 159.596 225.384C159.572 225.361 159.544 225.344 159.514 225.333C159.484 225.322 159.452 225.318 159.42 225.321C140.907 226.647 122.467 228.037 104.1 229.491Z" stroke="#106993" stroke-width="2"/>
<path d="M171.38 230.111C171.38 230.204 171.427 230.251 171.52 230.251C186.167 230.291 200.13 230.467 213.41 230.781C265.33 232.007 317.474 233.207 369.84 234.381C369.987 234.381 370.064 234.307 370.07 234.161L370.17 225.551C370.177 225.384 370.097 225.304 369.93 225.311C336.504 225.977 296.257 226.844 249.19 227.911C238.504 228.151 227.17 228.397 215.19 228.651C201.95 228.931 187.39 229.371 171.51 229.971C171.417 229.977 171.374 230.024 171.38 230.111Z" stroke="#106993" stroke-width="2"/>
<path d="M82.5203 234.331C82.5683 234.34 82.6178 234.338 82.665 234.325C82.7123 234.313 82.7561 234.29 82.7935 234.258C82.8308 234.227 82.8607 234.187 82.8809 234.143C82.9011 234.098 82.9111 234.05 82.9103 234.001V225.581C82.9111 225.532 82.9011 225.483 82.8809 225.439C82.8607 225.394 82.8308 225.355 82.7935 225.323C82.7561 225.292 82.7123 225.269 82.665 225.256C82.6178 225.244 82.5683 225.242 82.5203 225.251L59.6703 229.471C59.599 229.489 59.5358 229.53 59.4907 229.588C59.4455 229.646 59.421 229.717 59.421 229.791C59.421 229.864 59.4455 229.936 59.4907 229.994C59.5358 230.052 59.599 230.093 59.6703 230.111L82.5203 234.331Z" stroke="#106993" stroke-width="2"/>
<path d="M160.44 253.081C161.927 253.374 163.507 253.537 165.18 253.571C215.51 254.591 268.29 256.511 319.52 257.751C319.667 257.757 319.74 257.684 319.74 257.531L319.68 248.931C319.68 248.824 319.627 248.774 319.52 248.781C282.867 249.727 247.134 250.744 212.32 251.831C195.29 252.371 177.68 252.441 160.32 253.061C160.314 253.061 160.31 253.061 160.31 253.061C160.277 252.967 160.294 252.957 160.36 253.031C160.38 253.057 160.407 253.074 160.44 253.081Z" stroke="#106993" stroke-width="2"/>
<path d="M387.96 249.041C387.96 249.016 387.955 248.992 387.946 248.969C387.936 248.947 387.922 248.927 387.904 248.91C387.886 248.893 387.865 248.88 387.842 248.871C387.819 248.863 387.795 248.859 387.77 248.861L330.14 252.901C330.111 252.904 330.084 252.914 330.06 252.931C330.036 252.947 330.016 252.969 330.002 252.994C329.989 253.02 329.981 253.048 329.981 253.077C329.981 253.106 329.987 253.135 330 253.161L330.17 253.501C330.184 253.529 330.206 253.553 330.232 253.571C330.258 253.588 330.289 253.599 330.32 253.601L387.73 257.611C387.755 257.612 387.779 257.608 387.802 257.6C387.825 257.592 387.846 257.579 387.864 257.562C387.882 257.545 387.896 257.525 387.906 257.502C387.915 257.48 387.92 257.455 387.92 257.431L387.96 249.041Z" stroke="#106993" stroke-width="2"/>
<path d="M1.15036 254.371C1.12933 254.372 1.10874 254.378 1.08981 254.387C1.07088 254.396 1.05394 254.409 1.04001 254.425C1.02607 254.44 1.01538 254.459 1.00857 254.479C1.00176 254.499 0.998978 254.52 1.00033 254.541V254.581C1.0027 254.62 1.01927 254.657 1.0469 254.684C1.07454 254.712 1.11135 254.728 1.15036 254.731L66.2403 259.091C66.2622 259.092 66.2841 259.089 66.3047 259.082C66.3252 259.074 66.3441 259.063 66.36 259.048C66.3759 259.033 66.3886 259.015 66.3972 258.995C66.4059 258.974 66.4104 258.953 66.4103 258.931L66.3803 250.121C66.3804 250.099 66.3759 250.077 66.3673 250.057C66.3586 250.037 66.3459 250.019 66.33 250.004C66.3141 249.989 66.2952 249.977 66.2746 249.97C66.254 249.963 66.2322 249.96 66.2104 249.961L1.15036 254.371Z" stroke="#106993" stroke-width="2"/>
<path d="M84.2204 255.001C88.9004 255.611 94.0203 255.431 99.0203 255.781C114.407 256.834 129.944 257.947 145.63 259.121C146.484 259.187 146.93 258.791 146.97 257.931L147.23 251.481C147.247 251.106 147.119 250.74 146.871 250.457C146.623 250.174 146.276 249.996 145.9 249.961C144.914 249.867 143.854 249.871 142.72 249.971C123.267 251.684 103.777 253.074 84.2504 254.141C81.1437 254.307 81.1337 254.594 84.2204 255.001Z" stroke="#106993" stroke-width="2"/>
<path d="M162.64 79.3108C165.067 56.5641 174.614 37.7341 191.28 22.8208C219.37 -2.31923 261.44 -5.58926 293.23 14.2307C308.437 23.7107 319.75 37.0108 327.17 54.1308C327.277 54.3708 327.44 54.4207 327.66 54.2807C344.38 43.8607 362.23 41.0641 381.21 45.8908C400.57 50.8108 416.94 65.4807 424.78 83.5407C441.61 122.311 418.3 166.841 377.1 175.131C372.514 176.057 366.267 176.514 358.36 176.501C281.74 176.401 205.277 176.384 128.97 176.451C127.684 176.451 126.412 176.189 125.23 175.681C123.117 174.774 120.954 173.917 118.74 173.111C81.4304 159.461 73.4304 108.831 104.84 84.3108C121.13 71.6008 143.75 69.2608 162.01 79.6308C162.384 79.8441 162.594 79.7374 162.64 79.3108Z" fill="#EFF0F4"/>
<path d="M128.28 195.771L128.17 204.191C128.169 204.235 128.159 204.278 128.14 204.318C128.122 204.357 128.095 204.393 128.063 204.422C128.03 204.451 127.991 204.473 127.95 204.487C127.908 204.5 127.864 204.505 127.82 204.501L89.5703 200.311C89.4854 200.311 89.404 200.277 89.344 200.217C89.284 200.157 89.2504 200.076 89.2504 199.991C89.2504 199.906 89.284 199.825 89.344 199.765C89.404 199.705 89.4854 199.671 89.5703 199.671L127.92 195.451C127.966 195.445 128.011 195.449 128.055 195.463C128.099 195.476 128.139 195.499 128.173 195.529C128.207 195.559 128.234 195.597 128.253 195.638C128.271 195.68 128.281 195.725 128.28 195.771Z" fill="#1E99CA"/>
<path d="M199.43 199.861C215.144 199.387 231.15 198.957 247.45 198.571C254.624 198.397 261.3 198.187 267.48 197.941C293.687 196.887 319.76 196.041 345.7 195.401C346.354 195.387 346.68 195.704 346.68 196.351L346.71 203.641C346.71 204.274 346.394 204.604 345.76 204.631C344.66 204.684 343.547 204.684 342.42 204.631C319.15 203.401 299.53 203.361 276.95 202.521C259.417 201.867 241.624 201.264 223.57 200.711C213.684 200.404 205.397 200.344 198.71 200.531C198.144 200.551 198.104 200.411 198.59 200.111C198.844 199.957 199.124 199.874 199.43 199.861Z" fill="#1E99CA"/>
<path d="M149.71 201.121C146.21 200.751 142.6 200.711 139.12 200.251C138.974 200.231 138.904 200.151 138.91 200.011C138.917 199.904 138.97 199.844 139.07 199.831C147.564 198.951 156.257 198.227 165.15 197.661C168.95 197.414 172.817 197.084 176.75 196.671C180.517 196.271 184.4 195.901 188.4 195.561C189.047 195.507 189.37 195.804 189.37 196.451L189.39 203.621C189.39 204.241 189.08 204.521 188.46 204.461C182.82 203.931 177.13 203.091 171.38 202.821C164.4 202.487 157.177 201.921 149.71 201.121Z" fill="#1E99CA"/>
<path d="M104.1 229.491C122.467 228.037 140.907 226.647 159.42 225.321C159.452 225.318 159.484 225.322 159.514 225.333C159.544 225.344 159.572 225.361 159.596 225.384C159.619 225.406 159.638 225.434 159.651 225.464C159.664 225.495 159.67 225.528 159.67 225.561L159.55 234.111C159.544 234.271 159.46 234.344 159.3 234.331C143.02 233.097 127.184 231.897 111.79 230.731C108.697 230.497 105.66 230.347 102.68 230.281C101.84 230.261 101.814 230.107 102.6 229.821C103.087 229.641 103.587 229.531 104.1 229.491Z" fill="#1E99CA"/>
<path d="M171.38 230.111C171.374 230.024 171.417 229.977 171.51 229.971C187.39 229.371 201.95 228.931 215.19 228.651C227.17 228.397 238.504 228.151 249.19 227.911C296.257 226.844 336.504 225.977 369.93 225.311C370.097 225.304 370.177 225.384 370.17 225.551L370.07 234.161C370.064 234.307 369.987 234.381 369.84 234.381C317.474 233.207 265.33 232.007 213.41 230.781C200.13 230.467 186.167 230.291 171.52 230.251C171.427 230.251 171.38 230.204 171.38 230.111Z" fill="#1E99CA"/>
<path d="M82.5203 234.331L59.6703 230.111C59.599 230.093 59.5358 230.052 59.4907 229.994C59.4455 229.936 59.421 229.864 59.421 229.791C59.421 229.717 59.4455 229.646 59.4907 229.588C59.5358 229.53 59.599 229.489 59.6703 229.471L82.5203 225.251C82.5683 225.242 82.6178 225.244 82.665 225.256C82.7123 225.269 82.7561 225.292 82.7935 225.323C82.8308 225.355 82.8607 225.394 82.8809 225.439C82.9011 225.483 82.9111 225.532 82.9103 225.581V234.001C82.9111 234.05 82.9011 234.098 82.8809 234.143C82.8607 234.187 82.8308 234.227 82.7935 234.258C82.7561 234.29 82.7123 234.313 82.665 234.325C82.6178 234.338 82.5683 234.34 82.5203 234.331Z" fill="#1E99CA"/>
<path d="M160.44 253.081C160.407 253.074 160.38 253.057 160.36 253.031C160.294 252.957 160.277 252.967 160.31 253.061C160.31 253.061 160.314 253.061 160.32 253.061C177.68 252.441 195.29 252.371 212.32 251.831C247.134 250.744 282.867 249.727 319.52 248.781C319.627 248.774 319.68 248.824 319.68 248.931L319.74 257.531C319.74 257.684 319.667 257.757 319.52 257.751C268.29 256.511 215.51 254.591 165.18 253.571C163.507 253.537 161.927 253.374 160.44 253.081Z" fill="#1E99CA"/>
<path d="M387.96 249.041L387.92 257.431C387.92 257.455 387.915 257.48 387.906 257.502C387.896 257.525 387.882 257.545 387.864 257.562C387.846 257.579 387.825 257.592 387.802 257.6C387.779 257.608 387.755 257.612 387.73 257.611L330.32 253.601C330.289 253.599 330.258 253.588 330.232 253.571C330.206 253.553 330.184 253.529 330.17 253.501L330 253.161C329.987 253.135 329.981 253.106 329.981 253.077C329.981 253.048 329.989 253.02 330.002 252.994C330.016 252.969 330.036 252.947 330.06 252.931C330.084 252.914 330.111 252.904 330.14 252.901L387.77 248.861C387.795 248.859 387.819 248.863 387.842 248.871C387.865 248.88 387.886 248.893 387.904 248.91C387.922 248.927 387.936 248.947 387.946 248.969C387.955 248.992 387.96 249.016 387.96 249.041Z" fill="#1E99CA"/>
<path d="M1.15036 254.371L66.2104 249.961C66.2322 249.96 66.254 249.963 66.2746 249.97C66.2952 249.977 66.3141 249.989 66.33 250.004C66.3459 250.019 66.3586 250.037 66.3673 250.057C66.3759 250.077 66.3804 250.099 66.3803 250.121L66.4103 258.931C66.4104 258.953 66.4059 258.974 66.3972 258.995C66.3886 259.015 66.3759 259.033 66.36 259.048C66.3441 259.063 66.3252 259.074 66.3047 259.082C66.2841 259.089 66.2622 259.092 66.2403 259.091L1.15036 254.731C1.11135 254.728 1.07454 254.712 1.0469 254.684C1.01927 254.657 1.0027 254.62 1.00033 254.581V254.541C0.998978 254.52 1.00176 254.499 1.00857 254.479C1.01538 254.459 1.02607 254.44 1.04001 254.425C1.05394 254.409 1.07088 254.396 1.08981 254.387C1.10874 254.378 1.12933 254.372 1.15036 254.371Z" fill="#1E99CA"/>
<path d="M84.2204 255.001C81.1337 254.594 81.1437 254.307 84.2504 254.141C103.777 253.074 123.267 251.684 142.72 249.971C143.854 249.871 144.914 249.867 145.9 249.961C146.276 249.996 146.623 250.174 146.871 250.457C147.119 250.74 147.247 251.106 147.23 251.481L146.97 257.931C146.93 258.791 146.484 259.187 145.63 259.121C129.944 257.947 114.407 256.834 99.0203 255.781C94.0203 255.431 88.9004 255.611 84.2204 255.001Z" fill="#1E99CA"/>
</svg>
