<svg width="31" height="31" viewBox="0 0 31 31" fill="none" xmlns="http://www.w3.org/2000/svg">
<path d="M21.6768 15.8468C20.188 10.9508 15.8065 5.72558 15.5838 5.46158C15.549 5.4235 15.5066 5.39308 15.4594 5.37226C15.4122 5.35145 15.3612 5.3407 15.3096 5.3407C15.2581 5.3407 15.207 5.35145 15.1598 5.37226C15.1126 5.39308 15.0703 5.4235 15.0355 5.46158C14.8128 5.72558 10.4305 10.9501 8.94101 15.8468C8.63576 16.8511 8.44226 17.8433 8.44226 18.7741C8.44226 22.5601 11.5233 25.6403 15.3093 25.6403C19.0953 25.6403 22.1748 22.5601 22.1748 18.7741C22.1755 17.8433 21.982 16.8518 21.6768 15.8468ZM15.31 24.9233C11.9193 24.9233 9.16076 22.1648 9.16076 18.7748C9.16076 17.8546 9.36551 16.8601 9.69251 15.8476C10.9953 11.8163 14.3298 7.48058 15.31 6.26183C16.2903 7.48058 19.6248 11.8163 20.926 15.8476C21.253 16.8608 21.4578 17.8546 21.4578 18.7748C21.4578 22.1648 18.7 24.9233 15.31 24.9233Z" fill="#F4FBFA"/>
<path d="M11.4609 15.8468C11.0859 16.7993 10.8354 17.7533 10.8354 18.6218C10.8354 19.8084 11.3068 20.9464 12.1459 21.7855C12.985 22.6245 14.123 23.0959 15.3096 23.0959C16.4962 23.0959 17.6342 22.6245 18.4733 21.7855C19.3123 20.9464 19.7837 19.8084 19.7837 18.6218C19.7837 17.7533 19.5332 16.7993 19.1582 15.8468H11.4609Z" fill="#F4FBFA"/>
</svg>
