<svg width="360" height="261" viewBox="0 0 360 261" fill="none" xmlns="http://www.w3.org/2000/svg">
<path d="M235.831 133.569C201.397 124.764 176.916 135.676 162.387 166.303C161.695 167.75 160.579 168.709 159.038 169.18C154.746 170.454 150.406 169.746 145.736 171.303C125.453 177.938 116.287 191.742 118.236 212.716" stroke="#F2D193" stroke-width="2"/>
<path d="M118.236 212.716C117.104 214.131 115.799 215.201 114.321 215.924C112.403 216.836 110.909 218.219 109.84 220.074C107.607 223.942 104.51 226.458 100.548 227.621C99.0697 228.062 97.859 228.911 96.9156 230.168L75.6892 258.752" stroke="#FC9E42" stroke-width="2"/>
<path d="M184.84 230.97C169.337 236.504 156.774 238.926 147.151 238.234C132.309 237.196 122.67 228.69 118.236 212.716" stroke="#F2BC9F" stroke-width="2"/>
<path d="M235.831 133.569C201.397 124.764 176.916 135.676 162.387 166.303C161.696 167.75 160.579 168.709 159.038 169.181C154.746 170.454 150.406 169.746 145.736 171.303C125.453 177.938 116.287 191.742 118.236 212.716C117.104 214.131 115.799 215.2 114.321 215.924C112.403 216.836 110.909 218.219 109.84 220.074C107.607 223.942 104.51 226.458 100.548 227.621C99.0697 228.061 97.8591 228.91 96.9157 230.168L75.6893 258.752C46.7584 253.595 22.293 240.058 2.29304 218.14C1.37097 217.13 0.750753 215.882 0.502727 214.537C0.254701 213.192 0.388812 211.805 0.889955 210.532C1.3911 209.26 2.23917 208.154 3.33769 207.339C4.43622 206.524 5.74111 206.034 7.10431 205.924C20.5949 204.839 34.7459 205.594 48.0006 202.434C86.7742 193.126 115.737 171.177 134.887 136.588C156.806 97.0612 157.497 55.2392 136.963 11.1217C136.373 9.83751 136.124 8.42446 136.24 7.01962C136.356 5.61478 136.832 4.26572 137.623 3.10319C139.51 0.398912 142.246 -0.24573 145.831 1.1693C205.17 24.7217 235.17 68.8549 235.831 133.569Z" fill="#FBB336"/>
<path d="M30.5475 54.7046C41.3652 50.208 48.5821 42.9128 52.1985 32.8189C54.0538 27.6305 56.1137 27.5518 58.3778 32.583C63.0634 42.9284 70.5476 50.2867 80.8306 54.6576C86.2708 56.9845 86.2708 59.2957 80.8306 61.5912C66.3966 67.7702 64.3211 74.4679 56.6324 86.873C56.4248 87.1972 56.1273 87.454 55.7761 87.6118C55.4249 87.7697 55.0353 87.8217 54.655 87.7617C54.2747 87.7016 53.9201 87.5321 53.6347 87.2737C53.3492 87.0154 53.1452 86.6794 53.0476 86.307C50.1231 74.3893 42.6859 66.2607 30.7363 61.9213C24.5413 59.6572 24.4784 57.2517 30.5475 54.7046Z" fill="#FBB336"/>
<path d="M125.595 101.448C132.607 104.089 132.623 106.777 125.642 109.513C115.516 113.507 108.331 121.337 104.085 133.003C103.236 135.361 102.041 135.566 100.5 133.616C98.1734 130.723 96.1923 127.5 94.557 123.947C91.0665 116.305 83.9438 112.013 76.5854 108.9C70.9564 106.51 70.9878 104.199 76.6796 101.966C86.6167 98.1302 93.6137 91.3222 97.6703 81.5428C100.5 74.8136 103.126 74.8923 105.548 81.7787C108.787 91.055 115.469 97.6113 125.595 101.448Z" fill="#FBB336"/>
<path d="M36.1139 111.306C41.5855 125.267 49.3686 127.107 60.878 134.418C63.1107 135.864 62.9691 137.012 60.4534 137.861C48.2206 142.012 39.8716 149.952 35.4062 161.681C33.4251 166.869 31.5068 166.838 29.6515 161.586C25.6892 150.518 17.3402 142.625 4.60431 137.908C1.4911 136.745 1.45971 135.487 4.51002 134.135C16.554 128.789 24.6515 121.148 28.8024 111.211C31.2867 105.237 33.7239 105.268 36.1139 111.306Z" fill="#FBB336"/>
<path d="M235.831 133.569C246.428 139.072 255.076 146.76 261.774 156.634C262.969 158.426 264.557 158.882 266.538 158.002C282.513 151.021 297.796 154.213 312.387 167.577C316.019 170.926 319.793 171.963 324.51 170.831C331.68 169.133 340.736 173.425 346.302 177.623C359.667 187.78 363.252 201.537 357.057 218.895C350.312 237.809 326.633 245.12 310.123 236.536C309.085 236.001 308.048 236.001 307.01 236.536C286.444 247.699 267.277 246.032 249.51 231.536C248.346 230.561 247.104 230.451 245.783 231.206C225.28 242.935 204.966 242.856 184.84 230.97C169.337 236.504 156.774 238.926 147.151 238.234C132.309 237.196 122.67 228.69 118.236 212.716C116.287 191.742 125.453 177.938 145.736 171.303C150.406 169.746 154.746 170.454 159.038 169.18C160.579 168.709 161.695 167.75 162.387 166.303C176.916 135.676 201.397 124.764 235.831 133.569Z" fill="#E8EEF0"/>
<path d="M118.236 212.716C122.67 228.69 132.309 237.196 147.151 238.234C156.774 238.926 169.337 236.504 184.84 230.97C154.997 255.938 118.614 265.198 75.6892 258.752L96.9156 230.168C97.859 228.911 99.0697 228.062 100.548 227.621C104.51 226.458 107.607 223.942 109.84 220.074C110.909 218.219 112.403 216.836 114.321 215.924C115.799 215.201 117.104 214.131 118.236 212.716Z" fill="#FBB336"/>
</svg>
