<svg width="348" height="259" viewBox="0 0 348 259" fill="none" xmlns="http://www.w3.org/2000/svg">
<path d="M78.5871 79.3793C78.5834 79.4265 78.5678 79.472 78.5417 79.5115C78.5156 79.5511 78.4799 79.5834 78.4379 79.6053C78.3959 79.6273 78.3491 79.6382 78.3017 79.6372C78.2544 79.6361 78.2081 79.6231 78.1671 79.5993C67.9405 74.026 57.0405 72.0292 45.4671 73.6092C12.3871 78.1092 -7.63288 113.349 5.01712 144.119C10.0505 156.373 18.6738 165.483 30.8871 171.449C33.8771 172.909 37.0571 173.829 40.1171 175.239C42.3271 176.249 44.7471 176.469 47.1271 176.469C122.587 176.409 198.354 176.413 274.427 176.479C282.44 176.486 288.564 176.033 292.797 175.119C348.397 163.179 365.557 92.9793 320.527 57.5193C298.567 40.2193 267.127 38.8293 243.737 54.2093C243.68 54.2469 243.614 54.2715 243.546 54.2812C243.478 54.2909 243.409 54.2856 243.343 54.2656C243.277 54.2455 243.217 54.2113 243.165 54.1653C243.114 54.1193 243.074 54.0626 243.047 53.9993C224.997 11.6693 177.067 -9.84072 133.647 6.77928C102.697 18.6293 81.7771 46.3093 78.5871 79.3793Z" stroke="#688396" stroke-width="2"/>
<path d="M85.2573 198.11C85.2489 197.311 85.0831 196.52 84.7693 195.785C84.4556 195.049 84 194.383 83.4286 193.823C82.8572 193.263 82.1811 192.822 81.4391 192.524C80.6971 192.225 79.9035 192.076 79.1038 192.084L78.0839 192.095C76.4688 192.112 74.9266 192.77 73.7966 193.924C72.6665 195.078 72.0411 196.633 72.058 198.249L72.0969 201.968C72.1053 202.768 72.2711 203.558 72.5849 204.294C72.8986 205.03 73.3542 205.696 73.9256 206.256C74.497 206.815 75.1731 207.257 75.9151 207.555C76.6572 207.853 77.4507 208.003 78.2504 207.994L79.2703 207.984C80.8854 207.967 82.4276 207.309 83.5577 206.155C84.6877 205.001 85.3131 203.445 85.2962 201.83L85.2573 198.11Z" stroke="#106993" stroke-width="2"/>
<path d="M145.214 198.119C145.204 197.316 145.037 196.524 144.72 195.786C144.404 195.049 143.946 194.381 143.372 193.82C142.798 193.26 142.119 192.818 141.374 192.52C140.629 192.222 139.832 192.074 139.03 192.084L138.01 192.096C137.208 192.106 136.415 192.274 135.678 192.59C134.94 192.906 134.272 193.364 133.712 193.938C133.151 194.513 132.71 195.192 132.412 195.937C132.114 196.682 131.965 197.478 131.975 198.28L132.02 201.96C132.03 202.762 132.198 203.555 132.514 204.292C132.83 205.03 133.288 205.698 133.862 206.258C134.437 206.819 135.116 207.26 135.861 207.558C136.606 207.856 137.402 208.005 138.204 207.995L139.224 207.983C140.027 207.973 140.819 207.805 141.557 207.489C142.294 207.173 142.962 206.715 143.522 206.14C144.083 205.566 144.525 204.887 144.823 204.142C145.121 203.397 145.269 202.601 145.259 201.798L145.214 198.119Z" stroke="#106993" stroke-width="2"/>
<path d="M205.164 198.114C205.15 197.31 204.978 196.517 204.658 195.78C204.337 195.043 203.875 194.376 203.297 193.818C202.718 193.26 202.036 192.821 201.288 192.526C200.54 192.232 199.742 192.087 198.938 192.101L197.899 192.12C197.095 192.134 196.302 192.306 195.565 192.626C194.828 192.947 194.161 193.409 193.603 193.987C193.045 194.565 192.606 195.248 192.311 195.996C192.017 196.743 191.872 197.542 191.886 198.345L191.95 201.985C191.964 202.788 192.136 203.581 192.457 204.318C192.777 205.055 193.24 205.722 193.818 206.28C194.396 206.839 195.078 207.278 195.826 207.572C196.574 207.867 197.372 208.011 198.176 207.997L199.216 207.979C200.019 207.965 200.812 207.793 201.549 207.472C202.286 207.152 202.953 206.689 203.511 206.111C204.069 205.533 204.508 204.851 204.803 204.103C205.098 203.355 205.242 202.557 205.228 201.753L205.164 198.114Z" stroke="#106993" stroke-width="2"/>
<path d="M265.127 198.16C265.119 197.356 264.952 196.562 264.637 195.823C264.322 195.084 263.864 194.414 263.289 193.851C262.715 193.289 262.036 192.845 261.29 192.546C260.545 192.246 259.747 192.096 258.943 192.104L257.924 192.115C256.3 192.132 254.751 192.793 253.615 193.953C252.479 195.112 251.851 196.676 251.868 198.299L251.907 202.039C251.915 202.842 252.082 203.636 252.397 204.376C252.713 205.115 253.171 205.785 253.745 206.347C254.319 206.909 254.998 207.353 255.744 207.653C256.49 207.953 257.287 208.103 258.091 208.094L259.111 208.083C260.734 208.066 262.284 207.405 263.419 206.246C264.555 205.086 265.183 203.523 265.166 201.9L265.127 198.16Z" stroke="#106993" stroke-width="2"/>
<path d="M265.861 224.419C265.909 222.78 265.305 221.19 264.181 219.997C263.057 218.804 261.505 218.107 259.867 218.058L258.847 218.028C258.036 218.004 257.228 218.14 256.469 218.428C255.711 218.716 255.016 219.151 254.426 219.707C253.835 220.264 253.36 220.931 253.027 221.672C252.694 222.412 252.511 223.21 252.487 224.022L252.373 227.84C252.325 229.478 252.929 231.069 254.053 232.262C255.177 233.454 256.729 234.152 258.367 234.201L259.387 234.231C260.198 234.255 261.006 234.119 261.765 233.831C262.523 233.543 263.218 233.108 263.809 232.551C264.399 231.995 264.874 231.327 265.207 230.587C265.54 229.847 265.723 229.048 265.747 228.237L265.861 224.419Z" stroke="#106993" stroke-width="2"/>
<path d="M85.9338 224.258C85.931 222.637 85.2845 221.084 84.1367 219.94C82.9889 218.797 81.4337 218.156 79.8132 218.158L78.7932 218.16C77.9908 218.162 77.1966 218.321 76.4558 218.629C75.7151 218.938 75.0423 219.389 74.4759 219.957C73.9096 220.526 73.4607 221.2 73.1549 221.942C72.8492 222.684 72.6925 223.479 72.6939 224.281L72.7004 228.001C72.7033 229.621 73.3497 231.174 74.4975 232.318C75.6454 233.462 77.2006 234.103 78.821 234.1L79.841 234.098C80.6434 234.097 81.4376 233.938 82.1784 233.629C82.9192 233.321 83.5919 232.87 84.1583 232.301C84.7247 231.733 85.1736 231.059 85.4793 230.317C85.7851 229.575 85.9417 228.78 85.9403 227.978L85.9338 224.258Z" stroke="#106993" stroke-width="2"/>
<path d="M145.837 224.18C145.829 223.379 145.663 222.588 145.348 221.851C145.034 221.114 144.578 220.446 144.005 219.886C143.433 219.325 142.756 218.883 142.013 218.584C141.269 218.285 140.475 218.136 139.674 218.144L138.634 218.155C137.016 218.172 135.471 218.831 134.339 219.987C133.207 221.143 132.581 222.701 132.598 224.319L132.637 228.079C132.645 228.88 132.812 229.671 133.126 230.408C133.44 231.145 133.896 231.813 134.469 232.373C135.041 232.933 135.718 233.376 136.462 233.675C137.205 233.973 138 234.123 138.801 234.114L139.841 234.103C141.458 234.087 143.003 233.428 144.135 232.272C145.267 231.116 145.893 229.558 145.876 227.94L145.837 224.18Z" stroke="#106993" stroke-width="2"/>
<path d="M205.787 224.289C205.787 222.666 205.142 221.11 203.995 219.962C202.847 218.814 201.29 218.169 199.667 218.169H198.647C197.024 218.169 195.467 218.814 194.32 219.962C193.172 221.11 192.527 222.666 192.527 224.289V228.009C192.527 229.632 193.172 231.189 194.32 232.337C195.467 233.485 197.024 234.129 198.647 234.129H199.667C201.29 234.129 202.847 233.485 203.995 232.337C205.142 231.189 205.787 229.632 205.787 228.009V224.289Z" stroke="#106993" stroke-width="2"/>
<path d="M145.867 247.864C145.875 246.246 145.241 244.691 144.103 243.541C142.965 242.391 141.417 241.741 139.799 241.732L138.779 241.727C137.161 241.718 135.606 242.353 134.456 243.491C133.306 244.629 132.655 246.177 132.647 247.795L132.627 251.535C132.619 253.153 133.254 254.707 134.391 255.857C135.529 257.007 137.078 257.658 138.695 257.667L139.715 257.672C141.333 257.68 142.888 257.046 144.038 255.908C145.188 254.77 145.839 253.222 145.847 251.604L145.867 247.864Z" stroke="#106993" stroke-width="2"/>
<path d="M205.777 247.815C205.773 247.011 205.611 246.216 205.299 245.475C204.988 244.734 204.533 244.062 203.962 243.497C203.391 242.931 202.714 242.484 201.97 242.18C201.226 241.877 200.429 241.723 199.625 241.727L198.625 241.732C197.821 241.736 197.027 241.899 196.286 242.21C195.545 242.522 194.872 242.976 194.307 243.547C193.742 244.118 193.295 244.796 192.991 245.54C192.687 246.284 192.533 247.08 192.537 247.884L192.557 251.644C192.561 252.448 192.724 253.243 193.035 253.984C193.347 254.724 193.801 255.397 194.372 255.962C194.943 256.527 195.62 256.975 196.365 257.278C197.109 257.582 197.905 257.736 198.709 257.732L199.709 257.727C200.513 257.722 201.308 257.56 202.049 257.249C202.789 256.937 203.462 256.483 204.027 255.912C204.592 255.34 205.04 254.663 205.343 253.919C205.647 253.175 205.801 252.378 205.797 251.575L205.777 247.815Z" stroke="#106993" stroke-width="2"/>
<path d="M258.976 257.939C259.893 257.95 260.803 257.748 261.655 257.344C262.507 256.94 263.284 256.343 263.941 255.586C264.599 254.829 265.124 253.927 265.487 252.931C265.85 251.936 266.043 250.867 266.057 249.785C266.07 248.703 265.902 247.629 265.564 246.625C265.225 245.621 264.722 244.707 264.084 243.933C263.445 243.16 262.683 242.544 261.841 242.12C260.999 241.695 260.094 241.471 259.178 241.46C258.261 241.449 257.351 241.651 256.499 242.054C255.647 242.458 254.87 243.056 254.213 243.813C253.556 244.57 253.03 245.472 252.667 246.467C252.304 247.463 252.111 248.532 252.098 249.614C252.084 250.696 252.252 251.77 252.59 252.774C252.929 253.778 253.432 254.692 254.071 255.465C254.709 256.238 255.471 256.854 256.313 257.279C257.155 257.703 258.06 257.927 258.976 257.939Z" stroke="#106993" stroke-width="2"/>
<path d="M85.9375 247.875C85.929 246.254 85.2771 244.703 84.1253 243.564C82.9735 242.424 81.416 241.788 79.7956 241.797L78.7556 241.802C77.1351 241.811 75.5844 242.462 74.4446 243.614C73.3048 244.766 72.6692 246.324 72.6777 247.944L72.6967 251.584C72.7052 253.204 73.357 254.755 74.5089 255.895C75.6607 257.035 77.2182 257.67 78.8386 257.662L79.8786 257.657C81.499 257.648 83.0497 256.996 84.1896 255.844C85.3294 254.692 85.965 253.135 85.9565 251.515L85.9375 247.875Z" stroke="#106993" stroke-width="2"/>
<path d="M78.5871 79.3793C81.7771 46.3093 102.697 18.6293 133.647 6.77928C177.067 -9.84072 224.997 11.6693 243.047 53.9993C243.074 54.0626 243.114 54.1193 243.165 54.1653C243.217 54.2113 243.277 54.2455 243.343 54.2656C243.409 54.2856 243.478 54.2909 243.546 54.2812C243.614 54.2715 243.68 54.2469 243.737 54.2093C267.127 38.8293 298.567 40.2193 320.527 57.5193C365.557 92.9793 348.397 163.179 292.797 175.119C288.564 176.033 282.44 176.486 274.427 176.479C198.354 176.413 122.587 176.409 47.1271 176.469C44.7471 176.469 42.3271 176.249 40.1171 175.239C37.0571 173.829 33.8771 172.909 30.8871 171.449C18.6738 165.483 10.0505 156.373 5.01712 144.119C-7.63288 113.349 12.3871 78.1092 45.4671 73.6092C57.0405 72.0292 67.9405 74.026 78.1671 79.5993C78.2081 79.6231 78.2544 79.6361 78.3017 79.6372C78.3491 79.6383 78.396 79.6273 78.4379 79.6053C78.4799 79.5834 78.5156 79.5511 78.5417 79.5115C78.5678 79.472 78.5834 79.4265 78.5871 79.3793Z" fill="#CDCDCF"/>
<path d="M79.1038 192.084L78.0839 192.095C74.7206 192.13 72.0228 194.885 72.058 198.248L72.0969 201.968C72.1322 205.332 74.8871 208.029 78.2504 207.994L79.2703 207.983C82.6335 207.948 85.3314 205.193 85.2962 201.83L85.2573 198.11C85.222 194.747 82.467 192.049 79.1038 192.084Z" fill="#1E99CA"/>
<path d="M139.03 192.084L138.01 192.096C134.636 192.137 131.934 194.906 131.975 198.28L132.02 201.96C132.061 205.334 134.83 208.036 138.204 207.995L139.224 207.982C142.598 207.941 145.3 205.173 145.259 201.798L145.214 198.119C145.173 194.744 142.404 192.042 139.03 192.084Z" fill="#1E99CA"/>
<path d="M198.938 192.101L197.899 192.12C194.519 192.178 191.827 194.966 191.886 198.345L191.95 201.985C192.009 205.364 194.796 208.056 198.176 207.997L199.216 207.979C202.595 207.92 205.287 205.133 205.228 201.753L205.164 198.114C205.105 194.734 202.318 192.042 198.938 192.101Z" fill="#1E99CA"/>
<path d="M258.943 192.104L257.923 192.115C254.544 192.151 251.832 194.919 251.868 198.299L251.907 202.039C251.942 205.418 254.711 208.13 258.091 208.094L259.111 208.084C262.491 208.048 265.202 205.28 265.166 201.9L265.127 198.16C265.092 194.78 262.323 192.069 258.943 192.104Z" fill="#1E99CA"/>
<path d="M259.867 218.058L258.847 218.028C255.436 217.926 252.588 220.61 252.487 224.022L252.373 227.84C252.272 231.252 254.956 234.099 258.367 234.201L259.387 234.231C262.798 234.332 265.646 231.649 265.747 228.237L265.861 224.419C265.962 221.007 263.278 218.159 259.867 218.058Z" fill="#1E99CA"/>
<path d="M79.8132 218.158L78.7932 218.16C75.4188 218.166 72.688 220.906 72.6939 224.281L72.7004 228.001C72.7063 231.375 75.4466 234.106 78.821 234.1L79.841 234.098C83.2155 234.093 85.9463 231.352 85.9404 227.978L85.9339 224.258C85.928 220.883 83.1877 218.153 79.8132 218.158Z" fill="#1E99CA"/>
<path d="M139.673 218.144L138.634 218.155C135.265 218.19 132.562 220.95 132.598 224.319L132.637 228.078C132.672 231.447 135.432 234.15 138.801 234.114L139.841 234.103C143.209 234.068 145.912 231.309 145.876 227.94L145.837 224.18C145.802 220.811 143.042 218.109 139.673 218.144Z" fill="#1E99CA"/>
<path d="M199.667 218.169H198.647C195.267 218.169 192.527 220.909 192.527 224.289V228.009C192.527 231.389 195.267 234.129 198.647 234.129H199.667C203.047 234.129 205.787 231.389 205.787 228.009V224.289C205.787 220.909 203.047 218.169 199.667 218.169Z" fill="#1E99CA"/>
<path d="M139.799 241.732L138.779 241.727C135.41 241.709 132.665 244.426 132.647 247.795L132.627 251.535C132.61 254.904 135.326 257.649 138.695 257.667L139.715 257.672C143.084 257.69 145.83 254.973 145.847 251.604L145.867 247.864C145.884 244.495 143.168 241.75 139.799 241.732Z" fill="#1E99CA"/>
<path d="M199.625 241.727L198.625 241.732C195.245 241.75 192.52 244.504 192.537 247.884L192.557 251.644C192.575 255.024 195.329 257.749 198.709 257.732L199.709 257.727C203.089 257.709 205.815 254.955 205.797 251.575L205.777 247.815C205.759 244.435 203.005 241.709 199.625 241.727Z" fill="#1E99CA"/>
<path d="M252.098 249.614C252.042 254.164 255.122 257.892 258.976 257.939C262.831 257.986 266.001 254.335 266.057 249.785C266.112 245.234 263.032 241.507 259.178 241.46C255.323 241.413 252.153 245.064 252.098 249.614Z" fill="#1E99CA"/>
<path d="M79.7956 241.797L78.7556 241.802C75.3812 241.82 72.66 244.57 72.6777 247.944L72.6967 251.584C72.7144 254.958 75.4642 257.68 78.8386 257.662L79.8786 257.656C83.253 257.639 85.9742 254.889 85.9566 251.515L85.9375 247.875C85.9198 244.5 83.17 241.779 79.7956 241.797Z" fill="#1E99CA"/>
</svg>
