<svg width="228" height="229" viewBox="0 0 228 229" fill="none" xmlns="http://www.w3.org/2000/svg">
<path d="M18.5396 110.885L4.09965 110.805C2.57965 110.798 1.66299 111.538 1.34965 113.025C1.29632 113.265 1.29966 113.505 1.35966 113.745C1.673 115.025 2.49296 115.665 3.81963 115.665L18.6197 115.645C19.1863 115.645 19.2697 115.845 18.8697 116.245L5.37968 129.715C5.16938 129.925 5.0069 130.179 4.90337 130.459C4.79983 130.738 4.75757 131.037 4.77959 131.335C4.89292 132.868 5.76959 133.668 7.40959 133.735C7.6867 133.747 7.96324 133.702 8.22148 133.602C8.47972 133.502 8.71402 133.35 8.90959 133.155L25.7696 116.235C26.1496 115.848 26.6129 115.655 27.1596 115.655H53.8697C54.4363 115.655 54.5197 115.855 54.1197 116.255L45.9096 124.445C45.6604 124.687 45.478 124.99 45.3797 125.325C44.933 126.792 45.053 127.748 45.7397 128.195C47.113 129.088 48.3796 128.955 49.5396 127.795L61.0596 116.175C61.3928 115.842 61.8424 115.655 62.3096 115.655H106.81C107.523 115.655 107.626 115.908 107.12 116.415L75.7896 147.745C75.3861 148.142 74.8438 148.364 74.2796 148.365L58.5196 148.285C56.8862 148.278 56.0229 149.091 55.9296 150.725C55.9163 150.885 55.9297 151.042 55.9697 151.195C56.2897 152.515 57.1297 153.175 58.4897 153.175L69.0896 153.145C69.963 153.138 70.093 153.445 69.4797 154.065L51.1197 172.445C50.9201 172.647 50.6812 172.808 50.4168 172.918C50.1524 173.028 49.8678 173.085 49.5796 173.085H27.2397C25.7463 173.085 24.8829 173.822 24.6496 175.295C24.6162 175.528 24.633 175.758 24.6996 175.985C25.0463 177.218 25.8597 177.838 27.1397 177.845L44.2597 177.895C45.1664 177.901 45.2996 178.228 44.6596 178.875L34.5997 188.985C33.6797 189.911 33.5496 190.938 34.2096 192.065C34.3163 192.245 34.453 192.395 34.6197 192.515C35.8397 193.421 36.9863 193.338 38.0596 192.265L48.4997 181.875C48.5472 181.827 48.6077 181.795 48.6735 181.782C48.7394 181.769 48.8077 181.776 48.8697 181.801C48.9317 181.827 48.9846 181.871 49.022 181.926C49.0594 181.982 49.0795 182.048 49.0796 182.115L49.0896 201.205C49.0893 201.511 49.1574 201.812 49.289 202.087C49.4205 202.362 49.6122 202.604 49.8497 202.795C50.4563 203.282 51.0629 203.485 51.6696 203.405C53.1163 203.211 53.8396 202.388 53.8396 200.935L53.8597 177.175C53.8602 176.72 54.0399 176.285 54.3597 175.965L73.1896 157.165C73.7163 156.638 73.9763 156.745 73.9697 157.485L73.8797 168.865C73.8796 169.386 74.0365 169.891 74.3296 170.315C74.983 171.268 75.6896 171.692 76.4496 171.585C78.0296 171.365 78.8196 170.458 78.8196 168.865L78.7896 152.415C78.7829 151.855 78.9797 151.375 79.3797 150.975L111.12 119.235C111.546 118.808 111.76 118.898 111.76 119.505L111.77 166.385C111.77 166.845 111.606 167.242 111.28 167.575L100.01 178.835C98.8764 179.968 98.793 181.175 99.7597 182.455C99.873 182.608 100.033 182.735 100.24 182.835C101.44 183.435 102.513 183.258 103.46 182.305L111.07 174.635C111.53 174.168 111.76 174.265 111.76 174.925L111.77 201.375C111.77 201.594 111.727 201.81 111.643 202.013C111.559 202.215 111.435 202.4 111.28 202.555L95.2497 218.555C94.123 219.682 94.073 220.852 95.0997 222.065C95.253 222.252 95.4463 222.395 95.6796 222.495C96.8463 222.988 97.8762 222.788 98.7696 221.895L111.04 209.605C111.526 209.118 111.77 209.218 111.77 209.905L111.75 225.135C111.75 225.435 111.826 225.73 111.971 225.992C112.116 226.254 112.326 226.476 112.58 226.635C113.106 226.961 113.613 227.112 114.1 227.085C115.753 226.992 116.58 226.115 116.58 224.455L116.57 209.645C116.568 209.586 116.583 209.528 116.615 209.478C116.647 209.429 116.693 209.39 116.747 209.367C116.801 209.344 116.861 209.339 116.919 209.351C116.976 209.363 117.029 209.392 117.07 209.435L130.37 222.785C131.323 223.745 132.386 223.888 133.56 223.215C134.393 222.735 134.67 221.781 134.39 220.355C134.311 219.983 134.127 219.639 133.86 219.365L117.01 202.535C116.728 202.253 116.57 201.875 116.57 201.485V174.615C116.576 174.048 116.776 173.965 117.17 174.365L125.65 182.855C125.848 183.054 126.086 183.211 126.347 183.316C126.608 183.421 126.888 183.471 127.17 183.465C128.063 183.452 128.72 183.161 129.14 182.595C130.053 181.361 129.966 180.201 128.88 179.115L117.24 167.515C116.817 167.091 116.579 166.52 116.58 165.925V119.365C116.58 118.798 116.78 118.715 117.18 119.115L148.91 150.865C149.116 151.071 149.279 151.315 149.391 151.582C149.502 151.85 149.56 152.136 149.56 152.425L149.54 169.645C149.54 170.991 150.213 171.615 151.56 171.515L152.14 171.475C153.613 171.361 154.35 170.568 154.35 169.095L154.33 157.415C154.33 156.648 154.6 156.535 155.14 157.075L173.9 175.855C174.099 176.051 174.257 176.286 174.366 176.545C174.474 176.804 174.529 177.083 174.53 177.365L174.57 200.965C174.57 202.478 175.326 203.285 176.84 203.385C177.526 203.431 178.183 203.112 178.81 202.425C179.132 202.065 179.31 201.602 179.31 201.125L179.3 182.165C179.299 182.073 179.327 181.984 179.378 181.907C179.43 181.83 179.503 181.77 179.59 181.735C179.736 181.675 179.863 181.698 179.97 181.805C183.256 185.212 186.72 188.691 190.36 192.245C191.466 193.325 192.603 193.361 193.77 192.355C193.956 192.201 194.1 192.015 194.2 191.795C194.733 190.682 194.563 189.688 193.69 188.815L183.66 178.795C182.966 178.102 183.113 177.755 184.1 177.755L201.3 177.815C201.677 177.815 202.047 177.7 202.36 177.485C203.3 176.845 203.75 176.165 203.71 175.445C203.61 173.805 202.74 172.985 201.1 172.985L178.62 172.995C178.152 172.995 177.703 172.808 177.37 172.475L158.71 153.845C158.196 153.331 158.303 153.075 159.03 153.075L170.29 153.115C170.536 153.115 170.781 153.065 171.007 152.969C171.234 152.873 171.439 152.732 171.61 152.555C172.216 151.928 172.46 151.228 172.34 150.455C172.12 148.962 171.253 148.215 169.74 148.215L153.8 148.235C153.36 148.235 152.986 148.078 152.68 147.765L121.13 116.255C120.71 115.828 120.8 115.615 121.4 115.615L166.02 115.635C166.532 115.635 167.021 115.837 167.38 116.195L179.03 127.905C179.963 128.845 181.013 129.005 182.18 128.385C182.42 128.258 182.61 128.072 182.75 127.825C183.51 126.532 183.36 125.352 182.3 124.285L174.34 116.315C173.866 115.842 173.966 115.605 174.64 115.605L201.14 115.625C201.406 115.625 201.67 115.678 201.917 115.781C202.164 115.884 202.389 116.034 202.58 116.225L219.07 132.755C220.183 133.875 221.38 133.972 222.66 133.045C223.18 132.665 223.416 131.998 223.37 131.045C223.344 130.408 223.079 129.804 222.63 129.355L209.67 116.415C209.103 115.855 209.216 115.575 210.01 115.575L224.13 115.655C225.43 115.661 226.346 115.068 226.88 113.875C226.993 113.608 227.026 113.325 226.98 113.025C226.713 111.438 225.776 110.652 224.17 110.665L209.6 110.785C209.02 110.792 208.936 110.592 209.35 110.185L221.85 97.7149C222.75 96.8149 222.916 95.7948 222.35 94.6548C222.056 94.0682 221.516 93.6682 220.73 93.4549C220.374 93.3577 219.998 93.3564 219.642 93.4512C219.285 93.5461 218.96 93.7336 218.7 93.9948L202.39 110.325C202.143 110.572 201.846 110.695 201.5 110.695L174.82 110.765C174.18 110.771 174.086 110.548 174.54 110.095L182.26 102.355C183.193 101.421 183.323 100.388 182.65 99.2548C182.323 98.6948 181.773 98.3148 181 98.1148C180.65 98.0236 180.284 98.0255 179.936 98.1203C179.589 98.2151 179.272 98.3994 179.02 98.6548L167.36 110.345C167.113 110.591 166.816 110.715 166.47 110.715L120.26 110.765C120.193 110.763 120.127 110.743 120.072 110.705C120.016 110.668 119.973 110.615 119.947 110.554C119.921 110.493 119.915 110.427 119.928 110.363C119.94 110.299 119.972 110.24 120.02 110.195L152.47 77.7748C152.682 77.5622 152.935 77.3937 153.213 77.2787C153.491 77.1638 153.789 77.1046 154.09 77.1048L170.53 77.1248C172.123 77.1248 172.99 76.3315 173.13 74.7448C173.176 74.1781 173.03 73.6215 172.69 73.0749C172.536 72.827 172.324 72.6224 172.072 72.4806C171.82 72.3389 171.537 72.2646 171.25 72.2648L158.92 72.2348C158.32 72.2348 158.23 72.0214 158.65 71.5948L177.34 52.8848C177.82 52.4048 178.4 52.1648 179.08 52.1648H202.45C203.943 52.1648 204.8 51.4282 205.02 49.9549C205.126 49.2482 204.896 48.5849 204.33 47.9649C204.166 47.7854 203.968 47.642 203.747 47.5439C203.527 47.4457 203.289 47.395 203.05 47.3948L183.93 47.3848C183.183 47.3848 183.076 47.1182 183.61 46.5849L194.08 36.1548C194.301 35.9331 194.469 35.6639 194.571 35.3677C194.674 35.0715 194.707 34.756 194.67 34.4449C194.55 33.4382 194.193 32.7814 193.6 32.4748C192.42 31.8614 191.36 32.0249 190.42 32.9649L180.3 43.0649C179.72 43.6449 179.43 43.5249 179.43 42.7049L179.47 25.2149C179.476 23.8216 178.783 23.0615 177.39 22.9349L176.67 22.8648C175.283 22.7381 174.59 23.3715 174.59 24.7648V48.1749C174.59 48.3714 174.552 48.5654 174.478 48.7455C174.404 48.9257 174.296 49.0885 174.16 49.2248L155.47 67.8948C154.983 68.3815 154.743 68.2782 154.75 67.5849L154.78 56.8748C154.786 55.5481 154.153 54.6949 152.88 54.3149C152.66 54.2482 152.44 54.2281 152.22 54.2548C150.66 54.4415 149.88 55.3215 149.88 56.8948L149.9 72.8448C149.9 73.2648 149.75 73.6249 149.45 73.9249L117.18 106.215C116.74 106.648 116.52 106.555 116.52 105.935L116.53 62.5549C116.529 62.2541 116.589 61.9561 116.704 61.6782C116.818 61.4002 116.987 61.1477 117.2 60.9349L128.74 49.4148C129.84 48.3215 129.94 47.1448 129.04 45.8848C128.906 45.6915 128.733 45.5449 128.52 45.4449C127.326 44.8782 126.266 45.0615 125.34 45.9948L117.3 54.0448C116.76 54.5848 116.49 54.4749 116.49 53.7149L116.53 27.1048C116.53 26.87 116.576 26.6379 116.665 26.4217C116.754 26.2055 116.885 26.0094 117.05 25.8448L133.72 9.18486C134.846 8.0582 134.9 6.8815 133.88 5.65483C133.766 5.5215 133.63 5.41154 133.47 5.32488C132.31 4.66488 131.256 4.81149 130.31 5.76482L117.17 18.9549C116.723 19.4015 116.5 19.3115 116.5 18.6849L116.52 3.84478C116.52 3.5314 116.452 3.22233 116.32 2.93901C116.189 2.6557 115.998 2.40513 115.76 2.20488C114.96 1.51822 114.226 1.27812 113.56 1.48479C112.273 1.88479 111.63 2.75812 111.63 4.10478L111.69 18.5849C111.696 19.3182 111.44 19.4248 110.92 18.9048L98.5696 6.51482C97.6696 5.60815 96.6596 5.4582 95.5396 6.06487C95.2796 6.20487 95.0696 6.39481 94.9096 6.63481C94.0696 7.90815 94.1896 9.0815 95.2696 10.1548L111.11 25.9048C111.443 26.238 111.63 26.6876 111.63 27.1548L111.71 53.4549C111.716 54.2682 111.43 54.3882 110.85 53.8149L103.02 45.9449C102.824 45.7493 102.59 45.5959 102.332 45.4944C102.074 45.3929 101.797 45.3454 101.52 45.3548C100.693 45.3881 100.086 45.6381 99.6996 46.1048C98.6863 47.3181 98.7397 48.4848 99.8597 49.6048L110.97 60.6849C111.182 60.8977 111.351 61.1502 111.466 61.4282C111.581 61.7061 111.64 62.0041 111.64 62.3049L111.66 106.145C111.66 106.631 111.486 106.705 111.14 106.365L78.7497 73.9649C78.4563 73.6716 78.3096 73.3148 78.3096 72.8948L78.3396 56.2548C78.3396 54.8481 77.6363 54.1948 76.2297 54.2948L75.5696 54.3349C74.1296 54.4349 73.4163 55.2082 73.4296 56.6548L73.5196 67.6548C73.5262 68.3682 73.2762 68.4748 72.7696 67.9748L54.1596 49.3848C53.7884 49.0129 53.5799 48.5058 53.5796 47.9748L53.6996 25.6548C53.7063 24.0748 52.9297 23.1582 51.3697 22.9048C50.683 22.7915 49.9963 23.0949 49.3096 23.8149C48.9686 24.1809 48.7792 24.6598 48.7796 25.1548L48.8096 43.1148C48.8163 43.7348 48.5996 43.8248 48.1596 43.3848L37.8597 33.0649C36.953 32.1582 35.913 31.9549 34.7397 32.4549C34.4997 32.5615 34.3029 32.7182 34.1496 32.9249C33.2229 34.2249 33.3263 35.4382 34.4596 36.5649L44.6097 46.6648C45.123 47.1782 45.0196 47.4349 44.2996 47.4349L25.2397 47.4449C24.906 47.4448 24.5784 47.5325 24.2903 47.6994C24.0023 47.8663 23.764 48.1062 23.5997 48.3948C23.333 48.8748 23.2097 49.3515 23.2297 49.8249C23.2963 51.4182 24.1263 52.2149 25.7197 52.2149L49.2896 52.2348C49.8529 52.2352 50.3923 52.4582 50.7896 52.8548L69.5896 71.6749C70.043 72.1349 69.9463 72.3648 69.2996 72.3648L57.6596 72.3548C56.3729 72.3548 55.5297 72.9715 55.1297 74.2049C55.0364 74.4915 55.023 74.7815 55.0896 75.0749C55.3963 76.4615 56.2596 77.1548 57.6796 77.1548H74.5696C74.7312 77.1548 74.8912 77.1866 75.0405 77.2483C75.1897 77.3101 75.3254 77.4006 75.4396 77.5148L108.16 110.225C108.593 110.651 108.506 110.865 107.9 110.865L62.0796 110.855C61.5674 110.855 61.0746 110.65 60.7096 110.285L49.6397 99.1548C48.5397 98.0548 47.3496 97.9449 46.0696 98.8249C45.8963 98.9382 45.7596 99.0815 45.6596 99.2548C44.9729 100.455 45.1163 101.541 46.0896 102.515L53.8697 110.295C54.2563 110.682 54.1764 110.875 53.6297 110.875L27.1496 110.865C26.9023 110.865 26.6574 110.815 26.429 110.719C26.2006 110.623 25.9935 110.482 25.8196 110.305L9.93962 94.3848C8.77295 93.2115 7.55626 93.1549 6.2896 94.2149C6.14293 94.3416 6.02294 94.4915 5.92961 94.6648C5.32961 95.8648 5.50296 96.9381 6.44963 97.8848L18.8096 110.225C19.2563 110.671 19.1663 110.891 18.5396 110.885Z" stroke="#7994A8" stroke-width="2"/>
<path d="M18.5396 110.885C19.1663 110.891 19.2563 110.671 18.8096 110.225L6.44963 97.8847C5.50296 96.938 5.32961 95.8647 5.92961 94.6647C6.02294 94.4914 6.14293 94.3414 6.2896 94.2148C7.55626 93.1548 8.77295 93.2114 9.93962 94.3847L25.8196 110.305C25.9935 110.482 26.2006 110.623 26.429 110.719C26.6574 110.815 26.9023 110.865 27.1496 110.865L53.6297 110.875C54.1763 110.875 54.2563 110.681 53.8697 110.295L46.0896 102.515C45.1163 101.541 44.9729 100.455 45.6596 99.2547C45.7596 99.0814 45.8963 98.9381 46.0696 98.8248C47.3496 97.9448 48.5397 98.0547 49.6397 99.1547L60.7096 110.285C61.0746 110.65 61.5674 110.854 62.0796 110.855L107.9 110.865C108.506 110.865 108.593 110.651 108.16 110.225L75.4396 77.5147C75.3254 77.4005 75.1897 77.31 75.0405 77.2482C74.8912 77.1864 74.7312 77.1546 74.5696 77.1547H57.6796C56.2596 77.1547 55.3963 76.4614 55.0896 75.0748C55.023 74.7814 55.0364 74.4914 55.1297 74.2048C55.5297 72.9714 56.3729 72.3547 57.6596 72.3547L69.2996 72.3647C69.9463 72.3647 70.043 72.1347 69.5896 71.6747L50.7896 52.8547C50.3923 52.4581 49.8529 52.2351 49.2896 52.2347L25.7197 52.2148C24.1263 52.2148 23.2963 51.4181 23.2297 49.8248C23.2097 49.3514 23.333 48.8747 23.5997 48.3947C23.764 48.1061 24.0023 47.8661 24.2903 47.6993C24.5784 47.5324 24.906 47.4446 25.2397 47.4448L44.2996 47.4347C45.0196 47.4347 45.123 47.1781 44.6097 46.6647L34.4596 36.5647C33.3263 35.4381 33.2229 34.2247 34.1496 32.9247C34.3029 32.7181 34.4997 32.5614 34.7397 32.4548C35.913 31.9548 36.953 32.1581 37.8597 33.0647L48.1596 43.3847C48.5996 43.8247 48.8163 43.7347 48.8096 43.1147L48.7796 25.1547C48.7792 24.6596 48.9686 24.1808 49.3096 23.8147C49.9963 23.0947 50.683 22.7914 51.3697 22.9047C52.9297 23.158 53.7063 24.0747 53.6996 25.6547L53.5796 47.9747C53.5799 48.5057 53.7884 49.0128 54.1596 49.3847L72.7696 67.9747C73.2762 68.4747 73.5262 68.368 73.5196 67.6547L73.4296 56.6547C73.4163 55.208 74.1296 54.4348 75.5696 54.3348L76.2297 54.2947C77.6363 54.1947 78.3396 54.848 78.3396 56.2547L78.3096 72.8947C78.3096 73.3147 78.4563 73.6714 78.7497 73.9648L111.14 106.365C111.486 106.705 111.66 106.631 111.66 106.145L111.64 62.3047C111.64 62.0039 111.581 61.706 111.466 61.428C111.351 61.1501 111.182 60.8975 110.97 60.6847L99.8597 49.6047C98.7397 48.4847 98.6863 47.318 99.6996 46.1047C100.086 45.638 100.693 45.388 101.52 45.3547C101.797 45.3453 102.074 45.3928 102.332 45.4943C102.59 45.5958 102.824 45.7492 103.02 45.9448L110.85 53.8147C111.43 54.3881 111.716 54.2681 111.71 53.4548L111.63 27.1547C111.63 26.6875 111.443 26.2379 111.11 25.9047L95.2696 10.1547C94.1896 9.08138 94.0696 7.90803 94.9096 6.63469C95.0696 6.39469 95.2796 6.20475 95.5396 6.06475C96.6596 5.45808 97.6696 5.60803 98.5696 6.5147L110.92 18.9047C111.44 19.4247 111.696 19.3181 111.69 18.5848L111.63 4.10466C111.63 2.758 112.273 1.88467 113.56 1.48467C114.226 1.278 114.96 1.51809 115.76 2.20476C115.998 2.405 116.189 2.65558 116.32 2.93889C116.452 3.2222 116.52 3.53128 116.52 3.84465L116.5 18.6847C116.5 19.3114 116.723 19.4014 117.17 18.9548L130.31 5.7647C131.256 4.81136 132.31 4.66476 133.47 5.32476C133.63 5.41142 133.766 5.52138 133.88 5.65471C134.9 6.88138 134.846 8.05807 133.72 9.18474L117.05 25.8447C116.885 26.0093 116.754 26.2054 116.665 26.4216C116.576 26.6378 116.53 26.8698 116.53 27.1047L116.49 53.7148C116.49 54.4748 116.76 54.5847 117.3 54.0447L125.34 45.9947C126.266 45.0613 127.326 44.8781 128.52 45.4448C128.733 45.5448 128.906 45.6914 129.04 45.8847C129.94 47.1447 129.84 48.3214 128.74 49.4147L117.2 60.9347C116.987 61.1475 116.818 61.4001 116.704 61.678C116.589 61.956 116.529 62.2539 116.53 62.5547L116.52 105.935C116.52 106.555 116.74 106.648 117.18 106.215L149.45 73.9247C149.75 73.6247 149.9 73.2646 149.9 72.8447L149.88 56.8947C149.88 55.3214 150.66 54.4414 152.22 54.2547C152.44 54.228 152.66 54.2481 152.88 54.3147C154.153 54.6947 154.786 55.548 154.78 56.8747L154.75 67.5848C154.743 68.2781 154.983 68.3814 155.47 67.8947L174.16 49.2247C174.296 49.0884 174.404 48.9256 174.478 48.7454C174.552 48.5652 174.59 48.3713 174.59 48.1747V24.7647C174.59 23.3714 175.283 22.738 176.67 22.8647L177.39 22.9347C178.783 23.0614 179.476 23.8214 179.47 25.2148L179.43 42.7048C179.43 43.5248 179.72 43.6447 180.3 43.0647L190.42 32.9648C191.36 32.0248 192.42 31.8613 193.6 32.4747C194.193 32.7813 194.55 33.4381 194.67 34.4448C194.707 34.7558 194.674 35.0714 194.571 35.3676C194.469 35.6638 194.301 35.9329 194.08 36.1547L183.61 46.5848C183.076 47.1181 183.183 47.3847 183.93 47.3847L203.05 47.3947C203.289 47.3948 203.527 47.4456 203.747 47.5438C203.968 47.6419 204.166 47.7853 204.33 47.9648C204.896 48.5848 205.126 49.2481 205.02 49.9548C204.8 51.4281 203.943 52.1647 202.45 52.1647H179.08C178.4 52.1647 177.82 52.4047 177.34 52.8847L158.65 71.5947C158.23 72.0213 158.32 72.2347 158.92 72.2347L171.25 72.2647C171.537 72.2645 171.82 72.3387 172.072 72.4805C172.324 72.6223 172.536 72.8269 172.69 73.0748C173.03 73.6214 173.176 74.178 173.13 74.7447C172.99 76.3313 172.123 77.1247 170.53 77.1247L154.09 77.1047C153.789 77.1045 153.491 77.1637 153.213 77.2786C152.935 77.3936 152.682 77.5621 152.47 77.7747L120.02 110.195C119.972 110.24 119.94 110.299 119.928 110.362C119.915 110.426 119.921 110.493 119.947 110.554C119.973 110.615 120.016 110.668 120.072 110.705C120.127 110.743 120.193 110.763 120.26 110.765L166.47 110.715C166.816 110.715 167.113 110.591 167.36 110.345L179.02 98.6547C179.272 98.3993 179.589 98.2149 179.936 98.1202C180.284 98.0254 180.65 98.0235 181 98.1147C181.773 98.3147 182.323 98.6947 182.65 99.2547C183.323 100.388 183.193 101.421 182.26 102.355L174.54 110.095C174.086 110.548 174.18 110.771 174.82 110.765L201.5 110.695C201.846 110.695 202.143 110.571 202.39 110.325L218.7 93.9947C218.96 93.7335 219.285 93.5459 219.642 93.4511C219.998 93.3562 220.374 93.3576 220.73 93.4548C221.516 93.6681 222.056 94.068 222.35 94.6547C222.916 95.7947 222.75 96.8148 221.85 97.7148L209.35 110.185C208.936 110.591 209.02 110.791 209.6 110.785L224.17 110.665C225.776 110.651 226.713 111.438 226.98 113.025C227.026 113.325 226.993 113.608 226.88 113.875C226.346 115.068 225.43 115.661 224.13 115.655L210.01 115.575C209.216 115.575 209.103 115.855 209.67 116.415L222.63 129.355C223.079 129.804 223.344 130.408 223.37 131.045C223.416 131.998 223.18 132.665 222.66 133.045C221.38 133.971 220.183 133.875 219.07 132.755L202.58 116.225C202.389 116.034 202.164 115.883 201.917 115.78C201.67 115.677 201.406 115.624 201.14 115.625L174.64 115.605C173.966 115.605 173.866 115.841 174.34 116.315L182.3 124.285C183.36 125.351 183.51 126.531 182.75 127.825C182.61 128.071 182.42 128.258 182.18 128.385C181.013 129.005 179.963 128.845 179.03 127.905L167.38 116.195C167.021 115.837 166.532 115.635 166.02 115.635L121.4 115.615C120.8 115.615 120.71 115.828 121.13 116.255L152.68 147.765C152.986 148.078 153.36 148.235 153.8 148.235L169.74 148.215C171.253 148.215 172.12 148.961 172.34 150.455C172.46 151.228 172.216 151.928 171.61 152.555C171.439 152.732 171.234 152.872 171.007 152.969C170.781 153.065 170.536 153.115 170.29 153.115L159.03 153.075C158.303 153.075 158.196 153.331 158.71 153.845L177.37 172.475C177.703 172.808 178.152 172.995 178.62 172.995L201.1 172.985C202.74 172.985 203.61 173.805 203.71 175.445C203.75 176.165 203.3 176.845 202.36 177.485C202.047 177.7 201.677 177.815 201.3 177.815L184.1 177.755C183.113 177.755 182.966 178.101 183.66 178.795L193.69 188.815C194.563 189.688 194.733 190.681 194.2 191.795C194.1 192.015 193.956 192.201 193.77 192.355C192.603 193.361 191.466 193.325 190.36 192.245C186.72 188.691 183.256 185.211 179.97 181.805C179.863 181.698 179.736 181.675 179.59 181.735C179.503 181.77 179.43 181.83 179.378 181.907C179.327 181.983 179.299 182.073 179.3 182.165L179.31 201.125C179.31 201.601 179.132 202.064 178.81 202.425C178.183 203.111 177.526 203.431 176.84 203.385C175.326 203.285 174.57 202.478 174.57 200.965L174.53 177.365C174.529 177.083 174.474 176.804 174.366 176.545C174.257 176.286 174.099 176.051 173.9 175.855L155.14 157.075C154.6 156.535 154.33 156.648 154.33 157.415L154.35 169.095C154.35 170.568 153.613 171.361 152.14 171.475L151.56 171.515C150.213 171.615 149.54 170.991 149.54 169.645L149.56 152.425C149.56 152.136 149.502 151.85 149.391 151.582C149.279 151.314 149.116 151.071 148.91 150.865L117.18 119.115C116.78 118.715 116.58 118.798 116.58 119.365V165.925C116.579 166.519 116.817 167.091 117.24 167.515L128.88 179.115C129.966 180.201 130.053 181.361 129.14 182.595C128.72 183.161 128.063 183.451 127.17 183.465C126.888 183.471 126.608 183.42 126.347 183.316C126.086 183.211 125.848 183.054 125.65 182.855L117.17 174.365C116.776 173.965 116.576 174.048 116.57 174.615V201.485C116.57 201.875 116.728 202.253 117.01 202.535L133.86 219.365C134.127 219.639 134.311 219.983 134.39 220.355C134.67 221.781 134.393 222.735 133.56 223.215C132.386 223.888 131.323 223.745 130.37 222.785L117.07 209.435C117.029 209.392 116.976 209.363 116.919 209.351C116.861 209.339 116.801 209.344 116.747 209.367C116.693 209.39 116.647 209.429 116.615 209.478C116.583 209.528 116.568 209.586 116.57 209.645L116.58 224.455C116.58 226.115 115.753 226.991 114.1 227.085C113.613 227.111 113.106 226.961 112.58 226.635C112.326 226.475 112.116 226.254 111.971 225.992C111.826 225.729 111.75 225.435 111.75 225.135L111.77 209.905C111.77 209.218 111.526 209.118 111.04 209.605L98.7696 221.895C97.8762 222.788 96.8463 222.988 95.6796 222.495C95.4463 222.395 95.253 222.251 95.0997 222.065C94.073 220.851 94.123 219.681 95.2497 218.555L111.28 202.555C111.435 202.4 111.559 202.215 111.643 202.013C111.727 201.81 111.77 201.593 111.77 201.375L111.76 174.925C111.76 174.265 111.53 174.168 111.07 174.635L103.46 182.305C102.513 183.258 101.44 183.435 100.24 182.835C100.033 182.735 99.873 182.608 99.7597 182.455C98.793 181.175 98.8764 179.968 100.01 178.835L111.28 167.575C111.606 167.241 111.77 166.845 111.77 166.385L111.76 119.505C111.76 118.898 111.546 118.808 111.12 119.235L79.3797 150.975C78.9797 151.375 78.7829 151.855 78.7896 152.415L78.8196 168.865C78.8196 170.458 78.0296 171.365 76.4496 171.585C75.6896 171.691 74.983 171.268 74.3296 170.315C74.0365 169.891 73.8796 169.385 73.8797 168.865L73.9697 157.485C73.9763 156.745 73.7163 156.638 73.1896 157.165L54.3597 175.965C54.0399 176.285 53.8602 176.72 53.8597 177.175L53.8396 200.935C53.8396 202.388 53.1163 203.211 51.6696 203.405C51.0629 203.485 50.4563 203.281 49.8497 202.795C49.6122 202.604 49.4205 202.362 49.289 202.087C49.1574 201.812 49.0893 201.51 49.0896 201.205L49.0796 182.115C49.0795 182.048 49.0594 181.982 49.022 181.926C48.9846 181.87 48.9317 181.827 48.8697 181.801C48.8077 181.776 48.7394 181.769 48.6735 181.782C48.6077 181.795 48.5472 181.827 48.4997 181.875L38.0596 192.265C36.9863 193.338 35.8397 193.421 34.6197 192.515C34.453 192.395 34.3163 192.245 34.2096 192.065C33.5496 190.938 33.6797 189.911 34.5997 188.985L44.6596 178.875C45.2996 178.228 45.1664 177.901 44.2597 177.895L27.1397 177.845C25.8597 177.838 25.0463 177.218 24.6996 175.985C24.633 175.758 24.6162 175.528 24.6496 175.295C24.8829 173.821 25.7463 173.085 27.2397 173.085H49.5796C49.8678 173.085 50.1524 173.028 50.4168 172.918C50.6812 172.808 50.9201 172.647 51.1197 172.445L69.4797 154.065C70.093 153.445 69.963 153.138 69.0896 153.145L58.4897 153.175C57.1297 153.175 56.2896 152.515 55.9697 151.195C55.9296 151.041 55.9163 150.885 55.9296 150.725C56.0229 149.091 56.8862 148.278 58.5196 148.285L74.2796 148.365C74.8438 148.364 75.3861 148.142 75.7896 147.745L107.12 116.415C107.626 115.908 107.523 115.655 106.81 115.655H62.3096C61.8424 115.655 61.3928 115.842 61.0596 116.175L49.5396 127.795C48.3796 128.955 47.113 129.088 45.7397 128.195C45.053 127.748 44.933 126.791 45.3797 125.325C45.478 124.99 45.6604 124.687 45.9096 124.445L54.1197 116.255C54.5197 115.855 54.4363 115.655 53.8697 115.655H27.1596C26.6129 115.655 26.1496 115.848 25.7696 116.235L8.90959 133.155C8.71402 133.35 8.47972 133.502 8.22148 133.602C7.96324 133.702 7.6867 133.747 7.40959 133.735C5.76959 133.668 4.89292 132.868 4.77959 131.335C4.75757 131.037 4.79983 130.738 4.90337 130.458C5.0069 130.179 5.16938 129.925 5.37968 129.715L18.8697 116.245C19.2697 115.845 19.1863 115.645 18.6197 115.645L3.81963 115.665C2.49296 115.665 1.673 115.025 1.35966 113.745C1.29966 113.505 1.29632 113.265 1.34965 113.025C1.66299 111.538 2.57965 110.798 4.09965 110.805L18.5396 110.885Z" fill="#EFF0F4"/>
</svg>
