<svg width="348" height="285" viewBox="0 0 348 285" fill="none" xmlns="http://www.w3.org/2000/svg">
<path d="M78.7411 80.0502C78.7362 80.1063 78.7175 80.1604 78.6865 80.2075C78.6556 80.2546 78.6135 80.2933 78.5639 80.3201C78.5143 80.3468 78.4588 80.3608 78.4025 80.3608C78.3461 80.3609 78.2907 80.3469 78.2411 80.3202C67.0477 74.2068 55.2444 72.3601 42.8311 74.7801C24.9111 78.2701 9.88106 91.5402 4.22106 108.47C-0.86561 123.724 0.69439 138.344 8.90106 152.33C14.4411 161.75 24.2211 170.06 35.1811 173.93C37.3144 174.684 39.3677 175.507 41.3411 176.4C42.3302 176.842 43.4001 177.07 44.4811 177.07C122.181 177.024 199.968 177.04 277.841 177.12C284.001 177.127 289.144 176.673 293.271 175.76C310.211 172.033 323.711 163.3 333.771 149.56C355.861 119.39 347.971 76.5202 317.101 55.6802C294.921 40.7202 266.811 40.5102 243.921 54.8202C243.561 55.0469 243.301 54.9635 243.141 54.5702C233.001 30.8702 212.841 12.4601 187.981 5.37011C135.731 -9.53989 83.7611 26.4002 78.7411 80.0502Z" stroke="#688396" stroke-width="2"/>
<path d="M90.805 199.185C90.1941 198.572 89.4685 198.086 88.6695 197.753C87.8705 197.42 87.0139 197.248 86.1485 197.247C85.2831 197.245 84.4258 197.414 83.6257 197.744C82.8256 198.074 82.0983 198.558 81.4853 199.169L59.0876 221.489C58.4746 222.1 57.9879 222.825 57.6553 223.624C57.3227 224.423 57.1508 225.28 57.1492 226.145C57.1477 227.011 57.3167 227.868 57.6465 228.668C57.9762 229.468 58.4604 230.195 59.0713 230.808L59.2972 231.035C59.908 231.648 60.6337 232.135 61.4326 232.467C62.2316 232.8 63.0883 232.972 63.9537 232.973C64.8191 232.975 65.6763 232.806 66.4764 232.476C67.2766 232.146 68.0039 231.662 68.6169 231.051L91.0146 208.732C91.6276 208.121 92.1143 207.395 92.4469 206.596C92.7794 205.797 92.9514 204.941 92.9529 204.075C92.9544 203.21 92.7855 202.352 92.4557 201.552C92.1259 200.752 91.6418 200.025 91.0309 199.412L90.805 199.185Z" stroke="#106993" stroke-width="2"/>
<path d="M150.958 208.69C151.569 208.079 152.053 207.353 152.384 206.555C152.715 205.757 152.885 204.901 152.885 204.037C152.885 203.173 152.715 202.317 152.384 201.519C152.053 200.72 151.569 199.995 150.958 199.384L150.717 199.144C150.106 198.533 149.381 198.048 148.582 197.717C147.784 197.387 146.928 197.216 146.064 197.216C145.2 197.216 144.345 197.387 143.546 197.717C142.748 198.048 142.023 198.533 141.412 199.144L119.025 221.531C118.414 222.142 117.929 222.867 117.598 223.665C117.267 224.464 117.097 225.319 117.097 226.183C117.097 227.048 117.267 227.903 117.598 228.702C117.929 229.5 118.414 230.225 119.025 230.836L119.265 231.077C119.876 231.688 120.601 232.172 121.4 232.503C122.198 232.834 123.054 233.004 123.918 233.004C124.782 233.004 125.638 232.834 126.436 232.503C127.234 232.172 127.96 231.688 128.571 231.077L150.958 208.69Z" stroke="#106993" stroke-width="2"/>
<path d="M210.61 199.159C209.376 197.925 207.702 197.232 205.957 197.232C204.212 197.232 202.539 197.925 201.305 199.159L178.96 221.504C177.726 222.738 177.033 224.411 177.033 226.156C177.033 227.901 177.726 229.575 178.96 230.809L179.172 231.021C180.406 232.255 182.08 232.948 183.825 232.948C185.57 232.948 187.244 232.255 188.478 231.021L210.822 208.677C212.056 207.443 212.749 205.769 212.749 204.024C212.749 202.279 212.056 200.605 210.822 199.371L210.61 199.159Z" stroke="#106993" stroke-width="2"/>
<path d="M270.577 199.142C269.965 198.53 269.239 198.045 268.439 197.713C267.64 197.382 266.783 197.212 265.917 197.212C265.052 197.212 264.195 197.382 263.395 197.713C262.596 198.045 261.869 198.53 261.257 199.142L238.913 221.487C238.301 222.099 237.815 222.825 237.484 223.625C237.153 224.424 236.983 225.281 236.983 226.146C236.983 227.012 237.153 227.869 237.484 228.668C237.815 229.468 238.301 230.194 238.913 230.806L239.125 231.018C239.737 231.63 240.463 232.116 241.263 232.447C242.062 232.778 242.919 232.949 243.785 232.949C244.65 232.949 245.507 232.778 246.307 232.447C247.106 232.116 247.833 231.63 248.445 231.018L270.789 208.674C271.401 208.062 271.887 207.335 272.218 206.536C272.549 205.736 272.719 204.879 272.719 204.014C272.719 203.149 272.549 202.292 272.218 201.492C271.887 200.693 271.401 199.966 270.789 199.354L270.577 199.142Z" stroke="#106993" stroke-width="2"/>
<path d="M41.8013 247.958C41.1893 247.346 40.4629 246.86 39.6633 246.529C38.8638 246.198 38.0068 246.028 37.1414 246.028C36.276 246.028 35.4191 246.198 34.6195 246.529C33.82 246.86 33.0935 247.346 32.4816 247.958L10.1088 270.331C9.49683 270.943 9.01141 271.669 8.68023 272.469C8.34905 273.268 8.17859 274.125 8.17859 274.99C8.17859 275.856 8.34905 276.713 8.68023 277.512C9.01141 278.312 9.49683 279.038 10.1088 279.65L10.3209 279.862C10.9328 280.474 11.6593 280.96 12.4588 281.291C13.2584 281.622 14.1153 281.793 14.9807 281.793C15.8461 281.793 16.7031 281.622 17.5026 281.291C18.3022 280.96 19.0286 280.474 19.6406 279.862L42.0134 257.49C42.6253 256.878 43.1107 256.151 43.4419 255.352C43.7731 254.552 43.9436 253.695 43.9436 252.83C43.9436 251.964 43.7731 251.108 43.4419 250.308C43.1107 249.508 42.6253 248.782 42.0134 248.17L41.8013 247.958Z" stroke="#106993" stroke-width="2"/>
<path d="M101.681 248C100.443 246.758 98.7633 246.058 97.0102 246.055C95.2571 246.052 93.5747 246.746 92.3329 247.983L69.9918 270.246C69.3769 270.859 68.8887 271.587 68.5551 272.388C68.2215 273.19 68.0491 274.049 68.0476 274.917C68.046 275.785 68.2155 276.645 68.5463 277.447C68.8771 278.25 69.3627 278.979 69.9755 279.594L70.2014 279.821C71.4388 281.063 73.1188 281.762 74.8719 281.765C76.625 281.768 78.3075 281.075 79.5493 279.837L101.89 257.574C102.505 256.961 102.993 256.234 103.327 255.432C103.661 254.631 103.833 253.771 103.835 252.903C103.836 252.035 103.667 251.176 103.336 250.373C103.005 249.571 102.519 248.841 101.907 248.226L101.681 248Z" stroke="#106993" stroke-width="2"/>
<path d="M161.62 247.935C160.382 246.697 158.704 246.002 156.953 246.002C155.203 246.002 153.524 246.697 152.286 247.935L129.956 270.265C128.718 271.503 128.023 273.182 128.023 274.932C128.023 276.683 128.718 278.361 129.956 279.599L130.182 279.825C131.42 281.063 133.099 281.759 134.849 281.759C136.599 281.759 138.278 281.063 139.516 279.825L161.846 257.495C163.084 256.257 163.779 254.579 163.779 252.828C163.779 251.078 163.084 249.399 161.846 248.161L161.62 247.935Z" stroke="#106993" stroke-width="2"/>
<path d="M221.54 248.011C220.93 247.399 220.205 246.913 219.407 246.58C218.61 246.248 217.754 246.077 216.89 246.075C216.026 246.074 215.17 246.242 214.371 246.572C213.572 246.901 212.846 247.384 212.234 247.994L189.893 270.258C188.657 271.489 187.961 273.162 187.958 274.907C187.955 276.652 188.645 278.327 189.877 279.563L190.103 279.79C190.713 280.402 191.437 280.888 192.235 281.22C193.033 281.552 193.888 281.724 194.752 281.725C195.616 281.727 196.472 281.558 197.271 281.229C198.07 280.899 198.796 280.416 199.408 279.806L221.749 257.543C222.985 256.311 223.681 254.639 223.685 252.893C223.688 251.148 222.997 249.473 221.765 248.237L221.54 248.011Z" stroke="#106993" stroke-width="2"/>
<path d="M78.7411 80.0502C83.761 26.4002 135.731 -9.53989 187.981 5.37011C212.841 12.4601 233.001 30.8702 243.141 54.5702C243.301 54.9635 243.561 55.0469 243.921 54.8202C266.811 40.5102 294.921 40.7202 317.101 55.6802C347.971 76.5202 355.861 119.39 333.771 149.56C323.711 163.3 310.211 172.033 293.271 175.76C289.144 176.673 284.001 177.127 277.841 177.12C199.968 177.04 122.181 177.024 44.4811 177.07C43.4001 177.07 42.3302 176.842 41.3411 176.4C39.3677 175.507 37.3144 174.684 35.1811 173.93C24.2211 170.06 14.4411 161.75 8.90106 152.33C0.69439 138.344 -0.86561 123.724 4.22106 108.47C9.88106 91.5402 24.9111 78.2701 42.8311 74.7801C55.2444 72.3601 67.0477 74.2068 78.2411 80.3202C78.2907 80.3469 78.3461 80.3609 78.4025 80.3608C78.4588 80.3608 78.5143 80.3468 78.5639 80.3201C78.6135 80.2933 78.6556 80.2546 78.6865 80.2075C78.7175 80.1604 78.7362 80.1063 78.7411 80.0502Z" fill="#CDCDCF"/>
<path d="M81.4853 199.169L59.0876 221.489C56.5095 224.058 56.5023 228.23 59.0713 230.808L59.2972 231.035C61.8662 233.613 66.0388 233.62 68.6168 231.051L91.0145 208.732C93.5926 206.163 93.5999 201.99 91.0308 199.412L90.8049 199.185C88.2359 196.607 84.0633 196.6 81.4853 199.169Z" fill="#1E99CA"/>
<path d="M150.958 199.384L150.717 199.144C148.148 196.574 143.981 196.574 141.412 199.144L119.025 221.531C116.455 224.1 116.455 228.267 119.025 230.836L119.265 231.077C121.835 233.646 126.001 233.646 128.571 231.077L150.958 208.69C153.527 206.12 153.527 201.954 150.958 199.384Z" fill="#1E99CA"/>
<path d="M201.305 199.159L178.96 221.504C176.39 224.073 176.39 228.239 178.96 230.809L179.172 231.021C181.742 233.591 185.908 233.591 188.478 231.021L210.822 208.677C213.392 206.107 213.392 201.941 210.822 199.371L210.61 199.159C208.04 196.589 203.874 196.589 201.305 199.159Z" fill="#1E99CA"/>
<path d="M261.257 199.142L238.913 221.487C236.339 224.06 236.339 228.233 238.913 230.806L239.125 231.018C241.699 233.592 245.871 233.592 248.445 231.018L270.789 208.674C273.363 206.1 273.363 201.928 270.789 199.354L270.577 199.142C268.004 196.568 263.831 196.568 261.257 199.142Z" fill="#1E99CA"/>
<path d="M32.4816 247.958L10.1087 270.331C7.53519 272.904 7.53519 277.077 10.1087 279.65L10.3209 279.862C12.8944 282.436 17.067 282.436 19.6405 279.862L42.0134 257.49C44.587 254.916 44.587 250.743 42.0134 248.17L41.8013 247.958C39.2277 245.384 35.0552 245.384 32.4816 247.958Z" fill="#1E99CA"/>
<path d="M92.3329 247.983L69.9918 270.246C67.406 272.823 67.3986 277.008 69.9755 279.594L70.2014 279.821C72.7782 282.407 76.9635 282.414 79.5493 279.837L101.89 257.574C104.476 254.997 104.484 250.812 101.907 248.226L101.681 247.999C99.1039 245.414 94.9187 245.406 92.3329 247.983Z" fill="#1E99CA"/>
<path d="M152.286 247.935L129.956 270.265C127.378 272.843 127.378 277.022 129.956 279.599L130.182 279.825C132.76 282.403 136.938 282.403 139.516 279.825L161.846 257.495C164.424 254.918 164.424 250.739 161.846 248.161L161.62 247.935C159.043 245.357 154.864 245.357 152.286 247.935Z" fill="#1E99CA"/>
<path d="M212.234 247.994L189.893 270.258C187.319 272.823 187.312 276.989 189.877 279.563L190.103 279.79C192.668 282.364 196.834 282.371 199.408 279.806L221.749 257.543C224.323 254.978 224.331 250.811 221.765 248.237L221.54 248.011C218.974 245.437 214.808 245.429 212.234 247.994Z" fill="#1E99CA"/>
</svg>
