<svg width="413" height="315" viewBox="0 0 413 315" fill="none" xmlns="http://www.w3.org/2000/svg">
<path d="M169.555 12.0325C169.558 10.5919 169.276 9.16487 168.727 7.83296C168.178 6.50106 167.373 5.29032 166.356 4.26988C165.339 3.24943 164.131 2.43927 162.801 1.88565C161.471 1.33203 160.045 1.04579 158.604 1.04327L157.704 1.04176C154.795 1.03669 152.003 2.18759 149.942 4.24126C147.881 6.29493 146.72 9.08316 146.715 11.9926L146.651 48.8525C146.648 50.2931 146.93 51.7201 147.479 53.052C148.028 54.3839 148.833 55.5946 149.85 56.6151C150.867 57.6355 152.075 58.4457 153.405 58.9993C154.735 59.5529 156.161 59.8391 157.602 59.8417L158.502 59.8432C161.411 59.8482 164.203 58.6973 166.264 56.6437C168.325 54.59 169.486 51.8018 169.491 48.8924L169.555 12.0325Z" stroke="#81822E" stroke-width="2"/>
<path d="M265.762 43.785C263.673 41.6959 260.84 40.5222 257.885 40.5222C254.931 40.5222 252.097 41.6959 250.008 43.785L224.085 69.7075C221.996 71.7967 220.823 74.6302 220.823 77.5847C220.823 80.5392 221.996 83.3727 224.085 85.4618L224.524 85.9002C226.613 87.9894 229.446 89.163 232.401 89.163C235.355 89.163 238.189 87.9894 240.278 85.9002L266.201 59.9777C268.29 57.8886 269.463 55.0551 269.463 52.1006C269.463 49.1461 268.29 46.3126 266.201 44.2234L265.762 43.785Z" stroke="#81822E" stroke-width="2"/>
<path d="M87.8036 89.5148C88.8352 88.4831 89.6536 87.2584 90.2119 85.9104C90.7703 84.5625 91.0576 83.1178 91.0576 81.6588C91.0576 80.1998 90.7703 78.7551 90.2119 77.4072C89.6536 76.0592 88.8352 74.8345 87.8036 73.8028L61.8528 47.852C60.8211 46.8203 59.5964 46.002 58.2484 45.4436C56.9005 44.8853 55.4558 44.5979 53.9968 44.5979C52.5378 44.5979 51.0931 44.8853 49.7451 45.4436C48.3972 46.002 47.1724 46.8203 46.1408 47.852L45.7024 48.2904C44.6707 49.3221 43.8523 50.5468 43.294 51.8947C42.7356 53.2427 42.4483 54.6874 42.4483 56.1464C42.4483 57.6054 42.7356 59.0501 43.294 60.398C43.8523 61.746 44.6707 62.9707 45.7024 64.0024L71.6532 89.9532C72.6848 90.9849 73.9096 91.8032 75.2575 92.3616C76.6055 92.9199 78.0502 93.2073 79.5092 93.2073C80.9682 93.2073 82.4129 92.9199 83.7608 92.3616C85.1088 91.8032 86.3335 90.9849 87.3651 89.9532L87.8036 89.5148Z" stroke="#81822E" stroke-width="2"/>
<path d="M91.533 105.322C70.213 133.372 70.083 173.112 90.093 201.872C90.313 202.186 90.5963 202.263 90.9429 202.103C104.276 196.069 118.196 194.556 132.703 197.562C133.083 197.636 133.326 197.489 133.433 197.122C146.773 151.932 187.243 122.432 234.453 124.402C234.543 124.406 234.632 124.386 234.712 124.346C234.793 124.306 234.862 124.247 234.913 124.173C234.965 124.1 234.997 124.015 235.008 123.925C235.018 123.836 235.006 123.746 234.973 123.662C209.963 63.3725 130.793 53.6725 91.533 105.322Z" stroke="#81822E" stroke-width="2"/>
<path d="M305.353 136.693C303.633 135.986 301.54 135.646 299.073 135.673C292.266 135.746 285.28 135.743 278.113 135.663C276.706 135.649 276.62 135.976 277.853 136.643C287.413 141.843 296.183 148.829 304.163 157.603C304.306 157.76 304.494 157.868 304.701 157.911C304.907 157.954 305.122 157.93 305.313 157.843C314.703 153.543 314.733 140.543 305.353 136.693Z" stroke="#81822E" stroke-width="2"/>
<path d="M143.553 216.662C117.763 202.792 85.603 212.182 72.293 238.902C60.013 263.522 69.283 292.932 92.753 306.672C97.283 309.322 102.313 310.912 107.093 312.932C108.149 313.381 109.285 313.612 110.433 313.612C186.106 313.612 263.85 313.626 343.663 313.652C349.436 313.652 354.36 313.216 358.433 312.342C393.423 304.842 417.173 272.042 410.963 236.062C407.403 215.442 394.583 197.782 376.183 188.292C360.056 179.966 343.013 178.516 325.053 183.942C319.44 185.642 314.283 188.122 309.583 191.382C309.509 191.434 309.424 191.469 309.334 191.484C309.245 191.499 309.153 191.494 309.066 191.469C308.979 191.444 308.899 191.4 308.83 191.34C308.762 191.28 308.709 191.206 308.673 191.122C284.883 135.012 211.893 120.302 168.783 163.862C154.61 178.189 146.44 195.662 144.273 216.282C144.22 216.769 143.98 216.896 143.553 216.662Z" stroke="#7994A8" stroke-width="2"/>
<path d="M60.5712 154.05C60.561 151.138 59.3945 148.349 57.3282 146.297C55.2619 144.245 52.465 143.098 49.553 143.108L12.7132 143.237C9.80112 143.247 7.0124 144.414 4.96045 146.48C2.90851 148.546 1.76143 151.343 1.77158 154.255L1.77479 155.175C1.78495 158.087 2.95149 160.876 5.0178 162.928C7.08411 164.98 9.88093 166.127 12.793 166.117L49.6328 165.988C52.5448 165.978 55.3336 164.812 57.3855 162.745C59.4375 160.679 60.5845 157.882 60.5744 154.97L60.5712 154.05Z" stroke="#81822E" stroke-width="2"/>
<path d="M42.623 248.583C38.893 252.333 38.673 258.303 41.353 262.533C43.7064 266.266 47.3363 268.036 52.243 267.843C52.6896 267.823 52.8996 267.593 52.873 267.153C52.0796 254.573 54.353 243.019 59.693 232.493C60.393 231.106 60.193 230.963 59.093 232.063C53.713 237.463 48.223 242.969 42.623 248.583Z" stroke="#81822E" stroke-width="2"/>
<path d="M158.604 1.04342L157.704 1.04185C151.646 1.03128 146.726 5.93413 146.715 11.9927L146.651 48.8526C146.64 54.9112 151.543 59.8312 157.602 59.8418L158.502 59.8433C164.56 59.8539 169.48 54.951 169.491 48.8925L169.555 12.0326C169.566 5.974 164.663 1.054 158.604 1.04342Z" fill="#FFCC00"/>
<path d="M250.008 43.785L224.085 69.7075C219.735 74.058 219.735 81.1114 224.085 85.4619L224.524 85.9003C228.874 90.2507 235.928 90.2507 240.278 85.9003L266.201 59.9778C270.551 55.6273 270.551 48.5739 266.201 44.2234L265.762 43.785C261.412 39.4346 254.358 39.4346 250.008 43.785Z" fill="#FFCC00"/>
<path d="M87.8036 73.8029L61.8528 47.852C57.514 43.5133 50.4796 43.5133 46.1408 47.852L45.7024 48.2905C41.3637 52.6292 41.3637 59.6636 45.7024 64.0024L71.6532 89.9532C75.992 94.2919 83.0264 94.2919 87.3652 89.9532L87.8036 89.5148C92.1423 85.1761 92.1423 78.1416 87.8036 73.8029Z" fill="#FFCC00"/>
<path d="M90.093 201.872C70.083 173.112 70.213 133.372 91.533 105.322C130.793 53.6725 209.963 63.3725 234.973 123.662C235.006 123.746 235.018 123.836 235.008 123.925C234.997 124.015 234.965 124.1 234.913 124.173C234.862 124.247 234.793 124.306 234.712 124.346C234.632 124.386 234.543 124.406 234.453 124.402C187.243 122.432 146.773 151.932 133.433 197.122C133.326 197.489 133.083 197.636 132.703 197.562C118.196 194.556 104.276 196.069 90.9429 202.103C90.5963 202.263 90.313 202.186 90.093 201.872Z" fill="#FFCC00"/>
<path d="M305.353 136.693C314.733 140.543 314.703 153.543 305.313 157.843C305.122 157.93 304.907 157.954 304.701 157.911C304.494 157.868 304.306 157.76 304.163 157.603C296.183 148.829 287.413 141.843 277.853 136.643C276.62 135.976 276.706 135.649 278.113 135.663C285.28 135.743 292.266 135.746 299.073 135.673C301.54 135.646 303.633 135.986 305.353 136.693Z" fill="#FFCC00"/>
<path d="M144.273 216.282C146.44 195.662 154.61 178.189 168.783 163.862C211.893 120.302 284.883 135.012 308.673 191.122C308.709 191.206 308.762 191.28 308.83 191.34C308.898 191.4 308.979 191.444 309.066 191.469C309.153 191.494 309.245 191.499 309.334 191.484C309.424 191.469 309.509 191.434 309.583 191.382C314.283 188.122 319.44 185.642 325.053 183.942C343.013 178.516 360.056 179.966 376.183 188.292C394.583 197.782 407.403 215.442 410.963 236.062C417.173 272.042 393.423 304.842 358.433 312.342C354.36 313.216 349.436 313.652 343.663 313.652C263.85 313.626 186.106 313.612 110.433 313.612C109.285 313.612 108.149 313.381 107.093 312.932C102.313 310.912 97.283 309.322 92.753 306.672C69.283 292.932 60.013 263.522 72.293 238.902C85.603 212.182 117.763 202.792 143.553 216.662C143.98 216.896 144.22 216.769 144.273 216.282Z" fill="#EFF0F4"/>
<path d="M49.5529 143.108L12.7131 143.237C6.6491 143.258 1.75038 148.191 1.77154 154.255L1.77475 155.175C1.79592 161.239 6.72896 166.138 12.793 166.117L49.6328 165.988C55.6968 165.967 60.5956 161.034 60.5744 154.97L60.5712 154.05C60.55 147.986 55.617 143.087 49.5529 143.108Z" fill="#FFCC00"/>
<path d="M41.353 262.533C38.673 258.303 38.893 252.333 42.623 248.583C48.223 242.969 53.713 237.463 59.093 232.063C60.193 230.963 60.393 231.106 59.693 232.493C54.353 243.019 52.0796 254.573 52.873 267.153C52.8996 267.593 52.6896 267.823 52.243 267.843C47.3363 268.036 43.7064 266.266 41.353 262.533Z" fill="#FFCC00"/>
</svg>
