<svg width="94" height="62" viewBox="0 0 94 62" fill="none" xmlns="http://www.w3.org/2000/svg">
<path d="M48.8104 2.20762C48.8104 1.88734 48.6837 1.58017 48.4581 1.3537C48.2326 1.12723 47.9267 1 47.6078 1H47.5757C47.2567 1 46.9508 1.12723 46.7253 1.3537C46.4997 1.58017 46.373 1.88734 46.373 2.20762V19.5657C46.373 19.886 46.4997 20.1932 46.7253 20.4196C46.9508 20.6461 47.2567 20.7733 47.5757 20.7733H47.6078C47.9267 20.7733 48.2326 20.6461 48.4581 20.4196C48.6837 20.1932 48.8104 19.886 48.8104 19.5657V2.20762Z" stroke="#F7D344" stroke-width="2"/>
<path d="M35.3476 10.8601C35.2388 10.5615 35.0163 10.3185 34.7291 10.1847C34.4419 10.0508 34.1136 10.037 33.8162 10.1463L33.7723 10.1624C33.6251 10.2165 33.4899 10.2992 33.3745 10.4057C33.2591 10.5123 33.1657 10.6406 33.0997 10.7834C33.0337 10.9262 32.9964 11.0807 32.9898 11.238C32.9833 11.3953 33.0076 11.5523 33.0615 11.7002L36.7088 21.7086C36.8177 22.0072 37.0401 22.2501 37.3273 22.384C37.6145 22.5179 37.9429 22.5317 38.2403 22.4224L38.2841 22.4063C38.4314 22.3522 38.5665 22.2695 38.6819 22.163C38.7973 22.0564 38.8907 21.9281 38.9567 21.7853C39.0227 21.6425 39.0601 21.488 39.0667 21.3307C39.0732 21.1734 39.0489 21.0164 38.995 20.8685L35.3476 10.8601Z" stroke="#F7D344" stroke-width="2"/>
<path d="M57.9817 15.9794C57.9797 15.9755 57.9768 15.9721 57.9729 15.9692C57.9583 15.9565 57.9481 15.9594 57.9423 15.978C57.8654 16.2447 57.7881 16.5129 57.7102 16.7826C57.7073 16.7943 57.701 16.7962 57.6912 16.7884C57.6874 16.7855 57.6839 16.7821 57.681 16.7782C57.6713 16.7694 57.6645 16.7708 57.6606 16.7826C57.4689 17.3541 57.2806 17.8861 57.0958 18.3786C57.0685 18.4509 57.0505 18.53 57.0418 18.616C57.0408 18.6248 57.0374 18.6253 57.0316 18.6174C57.0296 18.6145 57.0277 18.6116 57.0257 18.6087C57.015 18.5959 57.0068 18.5979 57.0009 18.6145C56.7664 19.2447 56.5363 19.8769 56.3106 20.5109C56.1724 20.8988 56.1116 21.19 56.1281 21.3844C56.2361 22.7108 57.9846 22.9027 58.4852 21.6805C58.7002 21.1558 58.8559 20.6761 58.9522 20.2413C58.9659 20.1827 58.9975 20.1323 59.0471 20.0903C59.0767 20.0654 59.0989 20.0335 59.1113 19.998L61.4844 13.3913C61.5039 13.3356 61.5214 13.2794 61.537 13.2227C61.6012 12.9794 61.7573 12.786 61.7778 12.5324C61.7963 12.3185 61.8624 12.1162 61.9763 11.9257C62.0852 11.743 62.1456 11.5471 62.1572 11.338C62.239 9.81823 60.1052 9.61305 59.7506 11.0537C59.7009 11.2511 59.628 11.4592 59.5316 11.678C59.4937 11.764 59.4499 11.893 59.4003 12.0649C59.3633 12.1939 59.32 12.3224 59.2704 12.4504C59.0203 13.0991 58.5942 14.275 57.9919 15.978C57.9899 15.9848 57.9865 15.9853 57.9817 15.9794Z" stroke="#F7D344" stroke-width="2"/>
<path d="M19.8676 13.1079C19.7661 12.9864 19.6417 12.8862 19.5016 12.813C19.3615 12.7397 19.2085 12.6949 19.0511 12.6811C18.8938 12.6673 18.7353 12.6847 18.5847 12.7324C18.4341 12.7801 18.2943 12.8571 18.1733 12.959L18.1554 12.9741C18.0344 13.0761 17.9346 13.2009 17.8617 13.3416C17.7888 13.4823 17.7442 13.636 17.7304 13.794C17.7166 13.9519 17.734 14.1111 17.7815 14.2623C17.829 14.4136 17.9057 14.554 18.0072 14.6755L27.5705 26.1201C27.672 26.2416 27.7964 26.3418 27.9365 26.415C28.0766 26.4883 28.2296 26.5331 28.387 26.5469C28.5443 26.5607 28.7028 26.5433 28.8534 26.4956C29.004 26.4479 29.1438 26.3709 29.2648 26.2689L29.2827 26.2539C29.4037 26.1519 29.5035 26.0271 29.5764 25.8864C29.6493 25.7457 29.6939 25.592 29.7077 25.434C29.7215 25.2761 29.7041 25.1169 29.6566 24.9656C29.6091 24.8144 29.5324 24.674 29.4309 24.5525L19.8676 13.1079Z" stroke="#F7D344" stroke-width="2"/>
<path d="M77.1729 14.6728C77.2744 14.5513 77.3511 14.4109 77.3986 14.2597C77.4461 14.1084 77.4635 13.9493 77.4497 13.7913C77.436 13.6333 77.3913 13.4796 77.3184 13.3389C77.2455 13.1982 77.1457 13.0734 77.0247 12.9714L77.0068 12.9564C76.7625 12.7505 76.4467 12.6505 76.129 12.6784C75.8112 12.7063 75.5176 12.8599 75.3126 13.1052L64.9706 25.4817C64.8691 25.6032 64.7924 25.7435 64.7449 25.8948C64.6974 26.046 64.68 26.2052 64.6938 26.3632C64.7075 26.5212 64.7522 26.6749 64.8251 26.8155C64.898 26.9562 64.9978 27.0811 65.1188 27.183L65.1367 27.1981C65.381 27.4039 65.6968 27.5039 66.0145 27.476C66.3323 27.4481 66.6259 27.2946 66.8309 27.0492L77.1729 14.6728Z" stroke="#F7D344" stroke-width="2"/>
<path d="M27.7939 34.7694C27.6635 34.9609 27.5375 35.1602 27.4159 35.3673C27.0189 36.0444 26.6492 36.7337 26.3067 37.4352C26.0635 37.9345 25.827 38.4865 25.5974 39.0913C25.3639 39.7069 25.1683 40.2818 25.0107 40.8163C24.4872 42.5906 24.17 44.4416 24.0591 46.3693C24.058 46.3864 24.0504 46.4024 24.038 46.4141C24.0255 46.4258 24.0091 46.4323 23.992 46.4323C20.9037 46.4323 17.5207 46.4308 13.8428 46.4279C13.2794 46.4279 12.8795 46.6546 12.6431 47.1079C12.233 47.8979 12.8066 48.871 13.6954 48.8725C36.9964 48.8832 59.4772 48.8856 81.1378 48.8798C81.3139 48.8798 81.4817 48.869 81.6413 48.8475C82.822 48.6893 83.0672 47.0141 81.9667 46.5539C81.7478 46.4621 81.4749 46.4167 81.148 46.4176C77.9011 46.4333 74.5954 46.4367 71.2308 46.4279C71.2024 46.4279 71.175 46.417 71.1544 46.3974C71.1338 46.3777 71.1214 46.3509 71.1199 46.3224C70.4734 35.3043 62.4141 26.1255 51.5294 24.298C46.8328 23.5105 42.2705 24.1035 37.8424 26.0771C37.0163 26.4455 36.1728 26.8944 35.3117 27.424C32.3548 29.2432 29.8985 31.6175 27.9428 34.5466C27.8941 34.6209 27.8445 34.6951 27.7939 34.7694Z" stroke="#F7D344" stroke-width="2"/>
<path d="M23.9634 34.4586C24.0418 34.3222 24.0927 34.1717 24.1131 34.0156C24.1336 33.8595 24.1233 33.7009 24.0827 33.5489C24.0421 33.3968 23.9721 33.2542 23.8766 33.1293C23.7812 33.0044 23.6622 32.8996 23.5264 32.8209L14.3199 27.4834C14.1841 27.4046 14.0342 27.3536 13.8788 27.333C13.7233 27.3125 13.5654 27.3229 13.414 27.3636C13.2625 27.4043 13.1206 27.4746 12.9962 27.5705C12.8718 27.6663 12.7674 27.7858 12.689 27.9222L12.6686 27.9577C12.5902 28.094 12.5393 28.2445 12.5189 28.4006C12.4984 28.5567 12.5088 28.7153 12.5493 28.8674C12.5899 29.0195 12.6599 29.162 12.7554 29.2869C12.8508 29.4118 12.9698 29.5166 13.1056 29.5953L22.3121 34.9329C22.4479 35.0116 22.5978 35.0627 22.7532 35.0832C22.9087 35.1038 23.0666 35.0934 23.2181 35.0527C23.3695 35.0119 23.5115 34.9416 23.6358 34.8458C23.7602 34.7499 23.8646 34.6304 23.943 34.4941L23.9634 34.4586Z" stroke="#F7D344" stroke-width="2"/>
<path d="M77.3445 32.2751C77.4681 32.2164 77.5883 32.1481 77.705 32.0699C77.7371 32.0484 77.7731 32.0352 77.813 32.0303C77.8675 32.0245 77.9196 32.0078 77.9692 31.9805C78.373 31.7587 78.7602 31.514 79.1309 31.2462C79.2779 31.1397 79.4437 31.0494 79.6286 30.9751C79.8096 30.9028 79.9726 30.8129 80.1175 30.7055C80.2907 30.5775 80.4878 30.4671 80.7086 30.3742C81.0025 30.2511 81.2496 30.0381 81.45 29.7353C81.4539 29.7284 81.4583 29.7289 81.4632 29.7367C81.4661 29.7396 81.468 29.7426 81.469 29.7455C81.4768 29.7572 81.4831 29.7567 81.488 29.744C81.7419 29.022 81.5902 28.4798 81.0326 28.1173C80.6648 27.8769 80.1715 27.8916 79.795 28.1055C79.2073 28.4407 78.6702 28.7401 78.1837 29.0039C78.174 29.0088 78.174 29.0098 78.1837 29.0069C78.1886 29.0049 78.193 29.0059 78.1969 29.0098C78.2047 29.0196 78.2032 29.0279 78.1925 29.0347C77.5153 29.4392 76.8167 29.8334 76.0967 30.2174C76.0724 30.2301 76.0548 30.2497 76.0441 30.276C76.0383 30.2917 76.0286 30.3034 76.015 30.3112C74.5545 31.1388 73.0697 31.9937 71.5606 32.8759C71.0863 33.1529 70.9155 33.9238 71.1943 34.4294C71.5942 35.1564 72.3312 35.237 73.0041 34.853C73.2736 34.6996 73.5392 34.5389 73.8009 34.3708C73.9537 34.2741 74.104 34.191 74.2519 34.1217C74.3521 34.0748 74.4455 34.0191 74.5321 33.9546C74.6294 33.8823 74.7306 33.8242 74.8357 33.7802C74.9816 33.7186 75.1256 33.6361 75.2677 33.5325C75.5907 33.298 75.8345 33.1432 75.9989 33.0679C76.3404 32.9116 76.6858 32.7084 77.0351 32.4583C77.1324 32.3879 77.2356 32.3269 77.3445 32.2751Z" stroke="#F7D344" stroke-width="2"/>
<path d="M19.5331 43.1916C19.5881 42.8784 19.517 42.5562 19.3354 42.2958C19.1537 42.0353 18.8765 41.858 18.5647 41.8028L2.71414 38.9962C2.55974 38.9689 2.40149 38.9724 2.24843 39.0064C2.09537 39.0405 1.95049 39.1045 1.82206 39.1948C1.69364 39.2851 1.58418 39.4 1.49994 39.5327C1.4157 39.6655 1.35834 39.8136 1.33111 39.9687L1.32503 40.0033C1.27005 40.3164 1.34119 40.6387 1.5228 40.8991C1.70441 41.1596 1.98161 41.3369 2.29343 41.3921L18.144 44.1987C18.2984 44.226 18.4567 44.2225 18.6097 44.1885C18.7628 44.1544 18.9077 44.0904 19.0361 44.0001C19.1645 43.9098 19.274 43.795 19.3582 43.6622C19.4424 43.5294 19.4998 43.3813 19.527 43.2262L19.5331 43.1916Z" stroke="#F7D344" stroke-width="2"/>
<path d="M92.6688 40.1774C92.6416 40.0226 92.5843 39.8746 92.5002 39.742C92.416 39.6094 92.3067 39.4947 92.1784 39.4045C92.0502 39.3143 91.9055 39.2504 91.7526 39.2164C91.5997 39.1823 91.4417 39.1789 91.2875 39.2062L76.6155 41.804C76.304 41.8592 76.0272 42.0363 75.8458 42.2964C75.6644 42.5566 75.5933 42.8784 75.6482 43.1911L75.6548 43.2286C75.682 43.3835 75.7393 43.5315 75.8235 43.6641C75.9076 43.7967 76.0169 43.9114 76.1452 44.0016C76.2734 44.0917 76.4182 44.1557 76.571 44.1897C76.7239 44.2237 76.882 44.2272 77.0362 44.1999L91.7082 41.6021C92.0196 41.5469 92.2965 41.3698 92.4778 41.1097C92.6592 40.8495 92.7303 40.5277 92.6754 40.215L92.6688 40.1774Z" stroke="#F7D344" stroke-width="2"/>
<path d="M75.8442 53.7074C75.8442 53.3871 75.7175 53.0799 75.4919 52.8535C75.2664 52.627 74.9605 52.4998 74.6416 52.4998H20.5388C20.2198 52.4998 19.914 52.627 19.6884 52.8535C19.4629 53.0799 19.3362 53.3871 19.3362 53.7074V53.7191C19.3362 54.0394 19.4629 54.3465 19.6884 54.573C19.914 54.7995 20.2198 54.9267 20.5388 54.9267H74.6416C74.9605 54.9267 75.2664 54.7995 75.4919 54.573C75.7175 54.3465 75.8442 54.0394 75.8442 53.7191V53.7074Z" stroke="#F7D344" stroke-width="2"/>
<path d="M69.8311 59.7645C69.8311 59.4415 69.7034 59.1317 69.4759 58.9033C69.2485 58.6749 68.94 58.5466 68.6183 58.5466H26.5621C26.4028 58.5466 26.2451 58.5781 26.0979 58.6393C25.9508 58.7005 25.8171 58.7903 25.7045 58.9033C25.5918 59.0164 25.5025 59.1507 25.4416 59.2984C25.3806 59.4462 25.3492 59.6046 25.3492 59.7645V59.7821C25.3492 60.1051 25.477 60.4149 25.7045 60.6433C25.9319 60.8717 26.2404 61 26.5621 61H68.6183C68.94 61 69.2485 60.8717 69.4759 60.6433C69.7034 60.4149 69.8311 60.1051 69.8311 59.7821V59.7645Z" stroke="#F7D344" stroke-width="2"/>
<path d="M34.7177 30.7875C34.6175 30.8549 34.5197 30.9277 34.4243 31.0059C31.629 33.2951 29.5492 36.0201 28.1851 39.1808C28.081 39.4211 27.9842 39.6595 27.8946 39.896C27.811 40.1197 27.7166 40.3337 27.6115 40.5379C27.486 40.7856 27.5283 41.0362 27.4159 41.2985C27.3478 41.4578 27.2894 41.6273 27.2408 41.8071C26.8448 43.2814 26.5952 44.7861 26.4921 46.321C26.4913 46.3299 26.4924 46.3389 26.4953 46.3475C26.4982 46.356 26.5029 46.3638 26.5091 46.3704C26.5153 46.377 26.5228 46.3823 26.5312 46.3859C26.5396 46.3895 26.5486 46.3914 26.5578 46.3913L68.6272 46.3957C68.6356 46.3958 68.6439 46.394 68.6517 46.3907C68.6594 46.3873 68.6664 46.3824 68.6721 46.3762C68.6779 46.37 68.6823 46.3627 68.6851 46.3547C68.6879 46.3467 68.6891 46.3382 68.6885 46.3298C67.9471 34.4529 57.6548 25.4837 45.8462 26.4671C42.4086 26.7533 39.2129 27.8242 36.2589 29.6796C36.1071 29.7753 35.9553 29.8784 35.8035 29.9888C35.6576 30.0953 35.5029 30.1945 35.3394 30.2863C35.2168 30.3557 35.1054 30.4421 35.0052 30.5457C34.9176 30.6376 34.8218 30.7182 34.7177 30.7875Z" stroke="#F7D344" stroke-width="2"/>
<path d="M47.6078 1H47.5757C46.9115 1 46.373 1.54067 46.373 2.20762V19.5657C46.373 20.2327 46.9115 20.7733 47.5757 20.7733H47.6078C48.2719 20.7733 48.8104 20.2327 48.8104 19.5657V2.20762C48.8104 1.54067 48.2719 1 47.6078 1Z" fill="#F7D344"/>
<path d="M33.8162 10.1462L33.7724 10.1624C33.1532 10.3899 32.8349 11.0784 33.0615 11.7002L36.7089 21.7086C36.9355 22.3304 37.6211 22.65 38.2403 22.4224L38.2842 22.4063C38.9034 22.1788 39.2216 21.4903 38.995 20.8685L35.3477 10.8601C35.1211 10.2383 34.4354 9.9187 33.8162 10.1462Z" fill="#F7D344"/>
<path d="M57.9919 15.978C58.5942 14.275 59.0203 13.0991 59.2704 12.4504C59.32 12.3224 59.3633 12.1939 59.4003 12.0649C59.4499 11.893 59.4937 11.764 59.5316 11.678C59.628 11.4592 59.7009 11.2511 59.7506 11.0537C60.1052 9.61305 62.239 9.81823 62.1572 11.338C62.1456 11.5471 62.0852 11.743 61.9763 11.9257C61.8624 12.1162 61.7963 12.3185 61.7778 12.5324C61.7573 12.786 61.6012 12.9794 61.537 13.2227C61.5214 13.2794 61.5039 13.3356 61.4844 13.3913L59.1113 19.998C59.0989 20.0335 59.0767 20.0654 59.0471 20.0903C58.9975 20.1323 58.9659 20.1827 58.9522 20.2413C58.8559 20.6761 58.7002 21.1558 58.4852 21.6805C57.9846 22.9027 56.2361 22.7108 56.1281 21.3844C56.1116 21.19 56.1724 20.8988 56.3106 20.511C56.5363 19.8769 56.7664 19.2447 57.0009 18.6145C57.0068 18.5979 57.015 18.596 57.0257 18.6087C57.0277 18.6116 57.0296 18.6145 57.0316 18.6174C57.0374 18.6253 57.0408 18.6248 57.0418 18.616C57.0505 18.53 57.0685 18.4509 57.0958 18.3786C57.2806 17.8861 57.4689 17.3541 57.6606 16.7826C57.6645 16.7708 57.6713 16.7694 57.681 16.7782C57.6839 16.7821 57.6874 16.7855 57.6912 16.7884C57.701 16.7962 57.7073 16.7943 57.7102 16.7826C57.7881 16.5129 57.8654 16.2447 57.9423 15.978C57.9481 15.9594 57.9583 15.9565 57.9729 15.9692C57.9768 15.9721 57.9797 15.9755 57.9817 15.9794C57.9865 15.9853 57.9899 15.9848 57.9919 15.978Z" fill="#F7D344"/>
<path d="M18.1733 12.9592L18.1554 12.9742C17.6466 13.403 17.5802 14.1647 18.0072 14.6756L27.5705 26.1202C27.9974 26.6311 28.756 26.6978 29.2648 26.2691L29.2826 26.254C29.7914 25.8253 29.8578 25.0636 29.4309 24.5527L19.8675 13.108C19.4406 12.5971 18.6821 12.5305 18.1733 12.9592Z" fill="#F7D344"/>
<path d="M77.0247 12.9714L77.0068 12.9563C76.498 12.5276 75.7395 12.5942 75.3125 13.1051L64.9706 25.4816C64.5436 25.9925 64.61 26.7542 65.1188 27.1829L65.1367 27.198C65.6455 27.6267 66.404 27.5601 66.831 27.0492L77.1729 14.6727C77.5999 14.1618 77.5335 13.4001 77.0247 12.9714Z" fill="#F7D344"/>
<path d="M27.7939 34.7694C27.8445 34.6951 27.8941 34.6209 27.9428 34.5466C29.8985 31.6175 32.3548 29.2432 35.3117 27.424C36.1728 26.8944 37.0163 26.4455 37.8424 26.0771C42.2705 24.1035 46.8328 23.5105 51.5294 24.298C62.4141 26.1255 70.4734 35.3043 71.1199 46.3224C71.1214 46.3509 71.1338 46.3777 71.1544 46.3974C71.175 46.417 71.2024 46.4279 71.2308 46.4279C74.5954 46.4367 77.9011 46.4333 81.148 46.4176C81.4749 46.4167 81.7478 46.4621 81.9668 46.5539C83.0672 47.0141 82.822 48.6893 81.6413 48.8475C81.4817 48.869 81.3139 48.8798 81.1378 48.8798C59.4772 48.8856 36.9964 48.8832 13.6954 48.8725C12.8066 48.871 12.233 47.8979 12.6431 47.1079C12.8795 46.6546 13.2794 46.4279 13.8428 46.4279C17.5207 46.4308 20.9037 46.4323 23.992 46.4323C24.0091 46.4323 24.0255 46.4258 24.038 46.4141C24.0504 46.4024 24.058 46.3864 24.0591 46.3693C24.17 44.4416 24.4872 42.5906 25.0107 40.8163C25.1683 40.2818 25.3639 39.7069 25.5974 39.0913C25.827 38.4865 26.0635 37.9345 26.3067 37.4352C26.6492 36.7337 27.0189 36.0444 27.4159 35.3673C27.5375 35.1602 27.6635 34.9609 27.7939 34.7694ZM34.7177 30.7875C34.6175 30.8549 34.5197 30.9277 34.4243 31.0058C31.6289 33.295 29.5492 36.02 28.1851 39.1807C28.0809 39.4211 27.9841 39.6595 27.8946 39.8959C27.8109 40.1196 27.7166 40.3336 27.6115 40.5378C27.486 40.7855 27.5283 41.0361 27.4159 41.2984C27.3478 41.4577 27.2894 41.6272 27.2408 41.807C26.8448 43.2813 26.5952 44.786 26.4921 46.3209C26.4913 46.3299 26.4923 46.3389 26.4953 46.3474C26.4982 46.3559 26.5029 46.3637 26.5091 46.3703C26.5153 46.3769 26.5228 46.3822 26.5312 46.3858C26.5396 46.3894 26.5486 46.3913 26.5577 46.3913L68.6271 46.3957C68.6356 46.3957 68.6439 46.394 68.6516 46.3906C68.6594 46.3872 68.6664 46.3823 68.6721 46.3761C68.6779 46.3699 68.6823 46.3626 68.6851 46.3546C68.6879 46.3466 68.689 46.3382 68.6884 46.3297C67.947 34.4528 57.6548 25.4836 45.8462 26.467C42.4086 26.7533 39.2129 27.8241 36.2589 29.6795C36.1071 29.7752 35.9553 29.8783 35.8035 29.9887C35.6576 30.0952 35.5029 30.1944 35.3394 30.2862C35.2168 30.3556 35.1054 30.4421 35.0052 30.5456C34.9176 30.6375 34.8218 30.7181 34.7177 30.7875Z" fill="#F7D344"/>
<path d="M23.5265 32.8209L14.3199 27.4833C13.7489 27.1523 13.0188 27.3487 12.6891 27.9221L12.6687 27.9577C12.339 28.5311 12.5346 29.2642 13.1056 29.5953L22.3122 34.9329C22.8832 35.2639 23.6134 35.0675 23.943 34.4941L23.9635 34.4585C24.2931 33.8851 24.0975 33.1519 23.5265 32.8209Z" fill="#F7D344"/>
<path d="M77.0351 32.4583C76.6858 32.7084 76.3404 32.9116 75.9989 33.0679C75.8345 33.1432 75.5907 33.298 75.2677 33.5325C75.1256 33.6361 74.9816 33.7186 74.8357 33.7802C74.7306 33.8242 74.6294 33.8823 74.5321 33.9546C74.4455 34.0191 74.3521 34.0748 74.2519 34.1217C74.104 34.191 73.9537 34.2741 73.8009 34.3708C73.5392 34.5389 73.2736 34.6996 73.0041 34.853C72.3312 35.237 71.5942 35.1564 71.1943 34.4294C70.9155 33.9238 71.0863 33.1529 71.5606 32.8759C73.0697 31.9937 74.5545 31.1388 76.015 30.3112C76.0286 30.3034 76.0383 30.2917 76.0441 30.276C76.0548 30.2497 76.0724 30.2301 76.0967 30.2174C76.8167 29.8334 77.5153 29.4392 78.1925 29.0347C78.2032 29.0279 78.2047 29.0196 78.1969 29.0098C78.193 29.0059 78.1886 29.0049 78.1837 29.0069C78.174 29.0098 78.174 29.0088 78.1837 29.0039C78.6702 28.7401 79.2073 28.4407 79.795 28.1055C80.1715 27.8916 80.6648 27.8769 81.0326 28.1173C81.5902 28.4798 81.7419 29.022 81.488 29.744C81.4831 29.7567 81.4768 29.7572 81.469 29.7455C81.468 29.7426 81.4661 29.7396 81.4632 29.7367C81.4583 29.7289 81.4539 29.7284 81.45 29.7353C81.2496 30.0381 81.0025 30.2511 80.7086 30.3742C80.4878 30.4671 80.2907 30.5775 80.1175 30.7055C79.9726 30.8129 79.8096 30.9028 79.6286 30.9751C79.4437 31.0494 79.2779 31.1397 79.1309 31.2462C78.7602 31.514 78.373 31.7587 77.9692 31.9805C77.9196 32.0078 77.8675 32.0245 77.813 32.0303C77.7731 32.0352 77.7371 32.0484 77.705 32.0699C77.5883 32.1481 77.4681 32.2164 77.3445 32.2751C77.2356 32.3269 77.1324 32.3879 77.0351 32.4583Z" fill="#F7D344"/>
<path d="M18.5646 41.8028L2.71404 38.9963C2.06472 38.8813 1.44551 39.3167 1.33102 39.9687L1.32494 40.0033C1.21044 40.6554 1.64401 41.2772 2.29334 41.3921L18.1439 44.1987C18.7933 44.3136 19.4125 43.8783 19.527 43.2262L19.533 43.1916C19.6475 42.5396 19.214 41.9178 18.5646 41.8028Z" fill="#F7D344"/>
<path d="M91.2874 39.2061L76.6154 41.8039C75.9669 41.9188 75.5339 42.5398 75.6482 43.191L75.6548 43.2285C75.7692 43.8798 76.3876 44.3146 77.0361 44.1998L91.7081 41.6019C92.3567 41.4871 92.7897 40.8661 92.6753 40.2148L92.6688 40.1773C92.5544 39.5261 91.936 39.0912 91.2874 39.2061Z" fill="#F7D344"/>
<path d="M74.6416 52.4998H20.5388C19.8746 52.4998 19.3362 53.0404 19.3362 53.7074V53.7191C19.3362 54.3861 19.8746 54.9267 20.5388 54.9267H74.6416C75.3057 54.9267 75.8442 54.3861 75.8442 53.7191V53.7074C75.8442 53.0404 75.3057 52.4998 74.6416 52.4998Z" fill="#F7D344"/>
<path d="M68.6183 58.5466H26.5621C25.8922 58.5466 25.3492 59.0919 25.3492 59.7645V59.7821C25.3492 60.4547 25.8922 61 26.5621 61H68.6183C69.2881 61 69.8311 60.4547 69.8311 59.7821V59.7645C69.8311 59.0919 69.2881 58.5466 68.6183 58.5466Z" fill="#F7D344"/>
</svg>
