<svg width="23" height="22" viewBox="0 0 23 22" fill="none" xmlns="http://www.w3.org/2000/svg">
<path d="M14.95 9.95002C14.95 10.7855 14.5865 11.5867 13.9395 12.1774C13.2925 12.7681 12.415 13.1 11.5 13.1C10.585 13.1 9.70744 12.7681 9.06044 12.1774C8.41344 11.5867 8.04996 10.7855 8.04996 9.95002C8.04996 9.11459 8.41344 8.31337 9.06044 7.72264C9.70744 7.1319 10.585 6.80002 11.5 6.80002C12.415 6.80002 13.2925 7.1319 13.9395 7.72264C14.5865 8.31337 14.95 9.11459 14.95 9.95002ZM13.8 9.95002C13.8 9.39307 13.5576 8.85892 13.1263 8.4651C12.695 8.07127 12.11 7.85002 11.5 7.85002C10.89 7.85002 10.305 8.07127 9.87362 8.4651C9.44228 8.85892 9.19996 9.39307 9.19996 9.95002C9.19996 10.507 9.44228 11.0411 9.87362 11.4349C10.305 11.8288 10.89 12.05 11.5 12.05C12.11 12.05 12.695 11.8288 13.1263 11.4349C13.5576 11.0411 13.8 10.507 13.8 9.95002ZM17.1925 15.1528C18.7023 13.7735 19.5505 11.9032 19.5505 9.95317C19.5505 8.0031 18.7023 6.13284 17.1925 4.75357C16.4451 4.07073 15.5577 3.52905 14.5809 3.15947C13.6042 2.78989 12.5573 2.59967 11.5 2.59967C10.4427 2.59967 9.39573 2.78989 8.41899 3.15947C7.44224 3.52905 6.55483 4.07073 5.80746 4.75357C4.29762 6.13284 3.44946 8.0031 3.44946 9.95317C3.44946 11.9032 4.29762 13.7735 5.80746 15.1528L7.55661 16.7267L9.90606 18.811L10.059 18.9349C10.9503 19.5943 12.2555 19.5523 13.095 18.811L15.8953 16.3225L17.1925 15.1528ZM6.61821 5.49382C7.25919 4.90832 8.02023 4.44386 8.85786 4.12697C9.69548 3.81009 10.5933 3.64699 11.5 3.64699C12.4066 3.64699 13.3044 3.81009 14.1421 4.12697C14.9797 4.44386 15.7407 4.90832 16.3817 5.49382C17.6406 6.64405 18.3645 8.19371 18.4022 9.81946C18.4399 11.4452 17.7886 13.0215 16.5841 14.2193L16.3817 14.4125L14.8626 15.7817L12.2981 18.0592L12.19 18.1432C11.991 18.2798 11.7487 18.3536 11.4998 18.3534C11.2508 18.3532 11.0087 18.2791 10.81 18.1421L10.703 18.0581L7.27601 15.0079L6.61821 14.4125L6.41581 14.2204C5.21136 13.0225 4.56003 11.4463 4.59774 9.82051C4.63546 8.19476 5.35929 6.64405 6.61821 5.49382Z" fill="#EEEDED"/>
</svg>
