<svg width="237" height="261" viewBox="0 0 237 261" fill="none" xmlns="http://www.w3.org/2000/svg">
<path d="M235.447 126.563L231.768 112.555C231.265 110.542 230.148 110.118 228.419 111.281C225.526 113.168 222.318 113.844 218.796 113.309C217.916 113.183 217.114 113.404 216.39 113.97C216.013 114.284 215.651 114.614 215.306 114.96C215.117 115.18 214.881 115.259 214.598 115.196C214.095 115.102 213.796 114.819 213.702 114.347C213.482 113.058 213.214 113.042 212.9 114.3C212.46 115.998 211.768 117.633 210.824 119.205C210.774 119.281 210.703 119.341 210.619 119.377C210.536 119.413 210.444 119.424 210.354 119.409C210.264 119.394 210.181 119.354 210.114 119.293C210.047 119.231 209.998 119.152 209.975 119.064C209.787 118.246 209.268 117.947 208.419 118.168C207.004 118.513 206.312 117.932 206.343 116.422C206.375 114.787 206.17 113.183 205.73 111.611C205.164 109.725 204.504 109.693 203.749 111.517C200.164 120.133 197.979 129.189 197.192 138.685C197.067 139.943 196.39 140.446 195.164 140.195C192.302 139.597 190.51 140.729 189.787 143.591C188.372 149.125 186.705 154.219 184.787 158.873C183.843 161.169 182.098 162.631 179.551 163.26C178.081 163.597 176.757 164.408 175.777 165.571C164.834 178.212 153.67 190.743 142.287 203.164C139.708 205.962 137.365 208.934 135.258 212.078C133.089 215.317 130.416 218.069 127.24 220.333C123.057 223.32 118.969 226.842 114.975 230.898C110.636 235.332 106.139 239.608 101.485 243.728C100.838 244.282 100.036 244.642 99.1735 244.765C97.3811 245.017 96.4062 246.007 96.249 247.737C96.1575 248.619 95.7376 249.442 95.0697 250.048C91.9251 253.004 89.4565 256.384 87.6641 260.189" stroke="#FC9E42" stroke-width="2"/>
<path d="M235.447 126.563L231.768 112.555C231.265 110.542 230.148 110.118 228.419 111.281C225.526 113.168 222.318 113.844 218.796 113.309C217.916 113.183 217.114 113.404 216.391 113.97C216.013 114.284 215.652 114.614 215.306 114.96C215.117 115.18 214.881 115.259 214.598 115.196C214.095 115.102 213.796 114.819 213.702 114.347C213.482 113.058 213.214 113.042 212.9 114.3C212.46 115.998 211.768 117.633 210.825 119.205C210.774 119.281 210.703 119.341 210.62 119.377C210.536 119.413 210.444 119.424 210.354 119.409C210.264 119.394 210.181 119.354 210.114 119.293C210.047 119.231 209.999 119.152 209.975 119.064C209.787 118.246 209.268 117.948 208.419 118.168C207.004 118.514 206.312 117.932 206.343 116.422C206.375 114.787 206.17 113.184 205.73 111.611C205.164 109.725 204.504 109.693 203.749 111.517C200.164 120.133 197.979 129.189 197.192 138.685C197.067 139.943 196.391 140.446 195.164 140.195C192.303 139.597 190.51 140.729 189.787 143.591C188.372 149.125 186.705 154.219 184.787 158.873C183.843 161.169 182.098 162.631 179.551 163.26C178.081 163.597 176.757 164.408 175.777 165.571C164.834 178.212 153.67 190.743 142.287 203.164C139.708 205.962 137.365 208.934 135.258 212.078C133.089 215.317 130.416 218.069 127.24 220.333C123.057 223.32 118.969 226.842 114.975 230.898C110.636 235.332 106.139 239.609 101.485 243.728C100.838 244.282 100.036 244.642 99.1736 244.766C97.3811 245.017 96.4063 246.007 96.249 247.737C96.1576 248.619 95.7377 249.442 95.0698 250.048C91.9251 253.004 89.4566 256.384 87.6641 260.189C53.1987 257.422 24.5195 243.052 1.6264 217.078C0.789362 216.118 0.247778 214.937 0.0669206 213.676C-0.113937 212.415 0.073652 211.129 0.607069 209.973C1.14049 208.816 1.99697 207.839 3.07333 207.158C4.14969 206.477 5.39999 206.122 6.67357 206.135C67.3339 207.079 110.793 182.677 137.051 132.931C148.309 111.611 153.089 88.1375 151.391 62.5098C150.164 43.737 143.183 26.1907 136.721 8.69147C136.347 7.66632 136.242 6.56395 136.415 5.49016C136.589 4.41636 137.035 3.40725 137.711 2.55974C139.661 0.0755786 142.145 -0.600456 145.164 0.531567C200.258 20.9551 234.504 67.8398 235.447 126.563Z" fill="#FBB336"/>
<path d="M70.73 49.4915L83.0413 55.812C83.5263 56.055 83.9281 56.4366 84.1957 56.9085C84.4633 57.3803 84.5846 57.921 84.5442 58.4619C84.5037 59.0028 84.3034 59.5195 83.9686 59.9463C83.6338 60.3731 83.1797 60.6907 82.664 60.8589C76.8149 62.9028 71.9093 65.8429 67.947 69.6792C63.0885 74.3016 61.0602 81.3297 56.4375 86.4238C54.8967 88.1218 53.7803 87.886 53.0885 85.7163C49.252 73.3584 41.6419 65.2612 30.2583 61.4249C24.6294 59.5382 24.5508 57.4157 30.0225 55.0573C41.7835 50.0261 49.5508 41.819 53.3243 30.4358C53.4447 30.0519 53.674 29.7113 53.9844 29.4553C54.2948 29.1993 54.673 29.0391 55.0728 28.9941C55.4726 28.9491 55.8769 29.0213 56.2365 29.2019C56.596 29.3825 56.8953 29.6637 57.0979 30.0113L65.8715 44.9162C67.0434 46.8588 68.724 48.4413 70.73 49.4915Z" fill="#FBB336"/>
<path d="M97.1924 129.205C94.0477 119.708 86.8622 112.822 75.6358 108.545C71.2018 106.847 71.1075 104.929 75.3528 102.791C80.6358 100.118 85.3528 97.0838 89.5037 93.6877C94.4094 89.6784 96.5792 83.1221 100.07 77.745C101.359 75.7954 102.475 75.9055 103.419 78.0752C108.01 88.9867 115.447 96.8322 125.73 101.612C132.145 104.599 132.035 107.319 125.4 109.772C116.28 113.136 109.645 119.724 105.494 129.535C102.413 136.799 99.6452 136.689 97.1924 129.205Z" fill="#FBB336"/>
<path d="M58.7961 133.12C64.3621 135.415 64.2678 137.444 58.5131 139.204C47.4125 142.632 39.4879 150.76 34.7395 163.59C34.5537 164.074 34.222 164.488 33.7905 164.775C33.359 165.062 32.8489 165.208 32.3308 165.192C31.8128 165.177 31.3124 165.001 30.8988 164.688C30.4853 164.376 30.1791 163.943 30.0225 163.449C26.0917 150.682 17.4596 142.239 4.1263 138.12C3.77716 138.006 3.46888 137.792 3.23925 137.506C3.00962 137.219 2.86862 136.872 2.83357 136.506C2.79851 136.141 2.87091 135.773 3.04189 135.448C3.21287 135.123 3.47499 134.855 3.79611 134.676C14.4093 128.922 23.9376 123.356 28.7489 111.517C31.2018 105.511 33.6232 105.511 36.0131 111.517C39.9125 121.265 47.5068 128.466 58.7961 133.12Z" fill="#FBB336"/>
<path d="M235.447 126.563C233.843 183.51 207.696 224.405 157.004 249.246C137.161 258.963 114.048 262.611 87.6641 260.189C89.4565 256.384 91.9251 253.004 95.0697 250.048C95.7376 249.442 96.1575 248.619 96.249 247.737C96.4062 246.007 97.3811 245.017 99.1735 244.766C100.036 244.642 100.838 244.282 101.485 243.728C106.139 239.608 110.636 235.332 114.975 230.898C118.969 226.842 123.057 223.32 127.24 220.333C130.416 218.069 133.089 215.317 135.258 212.078C137.365 208.934 139.708 205.962 142.287 203.164C153.67 190.743 164.834 178.212 175.777 165.571C176.757 164.408 178.081 163.597 179.551 163.26C182.098 162.631 183.843 161.169 184.787 158.873C186.705 154.219 188.372 149.125 189.787 143.591C190.51 140.729 192.302 139.597 195.164 140.195C196.39 140.446 197.067 139.943 197.192 138.685C197.979 129.189 200.164 120.133 203.749 111.517C204.504 109.693 205.164 109.725 205.73 111.611C206.17 113.183 206.375 114.787 206.343 116.422C206.312 117.932 207.004 118.513 208.419 118.168C209.268 117.947 209.787 118.246 209.975 119.064C209.998 119.152 210.047 119.231 210.114 119.293C210.181 119.354 210.264 119.394 210.354 119.409C210.444 119.424 210.536 119.413 210.619 119.377C210.703 119.341 210.774 119.281 210.824 119.205C211.768 117.633 212.46 115.998 212.9 114.3C213.214 113.042 213.482 113.058 213.702 114.347C213.796 114.819 214.095 115.102 214.598 115.196C214.881 115.259 215.117 115.18 215.306 114.96C215.651 114.614 216.013 114.284 216.39 113.97C217.114 113.404 217.916 113.183 218.796 113.309C222.318 113.844 225.526 113.168 228.419 111.281C230.148 110.118 231.265 110.542 231.768 112.555L235.447 126.563Z" fill="#FBB336"/>
</svg>
