<svg width="494" height="315" viewBox="0 0 494 315" fill="none" xmlns="http://www.w3.org/2000/svg">
<path d="M315.996 156.611C312.819 158.844 313.558 160.668 318.213 162.083C318.433 162.177 318.637 162.287 318.826 162.413C319.423 162.822 319.958 162.743 320.43 162.177C321.027 161.485 321.719 161.375 322.505 161.847C323.857 162.664 324.439 163.828 324.25 165.337C324.03 166.941 323.26 168.214 321.939 169.158C320.996 169.85 320.681 170.777 320.996 171.941C321.971 175.4 320.807 177.805 317.505 179.157C315.87 179.818 315.571 180.871 316.609 182.318C317.521 183.607 317.788 185.022 317.411 186.563C316.813 189.11 314.958 190.085 311.845 189.487C310.997 189.343 310.2 188.98 309.531 188.435C308.862 187.89 308.343 187.18 308.024 186.374C305.382 179.613 302.348 173.764 298.92 168.828C298.254 167.857 297.359 167.065 296.314 166.522C295.269 165.979 294.107 165.702 292.93 165.715C283.275 165.872 273.134 168.828 262.505 174.582C249.549 181.626 238.731 189.314 230.052 197.647C225.461 202.018 220.587 204.911 215.43 206.326C209.643 207.898 203.904 209.864 198.213 212.222C196.64 212.882 195.304 213.857 194.203 215.146C190.571 219.391 185.713 221.75 180.052 221.938C175.43 222.127 172.175 225.193 167.128 225.334C158.496 225.523 151.373 223.212 143.165 225.004C140.304 225.633 137.442 226.246 134.58 226.844C132.599 227.253 131.137 228.369 130.194 230.193L124.109 242.032C123.417 243.384 122.332 244.249 120.854 244.626L100.807 249.626C99.4861 249.94 98.1812 249.877 96.8919 249.437C89.3447 246.89 83.3541 251.418 75.7597 249.201C73.6528 248.572 71.6402 248.777 69.722 249.814C66.8289 251.418 63.9201 251.481 60.9956 250.003C60.6182 249.815 60.2251 249.799 59.8163 249.956C59.3132 250.145 58.9672 250.459 58.7786 250.899C58.0553 252.44 56.9076 252.88 55.3353 252.22C53.4485 251.434 51.7503 249.217 50.2408 245.569" stroke="#EEF4F3" stroke-width="2"/>
<path d="M233.26 105.01C181.562 106.488 147.741 130.984 131.797 178.497C131.506 179.354 130.959 180.099 130.233 180.631C129.507 181.163 128.636 181.456 127.741 181.469L95.1465 181.846C150.43 139.254 166.42 71.7095 135.996 9.30672C135.59 8.46925 135.399 7.54673 135.44 6.62374C135.481 5.70075 135.753 4.80685 136.231 4.02396C138.181 0.722231 140.885 -0.299706 144.345 0.958098C193.936 18.7246 223.574 53.4085 233.26 105.01Z" fill="#FBB336"/>
<path d="M82.4105 61.0025C70.1464 65.0589 63.5426 71.9454 58.0709 85.0108C56.1526 89.5704 54.3759 89.5232 52.7407 84.8693C48.401 72.7944 40.5709 64.7601 29.2502 60.7666C24.5961 59.1315 24.5332 57.3392 29.0615 55.3896C41.4514 49.981 49.5804 41.4279 53.4483 29.7304C54.2345 27.3405 55.2879 27.2304 56.6086 29.4001C65.0049 43.5976 66.3728 48.5502 82.5992 55.4838C83.1538 55.7224 83.625 56.1237 83.9499 56.634C84.2749 57.1442 84.438 57.7392 84.4175 58.3393C84.397 58.9393 84.1939 59.5159 83.8352 59.9919C83.4765 60.4678 82.9794 60.8204 82.4105 61.0025Z" fill="#FBB336"/>
<path d="M116.939 96.7086C120.398 98.6582 123.889 100.466 127.411 102.133C132.253 104.428 132.206 106.614 127.269 108.689C113.448 114.538 110.477 120.198 103.59 132.792C102.206 135.307 100.838 135.292 99.486 132.745C92.1747 119.066 90.854 115.245 76.1371 108.406C71.3257 106.173 71.3729 104.035 76.2786 101.991C87.5993 97.306 95.2723 89.1931 99.2975 77.6528C100.241 74.9171 101.467 74.7912 102.977 77.2754C106.986 84.1147 109.722 92.5578 116.939 96.7086Z" fill="#FBB336"/>
<path d="M233.26 105.01C267.568 107.431 295.146 124.632 315.995 156.611C312.819 158.844 313.558 160.668 318.212 162.083C318.433 162.177 318.637 162.287 318.826 162.413C319.423 162.822 319.958 162.743 320.429 162.177C321.027 161.485 321.719 161.375 322.505 161.847C323.857 162.665 324.439 163.828 324.25 165.337C324.03 166.941 323.26 168.215 321.939 169.158C320.995 169.85 320.681 170.777 320.996 171.941C321.97 175.4 320.807 177.805 317.505 179.157C315.87 179.818 315.571 180.871 316.609 182.318C317.521 183.607 317.788 185.022 317.411 186.563C316.813 189.11 314.958 190.085 311.845 189.487C310.997 189.343 310.2 188.98 309.531 188.435C308.862 187.89 308.343 187.18 308.024 186.374C305.382 179.613 302.348 173.765 298.92 168.828C298.254 167.857 297.359 167.065 296.314 166.522C295.269 165.979 294.107 165.702 292.929 165.715C283.275 165.872 273.134 168.828 262.505 174.582C249.549 181.626 238.731 189.314 230.052 197.647C225.461 202.018 220.587 204.911 215.429 206.326C209.643 207.898 203.904 209.864 198.212 212.222C196.64 212.882 195.304 213.857 194.203 215.146C190.571 219.391 185.712 221.75 180.052 221.938C175.429 222.127 172.175 225.193 167.127 225.335C158.495 225.523 151.373 223.212 143.165 225.004C140.304 225.633 137.442 226.246 134.58 226.844C132.599 227.253 131.137 228.369 130.194 230.193L124.109 242.032C123.417 243.384 122.332 244.249 120.854 244.626L100.807 249.626C99.486 249.94 98.181 249.877 96.8917 249.437C89.3445 246.89 83.3539 251.418 75.7596 249.201C73.6527 248.572 71.6401 248.777 69.7219 249.815C66.8288 251.418 63.9199 251.481 60.9954 250.003C60.6181 249.815 60.225 249.799 59.8162 249.956C59.313 250.145 58.9671 250.459 58.7784 250.899C58.0552 252.44 56.9075 252.88 55.3351 252.22C53.4483 251.434 51.7501 249.217 50.2407 245.57C48.8256 233.872 50.5238 224.564 55.3351 217.646C59.8005 211.231 63.6842 204.392 66.9861 197.128L95.1465 181.846L127.741 181.469C128.636 181.456 129.507 181.163 130.233 180.631C130.959 180.099 131.506 179.354 131.797 178.497C147.741 130.984 181.562 106.488 233.26 105.01Z" fill="#E8EEF0"/>
<path d="M43.1653 122.839C47.4577 128.452 55.0049 130.292 60.7597 135.056C62.3949 136.408 62.1904 137.383 60.1464 137.98C44.0143 142.933 40.6181 151.328 33.3068 164.111C33.1271 164.446 32.8505 164.719 32.5132 164.894C32.1759 165.069 31.7937 165.138 31.4164 165.092C31.0392 165.046 30.6846 164.887 30.3991 164.636C30.1136 164.386 29.9104 164.055 29.8163 163.686C26.2628 150.542 17.4578 141.801 3.40115 137.461C0.822532 136.675 0.775368 135.747 3.25964 134.678C16.2156 129.238 25.0836 120.465 29.8635 108.359C30.8698 105.78 32.0646 105.686 33.4483 108.076C36.6873 113.642 39.9263 118.563 43.1653 122.839Z" fill="#FBB336"/>
<path d="M50.0521 251.324C49.6433 250.098 49.7061 248.179 50.2407 245.569C51.7502 249.217 53.4483 251.434 55.3351 252.22C56.9075 252.88 58.0552 252.44 58.7784 250.899C58.9671 250.459 59.313 250.145 59.8162 249.956C60.225 249.799 60.6181 249.815 60.9954 250.003C63.92 251.481 66.8288 251.418 69.7219 249.815C71.6401 248.777 73.6527 248.572 75.7596 249.201C83.3539 251.418 89.3446 246.89 96.8917 249.437C98.181 249.877 99.486 249.94 100.807 249.626L120.854 244.626C122.332 244.249 123.417 243.384 124.109 242.032L130.194 230.193C131.137 228.369 132.599 227.253 134.58 226.844C137.442 226.246 140.304 225.633 143.165 225.004C151.373 223.212 158.495 225.523 167.128 225.335C172.175 225.193 175.429 222.127 180.052 221.938C185.713 221.75 190.571 219.391 194.203 215.146C195.304 213.857 196.64 212.882 198.212 212.222C203.904 209.864 209.643 207.898 215.429 206.326C220.587 204.911 225.461 202.018 230.052 197.647C238.731 189.314 249.549 181.626 262.505 174.582C273.134 168.828 283.275 165.872 292.929 165.715C294.107 165.702 295.269 165.979 296.314 166.522C297.359 167.065 298.254 167.857 298.92 168.828C302.348 173.765 305.382 179.613 308.024 186.374C308.343 187.18 308.862 187.89 309.531 188.435C310.2 188.98 310.997 189.343 311.845 189.487C314.958 190.085 316.813 189.11 317.411 186.563C317.788 185.022 317.521 183.607 316.609 182.318C315.571 180.871 315.87 179.818 317.505 179.157C320.807 177.805 321.97 175.4 320.996 171.941C320.681 170.777 320.995 169.85 321.939 169.158C323.26 168.215 324.03 166.941 324.25 165.337C324.439 163.828 323.857 162.665 322.505 161.847C321.719 161.375 321.027 161.485 320.429 162.177C319.958 162.743 319.423 162.822 318.826 162.413C318.637 162.287 318.433 162.177 318.212 162.083C313.558 160.668 312.819 158.844 315.995 156.611C347.599 144.253 376.247 148.844 401.939 170.384C405.744 173.529 409.675 176.563 413.731 179.488C415.052 180.431 416.499 180.793 418.071 180.572C449.297 176.422 472.694 187.821 488.26 214.769C495.854 227.834 495.052 252.079 489.675 266.134C479.549 292.58 458.731 306.117 427.222 306.746C417.599 306.935 408.889 304.34 401.09 298.963C400.194 298.349 399.109 298.073 398.029 298.186C396.949 298.298 395.944 298.791 395.194 299.576C376.043 319.858 334.58 315.755 314.109 305.708C306.216 301.809 298.338 296.149 290.477 288.728C288.904 287.218 287.206 287.061 285.382 288.256C245.602 314.324 205.492 313.208 165.052 284.907C163.385 283.744 161.829 283.87 160.382 285.285C136.357 308.46 109.423 312.579 79.5803 297.642C63.4954 289.577 54.2503 267.974 50.0521 251.324Z" fill="#E8EEF0"/>
<path d="M66.9861 197.128C63.6842 204.392 59.8006 211.231 55.3352 217.646C50.5238 224.564 48.8256 233.872 50.2407 245.569C49.7061 248.179 49.6434 250.098 50.0522 251.324C31.939 243.683 17.7722 234.579 7.55211 224.014C-4.71204 211.373 -2.03902 205.351 15.571 205.948C29.5647 206.389 46.7031 203.449 66.9861 197.128Z" fill="#FBB336"/>
</svg>
