<svg width="659" height="625" viewBox="0 0 659 625" fill="none" xmlns="http://www.w3.org/2000/svg">
<path d="M179.621 236.631C162.028 237.214 147.565 241.481 136.232 249.432C122.761 258.879 113.546 273.051 108.589 291.946" stroke="#858786" stroke-width="2"/>
<path d="M127.309 357.057C132.85 359.623 137.486 363.735 143.085 366.359C173.935 380.958 202.161 376.098 227.763 351.78C228.644 350.939 229.798 350.447 231.011 350.393C232.223 350.339 233.411 350.729 234.353 351.488C260.713 372.58 291.651 379.267 327.167 371.549C337.14 369.392 349.348 363.57 363.791 354.083C364.802 353.422 365.745 353.51 366.62 354.346C383.386 370.208 401.378 379.626 424.355 382.222C445 384.554 468.182 381.463 482.557 365.922C482.929 365.519 483.428 365.259 483.971 365.184C484.514 365.11 485.065 365.226 485.531 365.513C498.264 373.347 511.668 376.341 525.742 374.494C561.452 369.848 582.175 350.312 587.91 315.885C591.059 297.029 587.676 281.011 577.762 267.831C559.217 243.143 535.024 233.404 505.185 238.614C504.245 238.775 503.282 238.698 502.385 238.393C501.488 238.087 500.686 237.561 500.053 236.865C487.845 223.49 473.148 214.257 455.964 209.164" stroke="#7E8183" stroke-width="2"/>
<path d="M455.964 209.164C445.272 205.315 433.997 204.469 422.139 206.627C413.78 208.143 405.625 209.999 397.674 212.196C397.223 212.316 396.745 212.29 396.306 212.123C395.867 211.956 395.489 211.655 395.225 211.263C376.301 182.483 349.591 162.568 314.92 157.698C311.13 157.154 301.77 157.076 286.84 157.465" stroke="#858786" stroke-width="2"/>
<path d="M286.84 157.465C281.572 158.923 276.07 160.497 270.336 162.189C238.027 171.636 215.283 191.104 202.103 220.594C199.673 225.978 197.583 231.392 195.834 236.835C195.626 237.463 195.29 238.039 194.845 238.528C194.401 239.018 193.859 239.408 193.255 239.675C192.65 239.941 191.996 240.078 191.336 240.076C190.675 240.074 190.022 239.934 189.419 239.664C184.987 237.642 181.721 236.631 179.621 236.631" stroke="#F9DF96" stroke-width="2"/>
<path d="M455.964 209.164C454.389 214.373 453.884 219 454.448 223.043C455.886 233.268 455.906 241.763 454.506 248.528C453.301 254.457 451.814 260.085 450.045 265.411C449.753 266.305 449.141 266.879 448.208 267.131C447.294 267.384 446.691 267.967 446.4 268.881C442.376 281.575 438.002 294.142 433.278 306.583C432.461 308.799 432.52 311.424 431.82 313.815C431.839 313.834 431.839 313.844 431.82 313.844C431.645 313.863 431.587 313.795 431.645 313.64C432.073 312.124 432.306 310.627 432.345 309.149C432.384 306.856 432.044 306.797 431.324 308.974C429.866 313.426 428.506 318.082 427.242 322.942C426.134 327.16 424.501 331.135 422.343 334.867C420.127 338.697 418.067 342.556 416.161 346.444C415.675 347.416 414.956 348.154 414.004 348.66C407.161 352.217 401.523 351.128 397.091 345.394C393.84 341.156 391.221 336.928 389.306 332.826C387.342 328.589 385.826 324.176 384.757 319.588C383.629 314.709 382.035 310.287 379.975 306.321C376.903 300.431 374.104 294.58 371.577 288.767C371.363 288.262 370.994 288.067 370.469 288.184C370.119 288.262 369.876 288.165 369.74 287.893C366.221 281.186 362.022 274.927 357.143 269.114C356.443 268.278 356.638 267.86 357.726 267.86H359.447C360.671 267.86 361.041 267.306 360.555 266.198C359.544 263.905 358.057 262.242 356.093 261.212C355.437 260.857 354.663 260.774 353.935 260.979C340.833 264.692 328.489 269.62 316.903 275.762C316.145 276.171 315.494 276.705 314.95 277.366C314.366 278.124 313.667 278.756 312.85 279.261C302.878 285.385 291.719 291.362 279.375 297.194C266.642 303.201 253.977 306.554 241.381 307.254C238.319 307.429 235.316 306.175 232.254 305.942C230.699 305.825 230.592 306.175 231.933 306.992C234.752 308.702 237.444 310.044 240.01 311.016C240.127 311.054 240.166 311.142 240.127 311.278C240.049 311.608 239.845 311.735 239.514 311.657C237.046 311.093 234.548 310.578 232.02 310.112C229.61 309.684 227.248 308.887 224.935 307.721C220.211 305.349 215.468 303.094 210.705 300.956C210.219 300.742 209.714 300.654 209.189 300.693C208.742 300.732 208.295 300.761 207.847 300.781C206.701 300.859 205.622 300.625 204.611 300.081C202.317 298.856 200.363 299.342 198.75 301.539C195.892 305.446 196.534 311.22 195.98 315.885C195.707 318.082 194.784 320.113 193.209 321.979C190.643 325.012 188.175 328.054 185.803 331.106C181.196 337.035 175.17 339.582 167.724 338.746C155.166 337.327 142.268 336.841 129.03 337.288C124.753 337.443 120.408 337.025 115.996 336.034" stroke="#F0F5F5" stroke-width="2"/>
<path d="M115.996 336.034C110.825 325.887 107.996 315.205 107.51 303.988C107.413 301.442 107.773 297.428 108.589 291.946" stroke="#F9DF96" stroke-width="2"/>
<path d="M127.309 357.057L115.996 336.034" stroke="#F2D993" stroke-width="2"/>
<path d="M286.84 157.465C281.572 158.923 276.07 160.497 270.336 162.189C238.027 171.636 215.283 191.105 202.103 220.594C199.673 225.979 197.583 231.392 195.834 236.835C195.626 237.463 195.29 238.039 194.845 238.529C194.401 239.018 193.859 239.408 193.255 239.675C192.65 239.941 191.996 240.078 191.336 240.076C190.675 240.074 190.022 239.934 189.419 239.664C184.987 237.642 181.721 236.631 179.621 236.631C185.22 231.013 190.206 222.829 194.58 212.079C211.395 170.616 210.015 129.725 190.439 89.4081C188.981 86.395 189.079 83.3722 190.731 80.3397C191.521 78.88 192.805 77.7509 194.351 77.1571C195.897 76.5633 197.603 76.5441 199.158 77.103C228.667 87.6586 252.306 105.232 270.073 129.822C275.614 137.491 280.862 148.455 286.84 157.465Z" fill="#FBC334"/>
<path d="M133.316 137.783C135.63 138.93 135.659 140.145 133.404 141.428C126.231 145.451 117.104 149.096 112.38 156.065C109.172 160.808 106.636 165.571 104.769 170.353C103.72 172.997 102.475 173.094 101.037 170.645C96.5756 163.063 92.9598 152.8 84.8536 148.571C80.3047 146.2 75.7364 143.673 71.1487 140.99C69.7296 140.174 69.7393 139.386 71.1778 138.628C78.6426 134.575 89.14 130.056 93.3972 122.883C96.1965 118.178 98.8403 113.289 101.329 108.216C101.425 108.01 101.577 107.836 101.767 107.712C101.957 107.588 102.177 107.519 102.404 107.513C102.631 107.507 102.855 107.564 103.051 107.678C103.247 107.791 103.408 107.957 103.516 108.157C105.829 112.453 108.307 116.886 110.951 121.454C115.996 130.201 124.86 133.613 133.316 137.783Z" fill="#F8AC39"/>
<path d="M286.84 157.465C301.77 157.076 311.13 157.154 314.92 157.698C349.591 162.568 376.301 182.483 395.225 211.263C395.489 211.655 395.867 211.956 396.306 212.123C396.745 212.29 397.223 212.316 397.674 212.196C405.625 209.999 413.78 208.143 422.139 206.627C433.997 204.469 445.272 205.315 455.964 209.164C454.389 214.373 453.884 219 454.448 223.043C455.886 233.268 455.906 241.763 454.506 248.528C453.301 254.457 451.814 260.085 450.045 265.411C449.753 266.305 449.141 266.879 448.208 267.131C447.294 267.384 446.691 267.967 446.4 268.881C442.376 281.575 438.002 294.142 433.278 306.583C432.461 308.799 432.52 311.424 431.82 313.815C431.839 313.834 431.839 313.844 431.82 313.844C431.645 313.863 431.587 313.795 431.645 313.64C432.073 312.124 432.306 310.627 432.345 309.149C432.384 306.856 432.044 306.797 431.324 308.974C429.866 313.426 428.506 318.082 427.242 322.942C426.134 327.16 424.501 331.135 422.343 334.868C420.127 338.697 418.067 342.556 416.161 346.444C415.675 347.416 414.956 348.154 414.004 348.66C407.161 352.217 401.523 351.128 397.091 345.394C393.84 341.156 391.221 336.928 389.306 332.826C387.342 328.589 385.826 324.176 384.757 319.588C383.629 314.709 382.035 310.287 379.975 306.321C376.903 300.431 374.104 294.58 371.577 288.767C371.363 288.262 370.994 288.068 370.469 288.184C370.119 288.262 369.876 288.165 369.74 287.893C366.221 281.186 362.022 274.927 357.143 269.114C356.443 268.278 356.638 267.86 357.726 267.86H359.447C360.671 267.86 361.041 267.306 360.555 266.198C359.544 263.905 358.057 262.242 356.093 261.212C355.437 260.857 354.663 260.774 353.936 260.979C340.833 264.692 328.489 269.62 316.903 275.762C316.145 276.171 315.494 276.705 314.95 277.366C314.366 278.124 313.667 278.756 312.85 279.262C302.878 285.385 291.719 291.362 279.375 297.194C266.642 303.201 253.977 306.554 241.381 307.254C238.319 307.429 235.316 306.175 232.254 305.942C230.699 305.825 230.592 306.175 231.933 306.992C234.752 308.702 237.444 310.044 240.01 311.016C240.127 311.054 240.166 311.142 240.127 311.278C240.049 311.608 239.845 311.735 239.514 311.657C237.046 311.093 234.548 310.578 232.021 310.112C229.61 309.684 227.248 308.887 224.935 307.721C220.211 305.349 215.468 303.094 210.705 300.956C210.219 300.742 209.714 300.654 209.189 300.693C208.742 300.732 208.295 300.761 207.847 300.781C206.701 300.859 205.622 300.625 204.611 300.081C202.317 298.856 200.363 299.342 198.75 301.539C195.892 305.446 196.534 311.22 195.98 315.885C195.707 318.082 194.784 320.113 193.209 321.979C190.643 325.012 188.175 328.054 185.803 331.106C181.196 337.035 175.17 339.582 167.724 338.746C155.166 337.327 142.268 336.841 129.03 337.288C124.753 337.443 120.408 337.025 115.996 336.034C110.825 325.887 107.996 315.205 107.51 303.988C107.413 301.442 107.773 297.428 108.589 291.946C113.546 273.051 122.761 258.879 136.232 249.432C147.565 241.481 162.028 237.214 179.621 236.631C181.721 236.631 184.987 237.642 189.419 239.664C190.022 239.934 190.675 240.074 191.336 240.076C191.996 240.078 192.65 239.941 193.255 239.675C193.859 239.408 194.401 239.018 194.845 238.529C195.29 238.039 195.626 237.463 195.834 236.835C197.583 231.392 199.673 225.979 202.103 220.594C215.283 191.105 238.027 171.636 270.336 162.189C276.07 160.497 281.572 158.923 286.84 157.465Z" fill="#E8EEF2"/>
<path d="M172.71 183.708C177.007 185.613 180.953 187.965 184.549 190.764C185.404 191.425 185.327 191.97 184.316 192.397C175.393 196.042 164.604 201.291 160.085 210.651C157.927 215.102 155.545 219.35 152.94 223.393C152.859 223.511 152.75 223.606 152.622 223.669C152.494 223.733 152.353 223.764 152.21 223.758C152.067 223.752 151.929 223.71 151.806 223.636C151.684 223.562 151.583 223.458 151.512 223.335C148.868 218.572 146.156 213.712 143.376 208.755C138.682 200.387 128.738 195.867 120.253 192.514C118.95 192.008 118.882 191.357 120.049 190.56C124.675 187.43 129.632 184.563 134.92 181.958C142.764 178.109 147.517 166.329 151.22 158.981C151.31 158.809 151.445 158.665 151.61 158.563C151.775 158.461 151.965 158.406 152.159 158.403C152.353 158.4 152.544 158.45 152.713 158.546C152.881 158.643 153.02 158.783 153.115 158.952C158.277 168.574 161.747 178.838 172.71 183.708Z" fill="#F8AC39"/>
<path d="M67.3288 239.751C63.1007 232.432 52.1951 228.525 45.0219 224.705C43.7778 224.044 43.7875 223.393 45.0511 222.752C52.5742 218.873 62.6341 214.616 67.3871 207.385C70.9445 202 74.0451 196.616 76.6889 191.231C76.7356 191.124 76.8116 191.033 76.9081 190.968C77.0045 190.904 77.1175 190.868 77.2337 190.864C77.3499 190.861 77.4646 190.891 77.5644 190.951C77.6641 191.011 77.7448 191.098 77.797 191.202C80.5574 196.159 83.3664 201.252 86.224 206.481C90.5687 214.441 101.766 218.203 109.347 222.81C109.604 222.971 109.812 223.2 109.946 223.473C110.08 223.745 110.135 224.048 110.104 224.348C110.074 224.647 109.959 224.93 109.773 225.164C109.588 225.397 109.339 225.572 109.056 225.667C102.952 227.786 97.5475 230.615 92.8432 234.153C86.1365 239.197 82.5208 248.236 78.2052 255.555C77.5637 256.644 76.9319 256.644 76.3099 255.555C73.4328 250.482 70.4391 245.214 67.3288 239.751Z" fill="#F8AC39"/>
<path d="M455.964 209.164C473.148 214.257 487.845 223.49 500.053 236.865C500.686 237.561 501.488 238.087 502.385 238.393C503.282 238.698 504.245 238.775 505.185 238.614C535.024 233.404 559.217 243.143 577.762 267.831C587.676 281.011 591.059 297.029 587.91 315.885C582.175 350.312 561.452 369.848 525.742 374.494C511.668 376.341 498.264 373.347 485.531 365.513C485.065 365.226 484.514 365.11 483.971 365.184C483.428 365.259 482.929 365.519 482.557 365.922C468.182 381.463 445 384.554 424.355 382.222C401.378 379.626 383.386 370.208 366.62 354.346C365.745 353.51 364.802 353.422 363.791 354.083C349.348 363.57 337.14 369.392 327.167 371.549C291.651 379.267 260.713 372.58 234.353 351.488C233.411 350.729 232.223 350.339 231.011 350.393C229.798 350.447 228.644 350.939 227.763 351.78C202.161 376.098 173.935 380.958 143.085 366.359C137.486 363.735 132.85 359.623 127.309 357.057L115.996 336.034C120.408 337.025 124.753 337.443 129.03 337.288C142.268 336.841 155.166 337.327 167.724 338.746C175.17 339.581 181.196 337.035 185.803 331.106C188.175 328.054 190.643 325.012 193.209 321.979C194.784 320.113 195.707 318.082 195.98 315.885C196.534 311.22 195.892 305.446 198.75 301.539C200.363 299.342 202.317 298.856 204.611 300.081C205.622 300.625 206.701 300.859 207.847 300.781C208.295 300.761 208.742 300.732 209.189 300.693C209.714 300.654 210.219 300.742 210.705 300.956C215.468 303.094 220.211 305.349 224.935 307.721C227.248 308.887 229.61 309.684 232.02 310.112C234.548 310.578 237.046 311.093 239.514 311.657C239.845 311.735 240.049 311.608 240.127 311.278C240.166 311.142 240.127 311.054 240.01 311.016C237.444 310.044 234.752 308.702 231.933 306.992C230.592 306.175 230.699 305.825 232.254 305.942C235.315 306.175 238.319 307.429 241.381 307.254C253.977 306.554 266.642 303.201 279.375 297.194C291.719 291.362 302.878 285.385 312.85 279.261C313.667 278.756 314.366 278.124 314.95 277.366C315.494 276.705 316.145 276.171 316.903 275.762C328.489 269.62 340.833 264.692 353.935 260.979C354.663 260.774 355.437 260.857 356.093 261.212C358.057 262.242 359.544 263.905 360.555 266.198C361.041 267.306 360.671 267.86 359.447 267.86H357.726C356.638 267.86 356.443 268.278 357.143 269.114C362.022 274.927 366.221 281.186 369.74 287.893C369.876 288.165 370.119 288.262 370.469 288.184C370.994 288.067 371.363 288.262 371.577 288.767C374.104 294.58 376.903 300.431 379.975 306.321C382.035 310.287 383.629 314.709 384.757 319.588C385.826 324.176 387.342 328.589 389.306 332.826C391.221 336.928 393.84 341.156 397.091 345.394C401.523 351.128 407.161 352.217 414.004 348.66C414.956 348.154 415.675 347.416 416.161 346.444C418.066 342.556 420.127 338.697 422.343 334.867C424.501 331.135 426.134 327.16 427.242 322.942C428.506 318.082 429.866 313.426 431.324 308.974C432.043 306.797 432.384 306.856 432.345 309.149C432.306 310.627 432.073 312.124 431.645 313.64C431.587 313.795 431.645 313.863 431.82 313.844C431.839 313.844 431.839 313.834 431.82 313.815C432.52 311.424 432.461 308.799 433.278 306.583C438.002 294.142 442.376 281.575 446.4 268.881C446.691 267.967 447.294 267.384 448.207 267.131C449.141 266.879 449.753 266.305 450.044 265.411C451.813 260.085 453.301 254.457 454.506 248.528C455.906 241.763 455.886 233.268 454.448 223.043C453.884 219 454.389 214.373 455.964 209.164Z" fill="#E8EEF2"/>
<path d="M108.589 291.946C107.773 297.428 107.413 301.442 107.51 303.988C107.996 315.205 110.825 325.887 115.996 336.034L127.309 357.057C99.9386 352.567 75.4254 340.738 53.7697 321.571C49.5125 317.81 42.4559 312.153 43.2141 305.971C43.7001 301.889 46.2855 299.702 50.9704 299.41C58.5907 298.905 66.629 298.73 75.0852 298.885C82.1028 299.022 93.2709 296.708 108.589 291.946Z" fill="#FBC334"/>
<path d="M279.434 386.45C288.648 398.317 296.463 414.209 297.804 429.663C299.408 447.771 279.9 461.096 263.804 451.824C252.354 445.214 248.836 434.863 253.248 420.77C256.427 410.593 263.425 390.707 272.027 385.196C273.199 384.44 274.611 384.15 275.982 384.382C277.353 384.614 278.585 385.352 279.434 386.45Z" fill="#1E99CA"/>
<path d="M348.949 384.438C358.572 388.753 368.69 415.492 370.935 425.435C375.513 445.555 351.661 463.371 334.399 450.395C322.414 441.356 323.522 427.126 328.13 414.442C331.25 405.84 338.16 388.666 346.617 384.496C346.98 384.313 347.378 384.213 347.782 384.203C348.186 384.193 348.584 384.273 348.949 384.438Z" fill="#1E99CA"/>
<path d="M424.064 385.662C432.374 393.04 437.564 405.607 441.297 415.667C443.163 420.76 444.115 426.184 444.154 431.938C444.242 446.08 431.266 455.615 418.203 454.39C404.498 453.107 395.079 438.382 398.316 425.173C402.204 409.466 408.23 396.509 416.395 386.304C416.845 385.742 417.405 385.279 418.041 384.94C418.676 384.602 419.374 384.397 420.091 384.337C420.809 384.277 421.531 384.363 422.214 384.591C422.897 384.819 423.526 385.184 424.064 385.662Z" fill="#1E99CA"/>
<path d="M317.807 455.031C326.467 464.625 331.191 476.288 335.594 488.389C340.464 501.627 336.848 515.011 323.814 521.747C317.03 525.246 310.158 525.042 303.198 521.134C289.377 513.378 289.289 498.303 293.984 485.298C297.804 474.772 302.411 461.65 311.217 454.536C313.569 452.611 315.766 452.776 317.807 455.031Z" fill="#1E99CA"/>
<path d="M364.783 488.506C369.273 476.026 373.676 462.846 383.94 453.923C384.294 453.614 384.705 453.379 385.152 453.232C385.598 453.085 386.07 453.029 386.54 453.067C387.01 453.105 387.468 453.236 387.888 453.454C388.308 453.671 388.681 453.969 388.985 454.332C402.894 470.952 423.131 509.413 394.146 522.301C388.82 524.672 383.377 524.721 377.817 522.447C363.558 516.615 359.738 502.444 364.783 488.506Z" fill="#1E99CA"/>
</svg>
