<svg width="220" height="216" viewBox="0 0 220 216" fill="none" xmlns="http://www.w3.org/2000/svg">
<g id="sunny">
<path id="Vector" d="M107.083 0.0130683L106.468 0.0141414C102.33 0.0213654 98.9812 3.3826 98.9884 7.52166L99.0324 32.7035C99.0396 36.8426 102.4 40.1921 106.538 40.1849L107.153 40.1838C111.291 40.1766 114.64 36.8154 114.632 32.6763L114.589 7.49443C114.581 3.35536 111.221 0.00584423 107.083 0.0130683Z" fill="#F7D344"/>
<path id="Vector_2" d="M174.141 25.8754L156.424 43.5348C153.447 46.5017 153.439 51.3205 156.405 54.2978L156.704 54.5978C159.67 57.5751 164.488 57.5836 167.464 54.6166L185.181 36.9572C188.158 33.9902 188.166 29.1715 185.2 26.1942L184.901 25.8942C181.935 22.9168 177.117 22.9084 174.141 25.8754Z" fill="#F7D344"/>
<path id="Vector_3" d="M30.3314 31.9928L30.032 32.2923C27.0632 35.2618 27.0632 40.0762 30.032 43.0457L47.7376 60.7554C50.7063 63.7248 55.5196 63.7248 58.4884 60.7554L58.7878 60.4558C61.7566 57.4864 61.7566 52.672 58.7878 49.7025L41.0823 31.9928C38.1135 29.0234 33.3002 29.0234 30.3314 31.9928Z" fill="#F7D344"/>
<path id="Vector_4" d="M110.861 167.242C143.988 167.242 170.843 140.38 170.843 107.245C170.843 74.1099 143.988 47.2485 110.861 47.2485C77.7333 47.2485 50.8781 74.1099 50.8781 107.245C50.8781 140.38 77.7333 167.242 110.861 167.242Z" fill="#F7D344"/>
<path id="Vector_5" d="M212.412 91.7874L187.277 91.9191C183.131 91.9408 179.788 95.3198 179.81 99.4664L179.813 100.095C179.835 104.241 183.213 107.585 187.359 107.564L212.494 107.432C216.639 107.41 219.982 104.031 219.961 99.8846L219.957 99.2561C219.936 95.1096 216.557 91.7657 212.412 91.7874Z" fill="#F7D344"/>
<path id="Vector_6" d="M32.7302 97.1273H7.45857C3.33932 97.1273 0 100.467 0 104.588V105.202C0 109.323 3.33932 112.663 7.45857 112.663H32.7302C36.8495 112.663 40.1888 109.323 40.1888 105.202V104.588C40.1888 100.467 36.8495 97.1273 32.7302 97.1273Z" fill="#F7D344"/>
<path id="Vector_7" d="M45.861 152.973L28.1245 170.651C25.1506 173.616 25.1422 178.43 28.1058 181.405L28.424 181.724C31.3876 184.699 36.2009 184.707 39.1748 181.743L56.9113 164.064C59.8852 161.1 59.8936 156.285 56.93 153.311L56.6118 152.991C53.6482 150.017 48.8349 150.008 45.861 152.973Z" fill="#F7D344"/>
<path id="Vector_8" d="M159.003 155.206L158.694 155.515C155.728 158.482 155.728 163.292 158.694 166.259L176.409 183.978C179.375 186.945 184.184 186.945 187.151 183.978L187.46 183.669C190.426 180.702 190.426 175.892 187.46 172.925L169.744 155.206C166.778 152.239 161.969 152.239 159.003 155.206Z" fill="#F7D344"/>
<path id="Vector_9" d="M107.146 175.802L106.545 175.801C102.403 175.794 99.0395 179.147 99.0323 183.29L98.9884 208.471C98.9812 212.614 102.333 215.979 106.475 215.986L107.076 215.987C111.218 215.994 114.581 212.642 114.588 208.499L114.632 183.317C114.64 179.174 111.288 175.81 107.146 175.802Z" fill="#F7D344"/>
</g>
</svg>
