<svg width="413" height="426" viewBox="0 0 413 426" fill="none" xmlns="http://www.w3.org/2000/svg">
<path d="M169.508 12.4123C169.498 10.9691 169.204 9.54203 168.642 8.21255C168.081 6.88307 167.263 5.67721 166.235 4.66384C165.208 3.65048 163.99 2.84943 162.653 2.30645C161.316 1.76348 159.885 1.48921 158.442 1.49929L157.522 1.5057C156.079 1.51578 154.652 1.81001 153.322 2.37161C151.993 2.9332 150.787 3.75115 149.773 4.77877C148.76 5.80639 147.959 7.02355 147.416 8.36074C146.873 9.69794 146.599 11.129 146.609 12.5722L146.866 49.3713C146.876 50.8145 147.17 52.2416 147.732 53.5711C148.293 54.9005 149.111 56.1063 150.139 57.1197C151.166 58.1331 152.384 58.9342 153.721 59.4771C155.058 60.0201 156.489 60.2943 157.932 60.2843L158.852 60.2779C160.295 60.2678 161.723 59.9735 163.052 59.4119C164.382 58.8504 165.587 58.0324 166.601 57.0048C167.614 55.9772 168.415 54.76 168.958 53.4228C169.501 52.0856 169.775 50.6546 169.765 49.2114L169.508 12.4123Z" stroke="#81822E" stroke-width="2"/>
<path d="M265.876 44.2484C263.795 42.1668 260.971 40.9973 258.027 40.9973C255.083 40.9973 252.26 42.1668 250.179 44.2484L224.214 70.2134C222.132 72.295 220.962 75.1184 220.962 78.0623C220.962 81.0061 222.132 83.8294 224.214 85.9111L224.638 86.3354C226.719 88.417 229.543 89.5865 232.487 89.5865C235.431 89.5865 238.254 88.417 240.336 86.3354L266.301 60.3704C268.382 58.2887 269.552 55.4654 269.552 52.5215C269.552 49.5777 268.382 46.7543 266.301 44.6727L265.876 44.2484Z" stroke="#81822E" stroke-width="2"/>
<path d="M87.9264 89.9201C90.01 87.8292 91.1778 84.9962 91.1726 82.0444C91.1675 79.0926 89.99 76.2637 87.8991 74.1801L61.9455 48.3169C60.9101 47.2851 59.6817 46.4675 58.3304 45.9105C56.9791 45.3535 55.5313 45.0681 54.0697 45.0707C52.608 45.0732 51.1612 45.3637 49.8118 45.9254C48.4625 46.4871 47.2369 47.309 46.2052 48.3443L45.7677 48.7835C43.684 50.8744 42.5164 53.7074 42.5215 56.6593C42.5266 59.6111 43.7042 62.44 45.7951 64.5236L71.7486 90.3869C72.7839 91.4186 74.0123 92.2363 75.3637 92.7932C76.715 93.3502 78.1628 93.6356 79.6244 93.633C81.086 93.6305 82.5328 93.34 83.8822 92.7783C85.2316 92.2166 86.4571 91.3947 87.4888 90.3593L87.9264 89.9201Z" stroke="#81822E" stroke-width="2"/>
<path d="M130.737 76.9218C79.487 94.8718 58.837 157.342 90.197 202.342C90.2766 202.457 90.3931 202.541 90.5264 202.579C90.6597 202.617 90.8014 202.608 90.927 202.552C104.527 196.485 118.464 194.972 132.737 198.012C133.21 198.112 133.51 197.928 133.637 197.462C134.517 194.235 135.624 190.968 136.957 187.662C153.057 147.842 191.627 122.822 234.747 124.852C234.81 124.855 234.874 124.842 234.931 124.814C234.988 124.786 235.037 124.744 235.074 124.692C235.11 124.641 235.134 124.581 235.141 124.518C235.149 124.455 235.14 124.391 235.117 124.332C218.737 83.0518 172.437 62.3218 130.737 76.9218Z" stroke="#81822E" stroke-width="2"/>
<path d="M305.407 158.302C317.537 152.032 313.277 136.052 299.687 136.152C292.52 136.199 285.374 136.208 278.247 136.182C276.94 136.175 276.857 136.488 277.997 137.122C288.057 142.695 296.8 149.682 304.227 158.082C304.37 158.245 304.563 158.355 304.777 158.395C304.991 158.434 305.213 158.402 305.407 158.302Z" stroke="#81822E" stroke-width="2"/>
<path d="M143.627 217.162C129.317 209.342 112.907 208.652 98.377 214.852C68.647 227.542 57.727 264.042 75.767 291.122C81.457 299.662 90.047 306.812 99.847 310.452C102.174 311.319 104.467 312.235 106.727 313.202C108.477 313.962 110.457 314.072 112.317 314.072C189.244 314.039 265.33 314.055 340.577 314.122C348.404 314.129 354.62 313.645 359.227 312.672C408.797 302.162 429.067 241.872 395.387 203.702C373.537 178.942 337.497 174.062 309.477 191.832C309.422 191.866 309.361 191.888 309.297 191.896C309.233 191.905 309.168 191.899 309.106 191.88C309.045 191.861 308.988 191.829 308.94 191.786C308.891 191.744 308.853 191.691 308.827 191.632C301.234 174.065 289.444 160.505 273.457 150.952C239.067 130.412 194.437 136.642 167.067 166.172C153.894 180.385 146.344 197.242 144.417 216.742C144.364 217.275 144.1 217.415 143.627 217.162Z" stroke="#7994A8" stroke-width="2"/>
<path d="M60.667 154.582C60.667 151.68 59.5144 148.898 57.4628 146.846C55.4111 144.794 52.6285 143.642 49.7271 143.642H12.767C9.86556 143.642 7.08293 144.794 5.03128 146.846C2.97963 148.898 1.82703 151.68 1.82703 154.582V155.462C1.82703 158.363 2.97963 161.146 5.03128 163.198C7.08293 165.249 9.86556 166.402 12.767 166.402H49.7271C52.6285 166.402 55.4111 165.249 57.4628 163.198C59.5144 161.146 60.667 158.363 60.667 155.462V154.582Z" stroke="#81822E" stroke-width="2"/>
<path d="M42.697 249.052C39.007 252.762 38.757 258.742 41.437 263.052C43.6637 266.618 47.2804 268.392 52.287 268.372C52.7804 268.365 53.0104 268.115 52.977 267.622C52.237 255.472 54.317 243.722 59.797 232.842C60.4503 231.555 60.267 231.422 59.247 232.442C53.787 237.922 48.2703 243.458 42.697 249.052Z" stroke="#81822E" stroke-width="2"/>
<path d="M275.34 349.908C276.57 348.673 277.259 347.001 277.256 345.259C277.253 343.516 276.558 341.846 275.324 340.616L275.097 340.391C274.486 339.781 273.761 339.299 272.963 338.97C272.165 338.641 271.311 338.473 270.448 338.474C269.585 338.476 268.731 338.647 267.935 338.979C267.138 339.31 266.415 339.796 265.806 340.407L243.514 362.776C242.284 364.01 241.595 365.683 241.598 367.425C241.601 369.168 242.296 370.837 243.53 372.067L243.757 372.293C244.368 372.902 245.093 373.385 245.891 373.714C246.689 374.043 247.543 374.211 248.406 374.21C249.269 374.208 250.123 374.037 250.919 373.705C251.716 373.373 252.439 372.888 253.048 372.277L275.34 349.908Z" stroke="#106993" stroke-width="2"/>
<path d="M155.471 349.931C156.081 349.321 156.565 348.597 156.895 347.8C157.225 347.003 157.395 346.148 157.395 345.286C157.395 344.423 157.225 343.569 156.895 342.771C156.565 341.974 156.081 341.25 155.471 340.64L155.259 340.428C154.649 339.818 153.925 339.334 153.127 339.004C152.33 338.673 151.476 338.504 150.613 338.504C149.75 338.504 148.896 338.673 148.099 339.004C147.302 339.334 146.578 339.818 145.968 340.428L123.623 362.772C123.013 363.382 122.529 364.107 122.199 364.904C121.869 365.701 121.699 366.555 121.699 367.418C121.699 368.281 121.869 369.135 122.199 369.932C122.529 370.729 123.013 371.454 123.623 372.064L123.835 372.276C124.445 372.886 125.17 373.37 125.967 373.7C126.764 374.03 127.618 374.2 128.481 374.2C129.344 374.2 130.198 374.03 130.995 373.7C131.792 373.37 132.516 372.886 133.127 372.276L155.471 349.931Z" stroke="#106993" stroke-width="2"/>
<path d="M215.421 349.961C216.031 349.351 216.515 348.627 216.845 347.83C217.175 347.033 217.345 346.178 217.345 345.316C217.345 344.453 217.175 343.599 216.845 342.801C216.515 342.004 216.031 341.28 215.421 340.67L215.209 340.458C214.599 339.848 213.875 339.364 213.077 339.034C212.28 338.704 211.426 338.534 210.563 338.534C209.7 338.534 208.846 338.704 208.049 339.034C207.252 339.364 206.528 339.848 205.918 340.458L183.573 362.802C182.963 363.412 182.479 364.137 182.149 364.934C181.819 365.731 181.649 366.585 181.649 367.448C181.649 368.311 181.819 369.165 182.149 369.962C182.479 370.759 182.963 371.484 183.573 372.094L183.785 372.306C184.395 372.916 185.119 373.4 185.917 373.73C186.714 374.06 187.568 374.23 188.431 374.23C189.294 374.23 190.148 374.06 190.945 373.73C191.742 373.4 192.466 372.916 193.077 372.306L215.421 349.961Z" stroke="#106993" stroke-width="2"/>
<path d="M335.062 340.435C333.832 339.205 332.163 338.514 330.423 338.514C328.683 338.514 327.015 339.205 325.785 340.435L303.44 362.779C302.21 364.01 301.519 365.678 301.519 367.418C301.519 369.158 302.21 370.826 303.44 372.057L303.652 372.269C304.882 373.499 306.551 374.19 308.291 374.19C310.031 374.19 311.699 373.499 312.929 372.269L335.274 349.924C336.504 348.694 337.195 347.026 337.195 345.286C337.195 343.546 336.504 341.877 335.274 340.647L335.062 340.435Z" stroke="#106993" stroke-width="2"/>
<path d="M106.43 398.724C107.658 397.491 108.346 395.821 108.343 394.082C108.34 392.342 107.646 390.674 106.414 389.446L106.187 389.22C105.577 388.612 104.853 388.13 104.056 387.802C103.26 387.474 102.407 387.306 101.545 387.307C100.684 387.309 99.8308 387.48 99.0355 387.811C98.2401 388.142 97.5178 388.626 96.9097 389.237L74.6043 411.62C73.3762 412.853 72.688 414.522 72.691 416.262C72.694 418.002 73.3881 419.669 74.6204 420.897L74.8471 421.123C75.4573 421.731 76.1813 422.213 76.9777 422.542C77.7742 422.87 78.6275 423.038 79.489 423.037C80.3505 423.035 81.2033 422.864 81.9986 422.533C82.7939 422.202 83.5163 421.717 84.1243 421.107L106.43 398.724Z" stroke="#106993" stroke-width="2"/>
<path d="M166.207 389.295C164.979 388.063 163.311 387.369 161.571 387.366C159.832 387.363 158.162 388.051 156.93 389.279L134.532 411.599C133.299 412.827 132.605 414.494 132.602 416.234C132.599 417.974 133.288 419.644 134.516 420.876L134.727 421.089C135.955 422.321 137.623 423.015 139.363 423.018C141.102 423.021 142.772 422.333 144.005 421.105L166.402 398.785C167.635 397.557 168.329 395.89 168.332 394.15C168.335 392.41 167.647 390.74 166.418 389.508L166.207 389.295Z" stroke="#106993" stroke-width="2"/>
<path d="M226.167 389.306C225.559 388.693 224.837 388.207 224.041 387.874C223.245 387.541 222.391 387.368 221.528 387.365C220.666 387.362 219.811 387.529 219.012 387.856C218.214 388.184 217.488 388.665 216.876 389.273L194.454 411.54C193.217 412.767 192.519 414.436 192.513 416.179C192.507 417.921 193.193 419.595 194.421 420.831L194.647 421.058C195.255 421.67 195.977 422.157 196.773 422.49C197.569 422.823 198.423 422.996 199.286 422.999C200.148 423.002 201.003 422.835 201.802 422.507C202.6 422.18 203.326 421.698 203.938 421.09L226.36 398.824C227.597 397.596 228.295 395.928 228.301 394.185C228.307 392.443 227.621 390.769 226.393 389.533L226.167 389.306Z" stroke="#106993" stroke-width="2"/>
<path d="M286.241 398.753C286.848 398.146 287.33 397.425 287.659 396.631C287.987 395.838 288.157 394.987 288.157 394.129C288.157 393.27 287.987 392.419 287.659 391.626C287.33 390.832 286.848 390.111 286.241 389.504L286.015 389.278C285.408 388.671 284.687 388.189 283.893 387.86C283.1 387.531 282.249 387.362 281.39 387.362C280.531 387.362 279.681 387.531 278.888 387.86C278.094 388.189 277.373 388.671 276.766 389.278L254.393 411.651C253.786 412.258 253.304 412.979 252.975 413.772C252.647 414.566 252.477 415.416 252.477 416.275C252.477 417.134 252.647 417.984 252.975 418.778C253.304 419.571 253.786 420.292 254.393 420.9L254.619 421.126C255.226 421.733 255.947 422.215 256.741 422.544C257.534 422.872 258.385 423.041 259.244 423.041C260.103 423.041 260.953 422.872 261.746 422.544C262.54 422.215 263.261 421.733 263.868 421.126L286.241 398.753Z" stroke="#106993" stroke-width="2"/>
<path d="M158.442 1.49937L157.522 1.5058C151.452 1.54817 146.566 6.50279 146.609 12.5723L146.866 49.3714C146.908 55.4408 151.863 60.3267 157.932 60.2844L158.852 60.2779C164.922 60.2356 169.808 55.2809 169.765 49.2115L169.508 12.4124C169.466 6.34292 164.511 1.457 158.442 1.49937Z" fill="#FFCC00"/>
<path d="M250.178 44.2484L224.214 70.2134C219.879 74.5482 219.879 81.5763 224.214 85.9111L224.638 86.3354C228.973 90.6702 236.001 90.6702 240.336 86.3354L266.301 60.3704C270.635 56.0356 270.635 49.0075 266.301 44.6727L265.876 44.2484C261.541 39.9136 254.513 39.9136 250.178 44.2484Z" fill="#FFCC00"/>
<path d="M87.899 74.1799L61.9454 48.3168C57.5913 43.9779 50.5442 43.9902 46.2052 48.3443L45.7676 48.7834C41.4287 53.1376 41.441 60.1847 45.7951 64.5236L71.7486 90.3867C76.1028 94.7257 83.1499 94.7134 87.4888 90.3593L87.9265 89.9201C92.2654 85.566 92.2531 78.5189 87.899 74.1799Z" fill="#FFCC00"/>
<path d="M90.197 202.342C58.837 157.342 79.487 94.8718 130.737 76.9218C172.437 62.3218 218.737 83.0518 235.117 124.332C235.14 124.391 235.149 124.455 235.141 124.518C235.134 124.581 235.11 124.641 235.074 124.692C235.037 124.744 234.988 124.786 234.931 124.814C234.874 124.842 234.81 124.855 234.747 124.852C191.627 122.822 153.057 147.842 136.957 187.662C135.624 190.968 134.517 194.235 133.637 197.462C133.51 197.928 133.21 198.112 132.737 198.012C118.464 194.972 104.527 196.485 90.927 202.552C90.8014 202.608 90.6597 202.617 90.5264 202.579C90.3931 202.541 90.2766 202.457 90.197 202.342Z" fill="#FFCC00"/>
<path d="M299.687 136.152C313.277 136.052 317.537 152.032 305.407 158.302C305.213 158.402 304.991 158.434 304.777 158.395C304.563 158.355 304.37 158.245 304.227 158.082C296.8 149.682 288.057 142.695 277.997 137.122C276.857 136.488 276.94 136.175 278.247 136.182C285.374 136.208 292.52 136.199 299.687 136.152Z" fill="#FFCC00"/>
<path d="M144.417 216.742C146.344 197.242 153.894 180.385 167.067 166.172C194.437 136.642 239.067 130.412 273.457 150.952C289.444 160.505 301.234 174.065 308.827 191.632C308.853 191.691 308.891 191.743 308.94 191.786C308.988 191.829 309.045 191.861 309.106 191.88C309.168 191.899 309.233 191.905 309.297 191.896C309.361 191.888 309.422 191.866 309.477 191.832C337.497 174.062 373.537 178.942 395.387 203.702C429.067 241.872 408.797 302.162 359.227 312.672C354.62 313.645 348.404 314.128 340.577 314.122C265.33 314.055 189.244 314.038 112.317 314.072C110.457 314.072 108.477 313.962 106.727 313.202C104.467 312.235 102.174 311.318 99.847 310.452C90.047 306.812 81.457 299.662 75.767 291.122C57.727 264.042 68.647 227.542 98.377 214.852C112.907 208.652 129.317 209.342 143.627 217.162C144.1 217.415 144.364 217.275 144.417 216.742Z" fill="#EFF0F4"/>
<path d="M49.7271 143.642H12.767C6.72503 143.642 1.82703 148.54 1.82703 154.582V155.462C1.82703 161.504 6.72503 166.402 12.767 166.402H49.7271C55.769 166.402 60.667 161.504 60.667 155.462V154.582C60.667 148.54 55.769 143.642 49.7271 143.642Z" fill="#FFCC00"/>
<path d="M41.437 263.052C38.757 258.742 39.007 252.762 42.697 249.052C48.2703 243.458 53.787 237.922 59.247 232.442C60.267 231.422 60.4503 231.555 59.797 232.842C54.317 243.722 52.237 255.472 52.977 267.622C53.0104 268.115 52.7804 268.365 52.287 268.372C47.2804 268.392 43.6637 266.618 41.437 263.052Z" fill="#FFCC00"/>
<path d="M275.324 340.616L275.097 340.39C272.527 337.829 268.367 337.836 265.806 340.407L243.514 362.776C240.953 365.346 240.96 369.506 243.53 372.067L243.757 372.293C246.327 374.854 250.487 374.847 253.048 372.277L275.34 349.908C277.901 347.337 277.894 343.178 275.324 340.616Z" fill="#1E99CA"/>
<path d="M155.471 340.64L155.259 340.428C152.693 337.862 148.533 337.862 145.968 340.428L123.623 362.772C121.057 365.338 121.057 369.498 123.623 372.064L123.835 372.276C126.401 374.842 130.561 374.842 133.126 372.276L155.471 349.931C158.037 347.366 158.037 343.206 155.471 340.64Z" fill="#1E99CA"/>
<path d="M215.421 340.67L215.209 340.458C212.643 337.892 208.483 337.892 205.918 340.458L183.573 362.802C181.007 365.368 181.007 369.528 183.573 372.094L183.785 372.306C186.351 374.872 190.511 374.872 193.076 372.306L215.421 349.961C217.987 347.395 217.987 343.236 215.421 340.67Z" fill="#1E99CA"/>
<path d="M325.785 340.435L303.44 362.779C300.878 365.341 300.878 369.495 303.44 372.057L303.652 372.269C306.214 374.831 310.368 374.831 312.929 372.269L335.274 349.924C337.836 347.362 337.836 343.209 335.274 340.647L335.062 340.435C332.5 337.873 328.346 337.873 325.785 340.435Z" fill="#1E99CA"/>
<path d="M106.414 389.446L106.187 389.22C103.621 386.663 99.4671 386.67 96.9098 389.237L74.6042 411.62C72.0469 414.186 72.0541 418.34 74.6204 420.897L74.8471 421.123C77.4134 423.681 81.5669 423.673 84.1243 421.107L106.43 398.723C108.987 396.157 108.98 392.004 106.414 389.446Z" fill="#1E99CA"/>
<path d="M156.929 389.279L134.532 411.599C131.965 414.156 131.958 418.31 134.516 420.876L134.727 421.088C137.285 423.655 141.438 423.662 144.005 421.105L166.402 398.785C168.969 396.228 168.976 392.074 166.418 389.508L166.207 389.295C163.649 386.729 159.496 386.722 156.929 389.279Z" fill="#1E99CA"/>
<path d="M216.876 389.273L194.454 411.54C191.879 414.096 191.864 418.256 194.421 420.831L194.647 421.058C197.203 423.633 201.363 423.647 203.938 421.09L226.36 398.824C228.935 396.267 228.95 392.107 226.393 389.533L226.167 389.306C223.611 386.731 219.451 386.716 216.876 389.273Z" fill="#1E99CA"/>
<path d="M286.241 389.504L286.015 389.278C283.461 386.724 279.32 386.724 276.766 389.278L254.393 411.651C251.839 414.205 251.839 418.346 254.393 420.9L254.619 421.126C257.173 423.68 261.314 423.68 263.868 421.126L286.241 398.753C288.795 396.199 288.795 392.058 286.241 389.504Z" fill="#1E99CA"/>
</svg>
