<svg width="98" height="66" viewBox="0 0 98 66" fill="none" xmlns="http://www.w3.org/2000/svg">
<path d="M50.2677 2.75854C50.2677 2.59327 50.2353 2.42961 50.1724 2.27692C50.1095 2.12423 50.0173 1.98548 49.9011 1.86862C49.7849 1.75175 49.6469 1.65905 49.4951 1.5958C49.3433 1.53255 49.1805 1.5 49.0162 1.5H48.98C48.8156 1.5 48.6529 1.53255 48.5011 1.5958C48.3492 1.65905 48.2113 1.75175 48.0951 1.86862C47.9789 1.98548 47.8867 2.12423 47.8238 2.27692C47.7609 2.42961 47.7285 2.59327 47.7285 2.75854V21.009C47.7285 21.3427 47.8604 21.6629 48.0951 21.8989C48.3298 22.1349 48.6481 22.2675 48.98 22.2675H49.0162C49.3481 22.2675 49.6664 22.1349 49.9011 21.8989C50.1358 21.6629 50.2677 21.3427 50.2677 21.009V2.75854Z" stroke="#F7D344" stroke-width="2"/>
<path d="M58.7219 20.501C58.7179 20.498 58.7144 20.4945 58.7114 20.4904C58.7003 20.4793 58.6923 20.4813 58.6872 20.4965C58.5143 21.0231 58.3188 21.568 58.1007 22.1311C57.9781 22.4495 57.9334 22.7396 57.9665 23.0014C58.1384 24.3237 59.9357 24.4495 60.4122 23.2577C60.6203 22.7341 60.8665 22.0729 61.151 21.2743C61.2204 21.0782 61.2837 20.8831 61.341 20.689C61.4023 20.4808 61.4686 20.2867 61.54 20.1068C61.6486 19.8338 61.7526 19.5548 61.8521 19.2698C62.4653 17.5088 62.9961 16.0582 63.4444 14.9179C63.5238 14.7168 63.5931 14.5161 63.6525 14.316C63.755 13.9702 63.8168 13.7691 63.8379 13.7125C64.0219 13.2348 64.2827 12.7102 64.2782 12.225C64.2722 11.3879 63.4383 10.8375 62.6588 11.0832C62.2356 11.2166 61.9632 11.4526 61.8416 11.7913C61.0063 14.1224 60.1604 16.4514 59.3039 18.7785C59.2235 18.9968 59.1295 19.2834 59.022 19.6382C58.9345 19.9263 58.8395 20.2124 58.737 20.4965C58.734 20.5056 58.729 20.5071 58.7219 20.501Z" stroke="#F7D344" stroke-width="2"/>
<path d="M36.5785 13.0331C36.4652 12.7215 36.2333 12.468 35.9341 12.3283C35.6349 12.1886 35.2927 12.1742 34.9829 12.2882L34.9347 12.3059C34.6249 12.42 34.3728 12.6531 34.2339 12.954C34.095 13.2549 34.0807 13.599 34.194 13.9106L37.1601 22.0614C37.2734 22.373 37.5053 22.6265 37.8045 22.7662C38.1037 22.9059 38.4459 22.9203 38.7557 22.8063L38.8039 22.7886C39.1137 22.6745 39.3658 22.4414 39.5047 22.1405C39.6436 21.8395 39.6579 21.4954 39.5445 21.1839L36.5785 13.0331Z" stroke="#F7D344" stroke-width="2"/>
<path d="M19.1073 13.2391C18.8924 12.9815 18.5846 12.8204 18.2515 12.7911C17.9185 12.7618 17.5875 12.8667 17.3314 13.0828L17.3106 13.1004C17.1838 13.2074 17.0792 13.3384 17.0028 13.4861C16.9263 13.6338 16.8796 13.7951 16.8651 13.961C16.8507 14.1268 16.8689 14.2939 16.9187 14.4526C16.9685 14.6114 17.0489 14.7588 17.1553 14.8863L28.0006 27.8842C28.2155 28.1417 28.5233 28.3029 28.8563 28.3322C29.1894 28.3615 29.5204 28.2566 29.7765 28.0405L29.7972 28.0229C29.924 27.9159 30.0287 27.7848 30.1051 27.6372C30.1815 27.4895 30.2283 27.3282 30.2427 27.1623C30.2572 26.9965 30.2389 26.8294 30.1892 26.6707C30.1394 26.5119 30.059 26.3645 29.9526 26.237L19.1073 13.2391Z" stroke="#F7D344" stroke-width="2"/>
<path d="M80.019 15.8581C80.1255 15.7306 80.2058 15.5832 80.2556 15.4244C80.3054 15.2657 80.3236 15.0986 80.3092 14.9328C80.2947 14.7669 80.248 14.6056 80.1715 14.4579C80.0951 14.3103 79.9905 14.1792 79.8637 14.0722L79.8452 14.0566C79.5891 13.8405 79.2581 13.7355 78.9251 13.7648C78.592 13.7941 78.2842 13.9553 78.0693 14.2128L67.2279 27.2061C67.1215 27.3336 67.0411 27.481 66.9913 27.6398C66.9415 27.7985 66.9234 27.9656 66.9378 28.1314C66.9522 28.2973 66.999 28.4586 67.0754 28.6063C67.1518 28.7539 67.2564 28.885 67.3833 28.992L67.4017 29.0076C67.6578 29.2237 67.9888 29.3287 68.3218 29.2994C68.6549 29.2701 68.9627 29.1089 69.1776 28.8514L80.019 15.8581Z" stroke="#F7D344" stroke-width="2"/>
<path d="M29.3589 37.5626C27.0871 41.0673 25.8291 44.9228 25.5849 49.1291C25.5818 49.1907 25.5497 49.2221 25.4884 49.2231C21.5424 49.2519 17.7699 49.2276 13.5978 49.2443C13.1213 49.2473 12.7625 49.3444 12.4685 49.725C11.7779 50.6196 12.4428 51.7705 13.533 51.7705C37.6759 51.7745 61.355 51.775 84.5701 51.772C85.4809 51.772 86.081 50.7424 85.6497 49.916C85.4125 49.4611 85.0154 49.2332 84.4586 49.2322C80.5011 49.221 76.6708 49.2241 72.9676 49.2413C72.7997 49.2423 72.6323 49.2337 72.4655 49.2155C72.4478 49.2133 72.4315 49.2049 72.4193 49.1915C72.4072 49.1782 72.4 49.1609 72.3991 49.1427C72.1473 43.4762 69.6911 38.0341 65.795 34.022C57.0633 25.0332 42.9789 24.4646 33.5476 32.7255C31.9232 34.1478 30.5269 35.7602 29.3589 37.5626Z" stroke="#F7D344" stroke-width="2"/>
<path d="M24.2097 36.6522C24.3766 36.3628 24.4223 36.0185 24.3367 35.6952C24.2512 35.3718 24.0414 35.0959 23.7535 34.9281L14.1108 29.3068C13.9683 29.2238 13.8109 29.1697 13.6476 29.1478C13.4843 29.1259 13.3183 29.1365 13.1591 29.1791C12.9999 29.2217 12.8506 29.2955 12.7197 29.3961C12.5889 29.4967 12.479 29.6223 12.3963 29.7656L12.3767 29.7997C12.2098 30.0892 12.1642 30.4335 12.2497 30.7568C12.3353 31.0801 12.545 31.3561 12.8329 31.5239L22.4756 37.1451C22.6181 37.2282 22.7755 37.2823 22.9388 37.3042C23.1021 37.3261 23.2681 37.3154 23.4273 37.2728C23.5865 37.2302 23.7358 37.1565 23.8667 37.0559C23.9976 36.9553 24.1074 36.8297 24.1901 36.6864L24.2097 36.6522Z" stroke="#F7D344" stroke-width="2"/>
<path d="M83.3625 32.5511C83.6781 32.4177 83.9651 32.2469 84.2234 32.0386C84.332 31.9507 84.4285 31.8405 84.5129 31.7081C84.5431 31.6606 84.5556 31.609 84.5506 31.5534C84.5476 31.518 84.5597 31.4887 84.5868 31.4655C84.627 31.4311 84.6521 31.3876 84.6622 31.335C84.7577 30.8144 84.6124 30.398 84.2264 30.0856C83.7691 29.7156 83.269 29.6909 82.7262 30.0113C82.2648 30.2842 81.8019 30.5541 81.3375 30.821C81.2304 30.8817 81.0932 30.8983 80.9922 30.956C80.7057 31.1197 80.3846 31.3179 80.0287 31.5504C79.691 31.7707 79.3688 31.9663 79.0622 32.1372C78.433 32.4869 77.8133 32.8478 77.2031 33.2198C77.0513 33.3108 76.8965 33.3927 76.7387 33.4655C76.5869 33.5352 76.4396 33.6217 76.2969 33.7248C76.1009 33.8673 75.8913 33.9876 75.6681 34.0857C75.439 34.1857 75.2957 34.3768 75.0439 34.4223C75.0168 34.4273 74.9992 34.443 74.9911 34.4693C74.9861 34.4834 74.9791 34.4966 74.97 34.5087C74.9489 34.533 74.9238 34.5517 74.8946 34.5648C74.4091 34.771 74.0729 34.9959 73.8859 35.2396C73.5582 35.6641 73.509 36.115 73.7382 36.5921C74.0503 37.2411 74.8042 37.4185 75.4269 37.1562C75.7033 37.0399 75.9642 36.8888 76.2095 36.7028C76.315 36.623 76.4326 36.5583 76.5623 36.5087C76.6869 36.4612 76.8015 36.3996 76.9061 36.3237C77.1845 36.1226 77.483 35.9411 77.8017 35.7794C77.8901 35.7349 77.9701 35.6818 78.0414 35.6202C78.1218 35.5524 78.2093 35.5049 78.3038 35.4776C78.4375 35.4382 78.5631 35.3821 78.6807 35.3093C79.106 35.0475 79.5377 34.7832 79.9759 34.5163C80.1408 34.4162 80.2584 34.3394 80.3288 34.2858C80.373 34.2514 80.4223 34.2307 80.4765 34.2236C80.6163 34.2034 80.7374 34.1544 80.8399 34.0766C81.1093 33.8713 81.4013 33.6939 81.716 33.5443C81.9441 33.4362 82.1844 33.2911 82.4367 33.1091C82.5261 33.0444 82.6216 32.9959 82.7232 32.9636C82.8277 32.9292 82.9177 32.8746 82.9931 32.7998C83.1016 32.6927 83.2248 32.6098 83.3625 32.5511Z" stroke="#F7D344" stroke-width="2"/>
<path d="M19.5643 45.8149C19.6221 45.4854 19.5473 45.1463 19.3565 44.8722C19.1656 44.5981 18.8743 44.4115 18.5467 44.3534L3.17799 41.6282C2.85034 41.5701 2.51316 41.6453 2.24062 41.8372C1.96808 42.0291 1.7825 42.322 1.72472 42.6515L1.71791 42.6903C1.66014 43.0199 1.7349 43.3589 1.92573 43.633C2.11657 43.9071 2.40786 44.0937 2.73552 44.1518L18.1042 46.877C18.4319 46.9351 18.769 46.86 19.0416 46.6681C19.3141 46.4761 19.4997 46.1832 19.5575 45.8537L19.5643 45.8149Z" stroke="#F7D344" stroke-width="2"/>
<path d="M96.2762 42.6501C96.2476 42.4872 96.1874 42.3315 96.0989 42.1919C96.0105 42.0524 95.8957 41.9317 95.7609 41.8368C95.6261 41.7418 95.474 41.6746 95.3134 41.6388C95.1527 41.6029 94.9867 41.5993 94.8246 41.628L79.4381 44.3564C79.2761 44.3851 79.1212 44.4457 78.9825 44.5346C78.8437 44.6235 78.7237 44.739 78.6293 44.8746C78.5349 45.0101 78.468 45.163 78.4324 45.3246C78.3968 45.4861 78.3932 45.6532 78.4217 45.8161L78.428 45.852C78.4566 46.0149 78.5168 46.1706 78.6052 46.3102C78.6936 46.4497 78.8085 46.5704 78.9433 46.6653C79.0781 46.7602 79.2302 46.8275 79.3908 46.8633C79.5514 46.8992 79.7175 46.9028 79.8796 46.8741L95.2661 44.1457C95.4281 44.117 95.5829 44.0564 95.7217 43.9675C95.8605 43.8786 95.9805 43.7631 96.0749 43.6275C96.1693 43.492 96.2362 43.3391 96.2718 43.1775C96.3074 43.016 96.311 42.8489 96.2824 42.686L96.2762 42.6501Z" stroke="#F7D344" stroke-width="2"/>
<path d="M78.6174 56.8533C78.6174 56.5195 78.4855 56.1994 78.2509 55.9633C78.0162 55.7273 77.6978 55.5947 77.3659 55.5947H20.6212C20.2893 55.5947 19.971 55.7273 19.7363 55.9633C19.5016 56.1994 19.3698 56.5195 19.3698 56.8533V56.8866C19.3698 57.2204 19.5016 57.5405 19.7363 57.7766C19.971 58.0126 20.2893 58.1452 20.6212 58.1452H77.3659C77.6978 58.1452 78.0162 58.0126 78.2509 57.7766C78.4855 57.5405 78.6174 57.2204 78.6174 56.8866V56.8533Z" stroke="#F7D344" stroke-width="2"/>
<path d="M72.3238 63.2157C72.3238 62.8799 72.1911 62.5579 71.955 62.3204C71.7189 62.083 71.3987 61.9496 71.0648 61.9496H26.9193C26.754 61.9496 26.5902 61.9823 26.4375 62.046C26.2847 62.1096 26.1459 62.2029 26.029 62.3204C25.9121 62.438 25.8194 62.5776 25.7561 62.7312C25.6928 62.8848 25.6603 63.0494 25.6603 63.2157V63.2339C25.6603 63.4002 25.6928 63.5648 25.7561 63.7184C25.8194 63.872 25.9121 64.0116 26.029 64.1292C26.1459 64.2468 26.2847 64.34 26.4375 64.4037C26.5902 64.4673 26.754 64.5 26.9193 64.5H71.0648C71.3987 64.5 71.7189 64.3666 71.955 64.1292C72.1911 63.8917 72.3238 63.5697 72.3238 63.2339V63.2157Z" stroke="#F7D344" stroke-width="2"/>
<path d="M49.0162 1.5H48.98C48.2888 1.5 47.7285 2.06347 47.7285 2.75854V21.009C47.7285 21.704 48.2888 22.2675 48.98 22.2675H49.0162C49.7073 22.2675 50.2677 21.704 50.2677 21.009V2.75854C50.2677 2.06347 49.7073 1.5 49.0162 1.5Z" fill="#F7D344"/>
<path d="M58.737 20.4965C58.8395 20.2124 58.9345 19.9263 59.022 19.6382C59.1295 19.2834 59.2235 18.9968 59.3039 18.7785C60.1604 16.4514 61.0063 14.1224 61.8416 11.7913C61.9632 11.4526 62.2356 11.2166 62.6588 11.0832C63.4383 10.8375 64.2722 11.3879 64.2782 12.225C64.2827 12.7102 64.0219 13.2348 63.8379 13.7125C63.8168 13.7691 63.755 13.9702 63.6525 14.316C63.5931 14.5161 63.5238 14.7168 63.4444 14.9179C62.9961 16.0582 62.4653 17.5088 61.8521 19.2698C61.7526 19.5548 61.6486 19.8338 61.54 20.1068C61.4686 20.2867 61.4023 20.4808 61.341 20.689C61.2837 20.8831 61.2204 21.0782 61.151 21.2743C60.8665 22.0729 60.6203 22.7341 60.4122 23.2577C59.9357 24.4495 58.1384 24.3237 57.9665 23.0014C57.9334 22.7396 57.9781 22.4495 58.1007 22.1311C58.3188 21.568 58.5143 21.0231 58.6872 20.4965C58.6923 20.4813 58.7003 20.4793 58.7114 20.4904C58.7144 20.4945 58.7179 20.498 58.7219 20.501C58.729 20.5071 58.734 20.5056 58.737 20.4965Z" fill="#F7D344"/>
<path d="M34.9829 12.2882L34.9348 12.3059C34.2896 12.5434 33.958 13.2618 34.1941 13.9106L37.1601 22.0614C37.3962 22.7102 38.1106 23.0437 38.7558 22.8063L38.8039 22.7885C39.4491 22.5511 39.7807 21.8327 39.5446 21.1839L36.5786 13.0331C36.3425 12.3843 35.6281 12.0508 34.9829 12.2882Z" fill="#F7D344"/>
<path d="M17.3314 13.0828L17.3106 13.1003C16.7773 13.5504 16.7077 14.3499 17.1552 14.8862L28.0005 27.8842C28.448 28.4205 29.2431 28.4904 29.7764 28.0404L29.7972 28.0229C30.3305 27.5729 30.4001 26.7733 29.9526 26.237L19.1072 13.239C18.6598 12.7027 17.8647 12.6328 17.3314 13.0828Z" fill="#F7D344"/>
<path d="M79.8637 14.0721L79.8453 14.0565C79.312 13.6065 78.5169 13.6765 78.0694 14.2128L67.2279 27.2061C66.7805 27.7424 66.85 28.5419 67.3833 28.992L67.4018 29.0076C67.9351 29.4576 68.7302 29.3876 69.1777 28.8513L80.0191 15.858C80.4666 15.3217 80.397 14.5221 79.8637 14.0721Z" fill="#F7D344"/>
<path d="M29.3589 37.5626C30.5269 35.7602 31.9232 34.1478 33.5476 32.7255C42.9789 24.4646 57.0633 25.0332 65.795 34.022C69.6911 38.0341 72.1473 43.4762 72.3991 49.1427C72.4 49.1609 72.4072 49.1782 72.4193 49.1915C72.4315 49.2049 72.4478 49.2133 72.4655 49.2155C72.6323 49.2337 72.7997 49.2423 72.9676 49.2413C76.6708 49.2241 80.5011 49.221 84.4586 49.2322C85.0154 49.2332 85.4125 49.4611 85.6497 49.916C86.081 50.7424 85.4809 51.772 84.5701 51.772C61.355 51.775 37.6759 51.7745 13.533 51.7705C12.4428 51.7705 11.7779 50.6196 12.4685 49.725C12.7625 49.3444 13.1213 49.2473 13.5978 49.2443C17.7699 49.2276 21.5424 49.2519 25.4884 49.2231C25.5497 49.2221 25.5818 49.1907 25.5849 49.1291C25.8291 44.9228 27.0871 41.0673 29.3589 37.5626Z" fill="#F7D344"/>
<path d="M23.7534 34.928L14.1107 29.3068C13.5113 28.9573 12.7437 29.1627 12.3962 29.7655L12.3766 29.7996C12.0291 30.4024 12.2334 31.1744 12.8328 31.5238L22.4755 37.145C23.0749 37.4945 23.8425 37.2891 24.1899 36.6863L24.2096 36.6522C24.5571 36.0494 24.3528 35.2774 23.7534 34.928Z" fill="#F7D344"/>
<path d="M82.9931 32.7998C82.9177 32.8746 82.8277 32.9292 82.7232 32.9636C82.6216 32.9959 82.5261 33.0444 82.4367 33.1091C82.1844 33.2911 81.9441 33.4362 81.716 33.5443C81.4013 33.6939 81.1093 33.8713 80.8399 34.0766C80.7374 34.1544 80.6163 34.2034 80.4765 34.2236C80.4223 34.2307 80.373 34.2514 80.3288 34.2858C80.2584 34.3394 80.1408 34.4162 79.9759 34.5163C79.5377 34.7832 79.106 35.0475 78.6807 35.3093C78.5631 35.3821 78.4375 35.4382 78.3038 35.4776C78.2093 35.5049 78.1218 35.5524 78.0414 35.6202C77.9701 35.6818 77.8901 35.7349 77.8017 35.7794C77.483 35.9411 77.1845 36.1226 76.9061 36.3237C76.8015 36.3996 76.6869 36.4612 76.5623 36.5087C76.4326 36.5583 76.315 36.623 76.2095 36.7028C75.9642 36.8888 75.7033 37.0399 75.4269 37.1562C74.8042 37.4185 74.0503 37.2411 73.7382 36.5921C73.509 36.115 73.5582 35.6641 73.8859 35.2396C74.0729 34.9959 74.4091 34.771 74.8946 34.5648C74.9238 34.5517 74.9489 34.533 74.97 34.5087C74.9791 34.4966 74.9861 34.4834 74.9911 34.4693C74.9992 34.443 75.0168 34.4273 75.0439 34.4223C75.2957 34.3768 75.439 34.1857 75.6681 34.0857C75.8913 33.9876 76.1009 33.8673 76.2969 33.7248C76.4396 33.6217 76.5869 33.5352 76.7387 33.4655C76.8965 33.3927 77.0513 33.3108 77.2031 33.2198C77.8133 32.8478 78.433 32.4869 79.0622 32.1372C79.3688 31.9663 79.691 31.7707 80.0287 31.5504C80.3846 31.3179 80.7057 31.1197 80.9922 30.956C81.0932 30.8983 81.2304 30.8817 81.3375 30.821C81.8019 30.5541 82.2648 30.2842 82.7262 30.0113C83.269 29.6909 83.7691 29.7156 84.2264 30.0856C84.6124 30.398 84.7577 30.8144 84.6622 31.335C84.6521 31.3876 84.627 31.4311 84.5868 31.4655C84.5597 31.4887 84.5476 31.518 84.5506 31.5534C84.5556 31.609 84.5431 31.6606 84.5129 31.7081C84.4285 31.8405 84.332 31.9507 84.2234 32.0386C83.9651 32.2469 83.6781 32.4177 83.3625 32.5511C83.2248 32.6098 83.1016 32.6927 82.9931 32.7998Z" fill="#F7D344"/>
<path d="M18.5466 44.3533L3.17794 41.6281C2.49563 41.5071 1.84497 41.9653 1.72466 42.6515L1.71786 42.6903C1.59755 43.3765 2.05314 44.0308 2.73545 44.1518L18.1041 46.877C18.7864 46.998 19.4371 46.5398 19.5574 45.8537L19.5642 45.8148C19.6845 45.1287 19.2289 44.4743 18.5466 44.3533Z" fill="#F7D344"/>
<path d="M94.8246 41.6281L79.4381 44.3565C78.7566 44.4774 78.3015 45.1309 78.4217 45.8162L78.428 45.8521C78.5481 46.5374 79.198 46.995 79.8795 46.8742L95.266 44.1458C95.9475 44.025 96.4025 43.3714 96.2824 42.6861L96.2761 42.6502C96.1559 41.9649 95.506 41.5073 94.8246 41.6281Z" fill="#F7D344"/>
<path d="M77.3659 55.5947H20.6212C19.9301 55.5947 19.3698 56.1582 19.3698 56.8533V56.8866C19.3698 57.5817 19.9301 58.1452 20.6212 58.1452H77.3659C78.0571 58.1452 78.6174 57.5817 78.6174 56.8866V56.8533C78.6174 56.1582 78.0571 55.5947 77.3659 55.5947Z" fill="#F7D344"/>
<path d="M71.0648 61.9496H26.9193C26.224 61.9496 25.6603 62.5165 25.6603 63.2157V63.2339C25.6603 63.9332 26.224 64.5 26.9193 64.5H71.0648C71.7601 64.5 72.3238 63.9332 72.3238 63.2339V63.2157C72.3238 62.5165 71.7601 61.9496 71.0648 61.9496Z" fill="#F7D344"/>
</svg>
