<svg width="348" height="328" viewBox="0 0 348 328" fill="none" xmlns="http://www.w3.org/2000/svg">
<path d="M78.7207 79.7449C78.6807 80.1383 78.4874 80.2415 78.1407 80.0549C65.7674 73.4349 52.9107 71.8649 39.5707 75.3449C17.3607 81.1449 1.65072 101.555 1.36072 124.445C1.09072 146.185 14.4107 166.285 35.1307 173.725C37.2507 174.492 39.3274 175.312 41.3607 176.185C42.502 176.68 43.7306 176.935 44.9707 176.935C120.691 176.948 198.671 176.958 278.911 176.965C284.231 176.965 288.917 176.528 292.971 175.655C310.437 171.882 324.281 162.778 334.501 148.345C346.041 132.065 349.231 110.615 343.591 91.6749C337.291 70.5449 320.891 53.5649 299.581 47.0549C281.331 41.4849 260.201 43.7349 244.051 54.6849C243.969 54.741 243.876 54.778 243.778 54.7931C243.679 54.8083 243.579 54.8013 243.483 54.7726C243.388 54.7439 243.299 54.6943 243.224 54.6272C243.15 54.5602 243.09 54.4774 243.051 54.3849C234.181 33.3749 217.291 16.4349 195.991 7.96489C142.381 -13.3651 84.2607 22.6049 78.7207 79.7449Z" stroke="#688396" stroke-width="2"/>
<path d="M58.5307 260.365C58.5748 260.364 58.6184 260.375 58.6573 260.395C58.6963 260.416 58.7293 260.446 58.7533 260.483C58.7773 260.52 58.7915 260.563 58.7945 260.607C58.7976 260.651 58.7894 260.695 58.7707 260.735C49.5974 282.788 40.354 304.722 31.0407 326.535C31.0207 326.588 31.0574 326.632 31.1507 326.665L31.4007 326.745C31.4207 326.752 31.4374 326.745 31.4507 326.725L78.3407 252.325C78.3738 252.276 78.3922 252.219 78.394 252.16C78.3958 252.101 78.381 252.043 78.351 251.991C78.321 251.939 78.2771 251.897 78.2242 251.867C78.1712 251.838 78.1112 251.823 78.0507 251.825L56.0407 252.575C55.9645 252.579 55.8887 252.561 55.8219 252.525C55.755 252.488 55.6998 252.433 55.6624 252.366C55.625 252.3 55.6069 252.224 55.6101 252.148C55.6134 252.072 55.6378 251.998 55.6807 251.935L88.8607 200.025C89.1607 199.558 89.034 199.325 88.4807 199.325L59.5607 199.345C59.154 199.345 58.8574 199.525 58.6707 199.885L27.2607 259.845C27.2333 259.898 27.2201 259.957 27.2222 260.017C27.2243 260.077 27.2418 260.135 27.2729 260.187C27.304 260.238 27.3477 260.28 27.3999 260.31C27.452 260.339 27.5108 260.355 27.5707 260.355L58.5307 260.365Z" stroke="#81822E" stroke-width="2"/>
<path d="M129.221 260.155C129.211 260.176 129.206 260.199 129.207 260.222C129.208 260.245 129.215 260.267 129.227 260.287C129.239 260.307 129.256 260.323 129.275 260.335C129.295 260.347 129.318 260.354 129.341 260.355L160.851 260.365C160.873 260.365 160.896 260.371 160.916 260.381C160.936 260.392 160.953 260.407 160.965 260.426C160.978 260.444 160.986 260.466 160.989 260.488C160.992 260.511 160.989 260.534 160.981 260.555L133.481 326.075C133.469 326.106 133.469 326.14 133.48 326.171C133.491 326.202 133.512 326.228 133.541 326.245L133.681 326.325C133.711 326.344 133.748 326.351 133.784 326.343C133.819 326.336 133.85 326.315 133.871 326.285L180.631 252.035C180.643 252.014 180.649 251.99 180.649 251.965C180.65 251.941 180.643 251.917 180.631 251.895C180.619 251.874 180.601 251.856 180.58 251.844C180.559 251.832 180.535 251.825 180.511 251.825L157.661 252.585C157.635 252.586 157.61 252.581 157.588 252.57C157.565 252.558 157.546 252.54 157.533 252.519C157.519 252.497 157.512 252.472 157.512 252.447C157.511 252.422 157.518 252.397 157.531 252.375L191.281 199.545C191.296 199.523 191.304 199.498 191.306 199.472C191.307 199.446 191.301 199.421 191.289 199.398C191.276 199.375 191.258 199.356 191.235 199.343C191.212 199.33 191.187 199.324 191.161 199.325H161.161C161.135 199.326 161.111 199.334 161.09 199.348C161.069 199.362 161.052 199.382 161.041 199.405L129.221 260.155Z" stroke="#81822E" stroke-width="2"/>
<path d="M259.941 260.355C259.963 260.355 259.986 260.361 260.006 260.371C260.026 260.382 260.043 260.397 260.055 260.416C260.068 260.434 260.076 260.456 260.079 260.478C260.082 260.501 260.079 260.524 260.071 260.545L232.501 326.215C232.489 326.246 232.489 326.28 232.5 326.311C232.511 326.342 232.532 326.368 232.561 326.385L232.671 326.455C232.701 326.474 232.738 326.481 232.774 326.473C232.809 326.466 232.84 326.445 232.861 326.415L279.721 252.025C279.733 252.004 279.739 251.98 279.739 251.955C279.74 251.931 279.733 251.907 279.721 251.885C279.709 251.864 279.691 251.846 279.67 251.834C279.649 251.822 279.625 251.815 279.601 251.815L256.731 252.595C256.705 252.596 256.68 252.591 256.658 252.58C256.635 252.568 256.616 252.55 256.603 252.529C256.589 252.507 256.582 252.482 256.582 252.457C256.581 252.432 256.588 252.407 256.601 252.385L290.391 199.535C290.406 199.514 290.414 199.488 290.416 199.462C290.417 199.436 290.411 199.411 290.399 199.388C290.386 199.365 290.368 199.346 290.345 199.333C290.323 199.32 290.297 199.314 290.271 199.315L260.251 199.335C260.226 199.335 260.202 199.342 260.181 199.354C260.16 199.366 260.143 199.384 260.131 199.405L228.311 260.155C228.301 260.176 228.296 260.199 228.297 260.222C228.298 260.245 228.305 260.267 228.317 260.287C228.329 260.307 228.346 260.323 228.365 260.335C228.385 260.347 228.408 260.354 228.431 260.355H259.941Z" stroke="#81822E" stroke-width="2"/>
<path d="M78.7207 79.7449C84.2607 22.6049 142.381 -13.3651 195.991 7.96489C217.291 16.4349 234.181 33.3749 243.051 54.3849C243.09 54.4774 243.15 54.5602 243.224 54.6272C243.299 54.6943 243.388 54.7439 243.483 54.7726C243.579 54.8013 243.679 54.8083 243.778 54.7931C243.876 54.778 243.969 54.741 244.051 54.6849C260.201 43.7349 281.331 41.4849 299.581 47.0549C320.891 53.5649 337.291 70.5449 343.591 91.6749C349.231 110.615 346.041 132.065 334.501 148.345C324.281 162.778 310.437 171.882 292.971 175.655C288.917 176.528 284.231 176.965 278.911 176.965C198.671 176.958 120.691 176.948 44.9707 176.935C43.7306 176.935 42.502 176.68 41.3607 176.185C39.3274 175.312 37.2507 174.492 35.1307 173.725C14.4107 166.285 1.09072 146.185 1.36072 124.445C1.65072 101.555 17.3607 81.1449 39.5707 75.3449C52.9107 71.8649 65.7674 73.4349 78.1407 80.0549C78.4874 80.2415 78.6807 80.1383 78.7207 79.7449Z" fill="#CDCDCF"/>
<path d="M58.5307 260.365L27.5707 260.355C27.5108 260.355 27.452 260.339 27.3999 260.31C27.3477 260.28 27.304 260.238 27.2729 260.187C27.2418 260.135 27.2243 260.077 27.2222 260.017C27.2201 259.957 27.2333 259.898 27.2607 259.845L58.6707 199.885C58.8574 199.525 59.154 199.345 59.5607 199.345L88.4807 199.325C89.034 199.325 89.1607 199.558 88.8607 200.025L55.6807 251.935C55.6378 251.998 55.6134 252.072 55.6101 252.148C55.6069 252.224 55.625 252.3 55.6624 252.366C55.6998 252.433 55.755 252.488 55.8219 252.525C55.8887 252.561 55.9645 252.579 56.0407 252.575L78.0507 251.825C78.1112 251.823 78.1712 251.838 78.2242 251.867C78.2771 251.897 78.321 251.939 78.351 251.991C78.381 252.043 78.3958 252.101 78.394 252.16C78.3922 252.219 78.3738 252.276 78.3407 252.325L31.4507 326.725C31.4374 326.745 31.4207 326.752 31.4007 326.745L31.1507 326.665C31.0574 326.632 31.0207 326.588 31.0407 326.535C40.354 304.722 49.5974 282.788 58.7707 260.735C58.7894 260.695 58.7976 260.651 58.7945 260.607C58.7915 260.563 58.7773 260.52 58.7533 260.483C58.7293 260.446 58.6963 260.416 58.6573 260.395C58.6184 260.375 58.5748 260.364 58.5307 260.365Z" fill="#FFCC00"/>
<path d="M129.221 260.155L161.041 199.405C161.052 199.382 161.069 199.362 161.09 199.348C161.111 199.334 161.135 199.326 161.161 199.325H191.161C191.187 199.324 191.212 199.33 191.235 199.343C191.258 199.356 191.276 199.375 191.289 199.398C191.301 199.421 191.307 199.446 191.306 199.472C191.304 199.498 191.296 199.523 191.281 199.545L157.531 252.375C157.518 252.397 157.511 252.422 157.512 252.447C157.512 252.472 157.519 252.497 157.533 252.519C157.546 252.54 157.565 252.558 157.588 252.57C157.61 252.581 157.635 252.586 157.661 252.585L180.511 251.825C180.535 251.825 180.559 251.832 180.58 251.844C180.601 251.856 180.619 251.874 180.631 251.895C180.643 251.917 180.65 251.941 180.649 251.965C180.649 251.99 180.643 252.014 180.631 252.035L133.871 326.285C133.85 326.315 133.819 326.336 133.784 326.343C133.748 326.351 133.711 326.344 133.681 326.325L133.541 326.245C133.512 326.228 133.491 326.202 133.48 326.171C133.469 326.14 133.469 326.106 133.481 326.075L160.981 260.555C160.989 260.534 160.992 260.511 160.989 260.488C160.986 260.466 160.978 260.444 160.965 260.426C160.953 260.407 160.936 260.392 160.916 260.381C160.896 260.371 160.873 260.365 160.851 260.365L129.341 260.355C129.318 260.354 129.295 260.347 129.275 260.335C129.256 260.323 129.239 260.307 129.227 260.287C129.215 260.267 129.208 260.245 129.207 260.222C129.206 260.199 129.211 260.176 129.221 260.155Z" fill="#FFCC00"/>
<path d="M259.941 260.355H228.431C228.408 260.354 228.385 260.347 228.365 260.335C228.346 260.323 228.329 260.307 228.317 260.287C228.305 260.267 228.298 260.245 228.297 260.222C228.296 260.199 228.301 260.176 228.311 260.155L260.131 199.405C260.143 199.384 260.16 199.366 260.181 199.354C260.202 199.342 260.226 199.335 260.251 199.335L290.271 199.315C290.297 199.314 290.323 199.32 290.345 199.333C290.368 199.346 290.386 199.365 290.399 199.388C290.411 199.411 290.417 199.436 290.416 199.462C290.414 199.488 290.406 199.514 290.391 199.535L256.601 252.385C256.588 252.407 256.581 252.432 256.582 252.457C256.582 252.482 256.589 252.507 256.603 252.529C256.616 252.55 256.635 252.568 256.658 252.58C256.68 252.591 256.705 252.596 256.731 252.595L279.601 251.815C279.625 251.815 279.649 251.822 279.67 251.834C279.691 251.846 279.709 251.864 279.721 251.885C279.733 251.907 279.74 251.931 279.739 251.955C279.739 251.98 279.733 252.004 279.721 252.025L232.861 326.415C232.84 326.445 232.809 326.466 232.774 326.473C232.738 326.481 232.701 326.474 232.671 326.455L232.561 326.385C232.532 326.368 232.511 326.342 232.5 326.311C232.489 326.28 232.489 326.246 232.501 326.215L260.071 260.545C260.079 260.524 260.082 260.501 260.079 260.478C260.076 260.456 260.068 260.434 260.055 260.416C260.043 260.397 260.026 260.382 260.006 260.371C259.986 260.361 259.963 260.355 259.941 260.355Z" fill="#FFCC00"/>
</svg>
