<svg width="88" height="64" viewBox="0 0 88 64" fill="none" xmlns="http://www.w3.org/2000/svg">
<g id="wind">
<path id="Vector" d="M33.3699 11.2283C33.4425 7.08572 36.2828 3.84675 40.2916 3.08848C42.4085 2.68876 44.8423 3.26291 46.5721 4.58563C52.0325 8.76214 50.685 17.1854 43.9932 19.2688C43.2738 19.4917 42.0448 19.6031 40.3061 19.6031C35.5772 19.6015 30.8119 19.5999 26.0104 19.5983C25.383 19.5983 25.0531 19.9229 25.0209 20.5722C25.0209 20.5867 25.0209 20.6004 25.0209 20.6134C25.0451 21.261 25.3693 21.5848 25.9934 21.5848C31.0821 21.5864 36.2199 21.588 41.4069 21.5897C44.3827 21.5897 46.885 20.5851 48.914 18.576C55.4244 12.1222 50.7721 0.942084 41.6319 1.00023C36.5054 1.03172 32.5958 4.54929 31.5434 9.45258C31.4127 10.0534 31.3667 10.6606 31.4054 11.2743C31.4345 11.7556 31.6756 12.0778 32.1288 12.241C32.232 12.2781 32.3337 12.2902 32.4337 12.2773C33.0482 12.1965 33.3603 11.8469 33.3699 11.2283Z" stroke="#2483F5" stroke-width="2"/>
<path id="Vector_2" d="M82.424 9.62217C84.9376 13.0986 85.4723 17.6166 83.8538 21.5412C81.8457 26.4154 77.2805 29.3031 72.0136 29.2838C62.2106 29.2482 52.1414 29.2402 41.8061 29.2595C41.1416 29.2611 40.8085 29.5833 40.8069 30.2261C40.8069 30.2407 40.8061 30.2544 40.8045 30.2673C40.7867 30.9117 41.1093 31.2347 41.7722 31.2364C52.164 31.2606 62.4065 31.2598 72.4999 31.2339C79.6272 31.2145 85.5957 25.9018 86.6142 18.8691C87.5916 12.1077 83.5175 5.50379 77.1281 3.31137C69.2992 0.627157 60.9525 4.95871 58.6179 12.8902C58.2308 14.2113 58.0437 15.5171 58.0566 16.8075C58.0631 17.313 58.3034 17.6522 58.7776 17.825C58.8824 17.8621 58.988 17.8734 59.0945 17.8589C59.6832 17.7701 59.9872 17.4285 60.0066 16.8342C60.1421 12.8482 61.6977 9.64316 64.6734 7.21897C70.1217 2.78082 78.2676 3.87583 82.424 9.62217Z" stroke="#2483F5" stroke-width="2"/>
<path id="Vector_3" d="M21.583 20.5794C21.583 20.3205 21.4803 20.0722 21.2974 19.8891C21.1146 19.706 20.8666 19.6031 20.608 19.6031H2.21638C1.9578 19.6031 1.70981 19.706 1.52696 19.8891C1.34412 20.0722 1.24139 20.3205 1.24139 20.5794V20.6085C1.24139 20.8675 1.34412 21.1158 1.52696 21.2989C1.70981 21.482 1.9578 21.5848 2.21638 21.5848H20.608C20.8666 21.5848 21.1146 21.482 21.2974 21.2989C21.4803 21.1158 21.583 20.8675 21.583 20.6085V20.5794Z" stroke="#2483F5" stroke-width="2"/>
<path id="Vector_4" d="M32.9683 30.2285C32.9683 29.9702 32.8658 29.7225 32.6834 29.5399C32.5011 29.3572 32.2537 29.2546 31.9957 29.2546H7.47354C7.2156 29.2546 6.96823 29.3572 6.78583 29.5399C6.60344 29.7225 6.50098 29.9702 6.50098 30.2285V30.2721C6.50098 30.5304 6.60344 30.7781 6.78583 30.9607C6.96823 31.1434 7.2156 31.246 7.47354 31.246H31.9957C32.2537 31.246 32.5011 31.1434 32.6834 30.9607C32.8658 30.7781 32.9683 30.5304 32.9683 30.2721V30.2285Z" stroke="#2483F5" stroke-width="2"/>
<path id="Vector_5" d="M19.6185 38.5985C19.6185 38.337 19.5148 38.0862 19.3301 37.9013C19.1454 37.7164 18.895 37.6125 18.6338 37.6125H2.23088C1.96973 37.6125 1.71928 37.7164 1.53462 37.9013C1.34996 38.0862 1.24622 38.337 1.24622 38.5985V38.6276C1.24622 38.8891 1.34996 39.1399 1.53462 39.3248C1.71928 39.5097 1.96973 39.6136 2.23088 39.6136H18.6338C18.895 39.6136 19.1454 39.5097 19.3301 39.3248C19.5148 39.1399 19.6185 38.8891 19.6185 38.6276V38.5985Z" stroke="#2483F5" stroke-width="2"/>
<path id="Vector_6" d="M60.8775 39.7541C65.8734 40.5778 69.6064 44.9966 69.7225 50.0186C69.7887 52.8207 68.9105 55.2634 67.0879 57.3468C62.9218 62.1048 55.5792 62.2913 51.2438 57.6327C49.3616 55.6091 48.3955 53.1889 48.3455 50.3723C48.3342 49.7343 48.0116 49.3839 47.3777 49.3209C47.2858 49.3112 47.1947 49.3217 47.1044 49.3524C46.6076 49.5139 46.3608 49.8554 46.364 50.3771C46.4318 60.6706 58.059 66.5914 66.4371 60.6076C71.9967 56.637 73.3975 48.8509 69.5096 43.1724C67.1532 39.7251 63.2605 37.615 59.063 37.615C48.6616 37.615 37.6755 37.6102 26.1047 37.6005C25.4079 37.5989 25.045 37.9283 25.016 38.5889C25.016 38.6018 25.0168 38.6155 25.0184 38.6301C25.0749 39.2858 25.4313 39.6144 26.0878 39.6161C37.036 39.6338 47.839 39.6274 58.4969 39.5967C59.4388 39.5951 60.2324 39.6475 60.8775 39.7541Z" stroke="#2483F5" stroke-width="2"/>
<path id="Vector_7" d="M38.7771 45.3043C40.8513 46.3476 41.9004 48.007 41.9246 50.2826C41.9609 53.5628 38.7819 56.0411 35.6562 55.4573C33.7885 55.1068 32.4385 54.0134 31.6062 52.1771C31.3232 51.5569 31.2893 50.7599 31.195 50.0573C31.1151 49.4638 30.4861 48.9551 29.8571 49.2652C29.4168 49.4832 29.2119 49.8377 29.2426 50.3287C29.4006 52.8788 30.4667 54.8468 32.4409 56.2325C34.2578 57.5092 36.7158 57.8774 38.8182 57.1652C45.66 54.8565 45.5705 45.2146 38.6053 43.1385C37.9602 42.9463 36.9182 42.8486 35.4796 42.8453C29.9555 42.8373 24.3459 42.8413 18.6508 42.8575C18.0331 42.8591 17.7137 43.1821 17.6927 43.8265C17.6927 43.8394 17.6927 43.8523 17.6927 43.8653C17.7089 44.5113 18.0403 44.8343 18.6871 44.8343C24.8096 44.8375 30.8054 44.8407 36.6747 44.844C37.3715 44.844 38.1602 44.9966 38.7771 45.3043Z" stroke="#2483F5" stroke-width="2"/>
<path id="Vector_8" d="M40.2916 3.08848C36.2828 3.84675 33.4425 7.08572 33.3699 11.2283C33.3603 11.8469 33.0482 12.1965 32.4337 12.2773C32.3337 12.2902 32.232 12.2781 32.1288 12.241C31.6756 12.0778 31.4345 11.7556 31.4054 11.2743C31.3667 10.6606 31.4127 10.0534 31.5434 9.45258C32.5958 4.54929 36.5054 1.03172 41.6319 1.00023C50.7721 0.942084 55.4244 12.1222 48.914 18.576C46.885 20.5851 44.3827 21.5897 41.4069 21.5897C36.2199 21.588 31.0821 21.5864 25.9934 21.5848C25.3693 21.5848 25.0451 21.261 25.0209 20.6134C25.0209 20.6004 25.0209 20.5867 25.0209 20.5722C25.0531 19.9229 25.383 19.5983 26.0104 19.5983C30.8119 19.5999 35.5772 19.6015 40.3061 19.6031C42.0448 19.6031 43.2738 19.4917 43.9932 19.2688C50.685 17.1854 52.0325 8.76214 46.5721 4.58563C44.8423 3.26291 42.4085 2.68876 40.2916 3.08848Z" fill="#304C6D"/>
<path id="Vector_9" d="M82.424 9.62217C78.2676 3.87583 70.1217 2.78082 64.6734 7.21897C61.6977 9.64316 60.1421 12.8482 60.0066 16.8342C59.9872 17.4285 59.6832 17.7701 59.0945 17.8589C58.988 17.8734 58.8824 17.8621 58.7776 17.825C58.3034 17.6522 58.0631 17.313 58.0566 16.8075C58.0437 15.5171 58.2308 14.2113 58.6179 12.8902C60.9525 4.95871 69.2992 0.627157 77.1281 3.31137C83.5175 5.50379 87.5916 12.1077 86.6142 18.8691C85.5957 25.9018 79.6272 31.2145 72.4999 31.2339C62.4065 31.2598 52.164 31.2606 41.7722 31.2364C41.1093 31.2347 40.7867 30.9117 40.8045 30.2673C40.8061 30.2544 40.8069 30.2407 40.8069 30.2261C40.8085 29.5833 41.1416 29.2611 41.8061 29.2595C52.1414 29.2402 62.2106 29.2482 72.0136 29.2838C77.2805 29.3031 81.8457 26.4154 83.8538 21.5412C85.4723 17.6166 84.9376 13.0986 82.424 9.62217Z" fill="#304C6D"/>
<path id="Vector_10" d="M20.608 19.6031H2.21638C1.67791 19.6031 1.24139 20.0403 1.24139 20.5794V20.6085C1.24139 21.1477 1.67791 21.5848 2.21638 21.5848H20.608C21.1465 21.5848 21.583 21.1477 21.583 20.6085V20.5794C21.583 20.0403 21.1465 19.6031 20.608 19.6031Z" fill="#304C6D"/>
<path id="Vector_11" d="M31.9957 29.2546H7.47354C6.93641 29.2546 6.50098 29.6907 6.50098 30.2285V30.2721C6.50098 30.81 6.93641 31.246 7.47354 31.246H31.9957C32.5329 31.246 32.9683 30.81 32.9683 30.2721V30.2285C32.9683 29.6907 32.5329 29.2546 31.9957 29.2546Z" fill="#304C6D"/>
<path id="Vector_12" d="M18.6338 37.6125H2.23088C1.68706 37.6125 1.24622 38.054 1.24622 38.5985V38.6276C1.24622 39.1721 1.68706 39.6136 2.23088 39.6136H18.6338C19.1777 39.6136 19.6185 39.1721 19.6185 38.6276V38.5985C19.6185 38.054 19.1777 37.6125 18.6338 37.6125Z" fill="#304C6D"/>
<path id="Vector_13" d="M69.7225 50.0186C69.6064 44.9966 65.8734 40.5778 60.8775 39.7541C60.2324 39.6475 59.4388 39.5951 58.4969 39.5967C47.839 39.6274 37.036 39.6338 26.0878 39.6161C25.4313 39.6144 25.0749 39.2858 25.0184 38.6301C25.0168 38.6155 25.016 38.6018 25.016 38.5889C25.045 37.9283 25.4079 37.5989 26.1047 37.6005C37.6755 37.6102 48.6616 37.615 59.063 37.615C63.2605 37.615 67.1532 39.7251 69.5096 43.1724C73.3975 48.8509 71.9967 56.637 66.4371 60.6076C58.059 66.5914 46.4318 60.6706 46.364 50.3771C46.3608 49.8554 46.6076 49.5139 47.1044 49.3524C47.1947 49.3217 47.2858 49.3112 47.3777 49.3209C48.0116 49.3839 48.3342 49.7343 48.3455 50.3723C48.3955 53.1889 49.3616 55.6091 51.2438 57.6327C55.5792 62.2913 62.9218 62.1048 67.0879 57.3468C68.9105 55.2634 69.7887 52.8207 69.7225 50.0186Z" fill="#304C6D"/>
<path id="Vector_14" d="M38.7771 45.3043C38.1602 44.9966 37.3715 44.844 36.6747 44.844C30.8054 44.8407 24.8096 44.8375 18.6871 44.8343C18.0403 44.8343 17.7089 44.5113 17.6927 43.8653C17.6927 43.8523 17.6927 43.8394 17.6927 43.8265C17.7137 43.1821 18.0331 42.8591 18.6508 42.8575C24.3459 42.8413 29.9555 42.8373 35.4796 42.8453C36.9182 42.8486 37.9602 42.9463 38.6053 43.1385C45.5705 45.2146 45.66 54.8565 38.8182 57.1652C36.7158 57.8774 34.2578 57.5092 32.4409 56.2325C30.4667 54.8468 29.4006 52.8788 29.2426 50.3287C29.2119 49.8377 29.4168 49.4832 29.8571 49.2652C30.4861 48.9551 31.1151 49.4638 31.195 50.0573C31.2893 50.7599 31.3232 51.5569 31.6062 52.1771C32.4385 54.0134 33.7885 55.1068 35.6562 55.4573C38.7819 56.0411 41.9609 53.5628 41.9246 50.2826C41.9004 48.007 40.8513 46.3476 38.7771 45.3043Z" fill="#304C6D"/>
</g>
</svg>
